SplineFontDB: 3.2
FontName: Mojang
FullName: Mojang Regular
FamilyName: Mojang
Weight: Book
Copyright: Copyright b.tenthousand 2013
Version: 1.0
ItalicAngle: 0
UnderlinePosition: 77
UnderlineWidth: 51
Ascent: 896
Descent: 128
InvalidEm: 0
sfntRevision: 0x00010000
LayerCount: 2
Layer: 0 1 "Back" 1
Layer: 1 1 "Fore" 0
XUID: [1021 460 958957682 17580]
StyleMap: 0x0040
FSType: 4
OS2Version: 2
OS2_WeightWidthSlopeOnly: 0
OS2_UseTypoMetrics: 0
CreationTime: 1377848007
ModificationTime: 1741791577
PfmFamily: 81
TTFWeight: 400
TTFWidth: 5
LineGap: 0
VLineGap: 0
Panose: 0 0 4 0 0 0 0 0 0 0
OS2TypoAscent: 896
OS2TypoAOffset: 0
OS2TypoDescent: -128
OS2TypoDOffset: 0
OS2TypoLinegap: 0
OS2WinAscent: 896
OS2WinAOffset: 0
OS2WinDescent: 128
OS2WinDOffset: 0
HheadAscent: 896
HheadAOffset: 0
HheadDescent: -128
HheadDOffset: 0
OS2SubXSize: 512
OS2SubYSize: 512
OS2SubXOff: 0
OS2SubYOff: -64
OS2SupXSize: 512
OS2SupYSize: 512
OS2SupXOff: 0
OS2SupYOff: 512
OS2StrikeYSize: 51
OS2StrikeYPos: 204
OS2CapHeight: 896
OS2XHeight: 640
OS2Vendor: 'FSTR'
OS2CodePages: 000001fb.00000000
OS2UnicodeRanges: a0000087.00000000.00000000.00000000
DEI: 91125
ShortTable: maxp 16
  1
  0
  207
  40
  10
  0
  0
  2
  0
  0
  0
  0
  0
  0
  0
  0
EndShort
LangName: 1033 "" "" "Regular" "FontStruct Mojang" "" "Version 1.0" "" "FontStruct is a trademark of FSI FontShop International GmbH" "http://fontstruct.com" "b.tenthousand" "+IBoAxAD6-Mojang+IBoAxAD5 was built with FontStruct+AAoA" "http://www.fontshop.com" "http://fontstruct.com/fontstructions/show/836974" "Creative Commons CC0 Public Domain Dedication" "http://creativecommons.org/publicdomain/zero/1.0/" "" "" "" "" "Five big quacking zephyrs jolt my wax bed"
Encoding: UnicodeBmp
UnicodeInterp: none
NameList: AGL For New Fonts
DisplaySize: -48
AntiAlias: 1
FitToEm: 0
WinInfo: 0 38 13
BeginChars: 65539 217

StartChar: .notdef
Encoding: 65536 -1 0
Width: 160
GlyphClass: 1
Flags: W
LayerCount: 2
Fore
SplineSet
448 127 m 1,0,-1
 448 269 l 1,1,-1
 305 269 l 1,2,-1
 305 127 l 1,3,-1
 448 127 l 1,0,-1
590 293 m 1,4,-1
 590 436 l 1,5,-1
 305 436 l 1,6,-1
 305 293 l 1,7,-1
 590 293 l 1,4,-1
448 459 m 1,8,-1
 448 602 l 1,9,-1
 305 602 l 1,10,-1
 305 459 l 1,11,-1
 448 459 l 1,8,-1
590 626 m 1,12,-1
 590 767 l 1,13,-1
 448 767 l 2,14,15
 388 767 388 767 347 726 c 0,16,17
 305 684 305 684 305 626 c 1,18,-1
 590 626 l 1,12,-1
0 0 m 1,19,-1
 0 896 l 1,20,-1
 896 896 l 1,21,-1
 896 0 l 1,22,-1
 0 0 l 1,19,-1
EndSplineSet
Validated: 1
EndChar

StartChar: exclam
Encoding: 33 33 4
Width: 288
GlyphClass: 1
Flags: W
LayerCount: 2
Fore
SplineSet
0 0 m 5,0,-1
 0 128 l 5,1,-1
 128 128 l 5,2,-1
 128 0 l 5,3,-1
 0 0 l 5,0,-1
0 256 m 1,4,-1
 0 896 l 1,5,-1
 128 896 l 1,6,-1
 128 256 l 1,7,-1
 0 256 l 1,4,-1
EndSplineSet
Validated: 1
EndChar

StartChar: quotedbl
Encoding: 34 34 5
Width: 672
GlyphClass: 1
Flags: W
LayerCount: 2
Fore
SplineSet
0 512 m 1,0,-1
 0 640 l 1,1,-1
 128 640 l 1,2,-1
 128 512 l 1,3,-1
 0 512 l 1,0,-1
256 512 m 1,4,-1
 256 640 l 1,5,-1
 384 640 l 1,6,-1
 384 512 l 1,7,-1
 256 512 l 1,4,-1
128 640 m 1,8,-1
 128 896 l 1,9,-1
 256 896 l 1,10,-1
 256 640 l 1,11,-1
 128 640 l 1,8,-1
384 640 m 1,12,-1
 384 896 l 1,13,-1
 512 896 l 1,14,-1
 512 640 l 1,15,-1
 384 640 l 1,12,-1
EndSplineSet
Validated: 5
EndChar

StartChar: numbersign
Encoding: 35 35 6
Width: 800
GlyphClass: 1
Flags: W
LayerCount: 2
Fore
SplineSet
384 384 m 1,0,-1
 384 512 l 1,1,-1
 256 512 l 1,2,-1
 256 384 l 1,3,-1
 384 384 l 1,0,-1
128 0 m 1,4,-1
 128 256 l 1,5,-1
 0 256 l 1,6,-1
 0 384 l 1,7,-1
 128 384 l 1,8,-1
 128 512 l 1,9,-1
 0 512 l 1,10,-1
 0 640 l 1,11,-1
 128 640 l 1,12,-1
 128 896 l 1,13,-1
 256 896 l 1,14,-1
 256 640 l 1,15,-1
 384 640 l 1,16,-1
 384 896 l 1,17,-1
 512 896 l 1,18,-1
 512 640 l 1,19,-1
 640 640 l 1,20,-1
 640 512 l 1,21,-1
 512 512 l 1,22,-1
 512 384 l 1,23,-1
 640 384 l 1,24,-1
 640 256 l 1,25,-1
 512 256 l 1,26,-1
 512 0 l 1,27,-1
 384 0 l 1,28,-1
 384 256 l 1,29,-1
 256 256 l 1,30,-1
 256 0 l 1,31,-1
 128 0 l 1,4,-1
EndSplineSet
Validated: 1
EndChar

StartChar: dollar
Encoding: 36 36 7
Width: 800
GlyphClass: 1
Flags: W
LayerCount: 2
Fore
SplineSet
256 0 m 1,0,-1
 256 128 l 1,1,-1
 0 128 l 1,2,-1
 0 256 l 1,3,-1
 512 256 l 1,4,-1
 512 128 l 1,5,-1
 384 128 l 1,6,-1
 384 0 l 1,7,-1
 256 0 l 1,0,-1
512 256 m 1,8,-1
 512 384 l 1,9,-1
 640 384 l 1,10,-1
 640 256 l 1,11,-1
 512 256 l 1,8,-1
128 384 m 1,12,-1
 128 512 l 1,13,-1
 512 512 l 1,14,-1
 512 384 l 1,15,-1
 128 384 l 1,12,-1
0 512 m 1,16,-1
 0 640 l 1,17,-1
 128 640 l 1,18,-1
 128 512 l 1,19,-1
 0 512 l 1,16,-1
128 640 m 1,20,-1
 128 768 l 1,21,-1
 256 768 l 1,22,-1
 256 896 l 1,23,-1
 384 896 l 1,24,-1
 384 768 l 1,25,-1
 640 768 l 1,26,-1
 640 640 l 1,27,-1
 128 640 l 1,20,-1
EndSplineSet
Validated: 5
EndChar

StartChar: percent
Encoding: 37 37 8
Width: 800
GlyphClass: 1
Flags: W
LayerCount: 2
Fore
SplineSet
0 0 m 1,0,-1
 0 128 l 1,1,-1
 128 128 l 1,2,-1
 128 0 l 1,3,-1
 0 0 l 1,0,-1
512 0 m 1,4,-1
 512 256 l 1,5,-1
 640 256 l 1,6,-1
 640 0 l 1,7,-1
 512 0 l 1,4,-1
128 128 m 1,8,-1
 128 384 l 1,9,-1
 256 384 l 1,10,-1
 256 128 l 1,11,-1
 128 128 l 1,8,-1
256 384 m 1,12,-1
 256 512 l 1,13,-1
 384 512 l 1,14,-1
 384 384 l 1,15,-1
 256 384 l 1,12,-1
384 512 m 1,16,-1
 384 768 l 1,17,-1
 512 768 l 1,18,-1
 512 512 l 1,19,-1
 384 512 l 1,16,-1
0 640 m 1,20,-1
 0 896 l 1,21,-1
 128 896 l 1,22,-1
 128 640 l 1,23,-1
 0 640 l 1,20,-1
512 768 m 1,24,-1
 512 896 l 1,25,-1
 640 896 l 1,26,-1
 640 768 l 1,27,-1
 512 768 l 1,24,-1
EndSplineSet
Validated: 5
EndChar

StartChar: ampersand
Encoding: 38 38 9
Width: 800
GlyphClass: 1
Flags: W
LayerCount: 2
Fore
SplineSet
128 0 m 1,0,-1
 128 128 l 1,1,-1
 384 128 l 1,2,-1
 384 0 l 1,3,-1
 128 0 l 1,0,-1
512 0 m 1,4,-1
 512 128 l 1,5,-1
 640 128 l 1,6,-1
 640 0 l 1,7,-1
 512 0 l 1,4,-1
0 128 m 1,8,-1
 0 384 l 1,9,-1
 128 384 l 1,10,-1
 128 128 l 1,11,-1
 0 128 l 1,8,-1
512 384 m 1,12,-1
 512 512 l 1,13,-1
 640 512 l 1,14,-1
 640 384 l 1,15,-1
 512 384 l 1,12,-1
384 128 m 1,16,-1
 384 256 l 1,17,-1
 256 256 l 1,18,-1
 256 384 l 1,19,-1
 128 384 l 1,20,-1
 128 512 l 1,21,-1
 256 512 l 1,22,-1
 256 640 l 1,23,-1
 384 640 l 1,24,-1
 384 384 l 1,25,-1
 512 384 l 1,26,-1
 512 128 l 1,27,-1
 384 128 l 1,16,-1
128 640 m 1,28,-1
 128 768 l 1,29,-1
 256 768 l 1,30,-1
 256 640 l 1,31,-1
 128 640 l 1,28,-1
384 640 m 1,32,-1
 384 768 l 1,33,-1
 512 768 l 1,34,-1
 512 640 l 1,35,-1
 384 640 l 1,32,-1
256 768 m 1,36,-1
 256 896 l 1,37,-1
 384 896 l 1,38,-1
 384 768 l 1,39,-1
 256 768 l 1,36,-1
EndSplineSet
Validated: 5
EndChar

StartChar: quotesingle
Encoding: 39 39 10
Width: 416
GlyphClass: 1
Flags: W
LayerCount: 2
Fore
SplineSet
0 512 m 1,0,-1
 0 640 l 1,1,-1
 128 640 l 1,2,-1
 128 512 l 1,3,-1
 0 512 l 1,0,-1
128 640 m 1,4,-1
 128 896 l 1,5,-1
 256 896 l 1,6,-1
 256 640 l 1,7,-1
 128 640 l 1,4,-1
EndSplineSet
Validated: 5
EndChar

StartChar: parenleft
Encoding: 40 40 11
Width: 672
GlyphClass: 1
Flags: W
LayerCount: 2
Fore
SplineSet
256 0 m 1,0,-1
 256 128 l 1,1,-1
 512 128 l 1,2,-1
 512 0 l 1,3,-1
 256 0 l 1,0,-1
128 128 m 1,4,-1
 128 256 l 1,5,-1
 256 256 l 1,6,-1
 256 128 l 1,7,-1
 128 128 l 1,4,-1
0 256 m 1,8,-1
 0 640 l 1,9,-1
 128 640 l 1,10,-1
 128 256 l 1,11,-1
 0 256 l 1,8,-1
128 640 m 1,12,-1
 128 768 l 1,13,-1
 256 768 l 1,14,-1
 256 640 l 1,15,-1
 128 640 l 1,12,-1
256 768 m 1,16,-1
 256 896 l 1,17,-1
 512 896 l 1,18,-1
 512 768 l 1,19,-1
 256 768 l 1,16,-1
EndSplineSet
Validated: 5
EndChar

StartChar: parenright
Encoding: 41 41 12
Width: 672
GlyphClass: 1
Flags: W
LayerCount: 2
Fore
SplineSet
0 0 m 1,0,-1
 0 128 l 1,1,-1
 256 128 l 1,2,-1
 256 0 l 1,3,-1
 0 0 l 1,0,-1
256 128 m 1,4,-1
 256 256 l 1,5,-1
 384 256 l 1,6,-1
 384 128 l 1,7,-1
 256 128 l 1,4,-1
384 256 m 1,8,-1
 384 640 l 1,9,-1
 512 640 l 1,10,-1
 512 256 l 1,11,-1
 384 256 l 1,8,-1
256 640 m 1,12,-1
 256 768 l 1,13,-1
 384 768 l 1,14,-1
 384 640 l 1,15,-1
 256 640 l 1,12,-1
0 768 m 1,16,-1
 0 896 l 1,17,-1
 256 896 l 1,18,-1
 256 768 l 1,19,-1
 0 768 l 1,16,-1
EndSplineSet
Validated: 5
EndChar

StartChar: asterisk
Encoding: 42 42 13
Width: 672
GlyphClass: 1
Flags: W
LayerCount: 2
Fore
SplineSet
0 256 m 1,0,-1
 0 384 l 1,1,-1
 128 384 l 1,2,-1
 128 256 l 1,3,-1
 0 256 l 1,0,-1
384 256 m 1,4,-1
 384 384 l 1,5,-1
 512 384 l 1,6,-1
 512 256 l 1,7,-1
 384 256 l 1,4,-1
128 384 m 1,8,-1
 128 512 l 1,9,-1
 384 512 l 1,10,-1
 384 384 l 1,11,-1
 128 384 l 1,8,-1
0 512 m 1,12,-1
 0 640 l 1,13,-1
 128 640 l 1,14,-1
 128 512 l 1,15,-1
 0 512 l 1,12,-1
384 512 m 1,16,-1
 384 640 l 1,17,-1
 512 640 l 1,18,-1
 512 512 l 1,19,-1
 384 512 l 1,16,-1
EndSplineSet
Validated: 5
EndChar

StartChar: plus
Encoding: 43 43 14
Width: 800
GlyphClass: 1
Flags: W
LayerCount: 2
Fore
SplineSet
256 0 m 1,0,-1
 256 256 l 1,1,-1
 0 256 l 1,2,-1
 0 384 l 1,3,-1
 256 384 l 1,4,-1
 256 640 l 1,5,-1
 384 640 l 1,6,-1
 384 384 l 1,7,-1
 640 384 l 1,8,-1
 640 256 l 1,9,-1
 384 256 l 1,10,-1
 384 0 l 1,11,-1
 256 0 l 1,0,-1
EndSplineSet
Validated: 1
EndChar

StartChar: comma
Encoding: 44 44 15
Width: 288
GlyphClass: 1
Flags: W
LayerCount: 2
Fore
SplineSet
0 -128 m 1,0,-1
 0 256 l 1,1,-1
 128 256 l 1,2,-1
 128 -128 l 1,3,-1
 0 -128 l 1,0,-1
EndSplineSet
Validated: 1
EndChar

StartChar: hyphen
Encoding: 45 45 16
Width: 800
GlyphClass: 1
Flags: W
LayerCount: 2
Fore
SplineSet
0 256 m 1,0,-1
 0 384 l 1,1,-1
 640 384 l 1,2,-1
 640 256 l 1,3,-1
 0 256 l 1,0,-1
EndSplineSet
Validated: 1
EndChar

StartChar: period
Encoding: 46 46 17
Width: 288
GlyphClass: 1
Flags: W
LayerCount: 2
Fore
SplineSet
0 0 m 1,0,-1
 0 256 l 1,1,-1
 128 256 l 1,2,-1
 128 0 l 1,3,-1
 0 0 l 1,0,-1
EndSplineSet
Validated: 1
EndChar

StartChar: slash
Encoding: 47 47 18
Width: 800
GlyphClass: 1
Flags: W
LayerCount: 2
Fore
SplineSet
0 0 m 1,0,-1
 0 128 l 1,1,-1
 128 128 l 1,2,-1
 128 0 l 1,3,-1
 0 0 l 1,0,-1
128 128 m 1,4,-1
 128 384 l 1,5,-1
 256 384 l 1,6,-1
 256 128 l 1,7,-1
 128 128 l 1,4,-1
256 384 m 1,8,-1
 256 512 l 1,9,-1
 384 512 l 1,10,-1
 384 384 l 1,11,-1
 256 384 l 1,8,-1
384 512 m 1,12,-1
 384 768 l 1,13,-1
 512 768 l 1,14,-1
 512 512 l 1,15,-1
 384 512 l 1,12,-1
512 768 m 1,16,-1
 512 896 l 1,17,-1
 640 896 l 1,18,-1
 640 768 l 1,19,-1
 512 768 l 1,16,-1
EndSplineSet
Validated: 5
EndChar

StartChar: zero
Encoding: 48 48 19
Width: 800
GlyphClass: 1
Flags: W
LayerCount: 2
Fore
SplineSet
128 0 m 1,0,-1
 128 128 l 1,1,-1
 512 128 l 1,2,-1
 512 0 l 1,3,-1
 128 0 l 1,0,-1
256 384 m 1,4,-1
 256 512 l 1,5,-1
 384 512 l 1,6,-1
 384 384 l 1,7,-1
 256 384 l 1,4,-1
0 128 m 1,8,-1
 0 768 l 1,9,-1
 128 768 l 1,10,-1
 128 384 l 1,11,-1
 256 384 l 1,12,-1
 256 256 l 1,13,-1
 128 256 l 1,14,-1
 128 128 l 1,15,-1
 0 128 l 1,8,-1
512 128 m 1,16,-1
 512 512 l 1,17,-1
 384 512 l 1,18,-1
 384 640 l 1,19,-1
 512 640 l 1,20,-1
 512 768 l 1,21,-1
 640 768 l 1,22,-1
 640 128 l 1,23,-1
 512 128 l 1,16,-1
128 768 m 1,24,-1
 128 896 l 1,25,-1
 512 896 l 1,26,-1
 512 768 l 1,27,-1
 128 768 l 1,24,-1
EndSplineSet
Validated: 5
EndChar

StartChar: one
Encoding: 49 49 20
Width: 800
GlyphClass: 1
Flags: W
LayerCount: 2
Fore
SplineSet
0 0 m 1,0,-1
 0 128 l 1,1,-1
 256 128 l 1,2,-1
 256 640 l 1,3,-1
 128 640 l 1,4,-1
 128 768 l 1,5,-1
 256 768 l 1,6,-1
 256 896 l 1,7,-1
 384 896 l 1,8,-1
 384 128 l 1,9,-1
 640 128 l 1,10,-1
 640 0 l 1,11,-1
 0 0 l 1,0,-1
EndSplineSet
Validated: 1
EndChar

StartChar: two
Encoding: 50 50 21
Width: 800
GlyphClass: 1
Flags: W
LayerCount: 2
Fore
SplineSet
0 0 m 1,0,-1
 0 256 l 1,1,-1
 128 256 l 1,2,-1
 128 128 l 1,3,-1
 640 128 l 1,4,-1
 640 0 l 1,5,-1
 0 0 l 1,0,-1
128 256 m 1,6,-1
 128 384 l 1,7,-1
 256 384 l 1,8,-1
 256 256 l 1,9,-1
 128 256 l 1,6,-1
256 384 m 1,10,-1
 256 512 l 1,11,-1
 512 512 l 1,12,-1
 512 384 l 1,13,-1
 256 384 l 1,10,-1
0 640 m 1,14,-1
 0 768 l 1,15,-1
 128 768 l 1,16,-1
 128 640 l 1,17,-1
 0 640 l 1,14,-1
512 512 m 1,18,-1
 512 768 l 1,19,-1
 640 768 l 1,20,-1
 640 512 l 1,21,-1
 512 512 l 1,18,-1
128 768 m 1,22,-1
 128 896 l 1,23,-1
 512 896 l 1,24,-1
 512 768 l 1,25,-1
 128 768 l 1,22,-1
EndSplineSet
Validated: 5
EndChar

StartChar: three
Encoding: 51 51 22
Width: 800
GlyphClass: 1
Flags: W
LayerCount: 2
Fore
SplineSet
128 0 m 1,0,-1
 128 128 l 1,1,-1
 512 128 l 1,2,-1
 512 0 l 1,3,-1
 128 0 l 1,0,-1
0 128 m 1,4,-1
 0 256 l 1,5,-1
 128 256 l 1,6,-1
 128 128 l 1,7,-1
 0 128 l 1,4,-1
512 128 m 1,8,-1
 512 384 l 1,9,-1
 640 384 l 1,10,-1
 640 128 l 1,11,-1
 512 128 l 1,8,-1
256 384 m 1,12,-1
 256 512 l 1,13,-1
 512 512 l 1,14,-1
 512 384 l 1,15,-1
 256 384 l 1,12,-1
0 640 m 1,16,-1
 0 768 l 1,17,-1
 128 768 l 1,18,-1
 128 640 l 1,19,-1
 0 640 l 1,16,-1
512 512 m 1,20,-1
 512 768 l 1,21,-1
 640 768 l 1,22,-1
 640 512 l 1,23,-1
 512 512 l 1,20,-1
128 768 m 1,24,-1
 128 896 l 1,25,-1
 512 896 l 1,26,-1
 512 768 l 1,27,-1
 128 768 l 1,24,-1
EndSplineSet
Validated: 5
EndChar

StartChar: four
Encoding: 52 52 23
Width: 800
GlyphClass: 1
Flags: W
LayerCount: 2
Fore
SplineSet
128 512 m 1,0,-1
 128 640 l 1,1,-1
 256 640 l 1,2,-1
 256 512 l 1,3,-1
 128 512 l 1,0,-1
256 640 m 1,4,-1
 256 768 l 1,5,-1
 384 768 l 1,6,-1
 384 640 l 1,7,-1
 256 640 l 1,4,-1
512 0 m 1,8,-1
 512 256 l 1,9,-1
 0 256 l 1,10,-1
 0 512 l 1,11,-1
 128 512 l 1,12,-1
 128 384 l 1,13,-1
 512 384 l 1,14,-1
 512 768 l 1,15,-1
 384 768 l 1,16,-1
 384 896 l 1,17,-1
 640 896 l 1,18,-1
 640 0 l 1,19,-1
 512 0 l 1,8,-1
EndSplineSet
Validated: 5
EndChar

StartChar: five
Encoding: 53 53 24
Width: 800
GlyphClass: 1
Flags: W
LayerCount: 2
Fore
SplineSet
0 0 m 1,0,-1
 0 128 l 1,1,-1
 512 128 l 1,2,-1
 512 0 l 1,3,-1
 0 0 l 1,0,-1
512 128 m 1,4,-1
 512 512 l 1,5,-1
 640 512 l 1,6,-1
 640 128 l 1,7,-1
 512 128 l 1,4,-1
0 512 m 1,8,-1
 0 896 l 1,9,-1
 640 896 l 1,10,-1
 640 768 l 1,11,-1
 128 768 l 1,12,-1
 128 640 l 1,13,-1
 512 640 l 1,14,-1
 512 512 l 1,15,-1
 0 512 l 1,8,-1
EndSplineSet
Validated: 5
EndChar

StartChar: six
Encoding: 54 54 25
Width: 800
GlyphClass: 1
Flags: W
LayerCount: 2
Fore
SplineSet
128 0 m 1,0,-1
 128 128 l 1,1,-1
 512 128 l 1,2,-1
 512 0 l 1,3,-1
 128 0 l 1,0,-1
512 128 m 1,4,-1
 512 384 l 1,5,-1
 640 384 l 1,6,-1
 640 128 l 1,7,-1
 512 128 l 1,4,-1
0 128 m 1,8,-1
 0 640 l 1,9,-1
 128 640 l 1,10,-1
 128 512 l 1,11,-1
 512 512 l 1,12,-1
 512 384 l 1,13,-1
 128 384 l 1,14,-1
 128 128 l 1,15,-1
 0 128 l 1,8,-1
128 640 m 1,16,-1
 128 768 l 1,17,-1
 256 768 l 1,18,-1
 256 640 l 1,19,-1
 128 640 l 1,16,-1
256 768 m 1,20,-1
 256 896 l 1,21,-1
 512 896 l 1,22,-1
 512 768 l 1,23,-1
 256 768 l 1,20,-1
EndSplineSet
Validated: 5
EndChar

StartChar: seven
Encoding: 55 55 26
Width: 800
GlyphClass: 1
Flags: W
LayerCount: 2
Fore
SplineSet
256 0 m 1,0,-1
 256 384 l 1,1,-1
 384 384 l 1,2,-1
 384 0 l 1,3,-1
 256 0 l 1,0,-1
384 384 m 1,4,-1
 384 512 l 1,5,-1
 512 512 l 1,6,-1
 512 384 l 1,7,-1
 384 384 l 1,4,-1
512 512 m 1,8,-1
 512 768 l 1,9,-1
 128 768 l 1,10,-1
 128 640 l 1,11,-1
 0 640 l 1,12,-1
 0 896 l 1,13,-1
 640 896 l 1,14,-1
 640 512 l 1,15,-1
 512 512 l 1,8,-1
EndSplineSet
Validated: 5
EndChar

StartChar: eight
Encoding: 56 56 27
Width: 800
GlyphClass: 1
Flags: W
LayerCount: 2
Fore
SplineSet
128 0 m 1,0,-1
 128 128 l 1,1,-1
 512 128 l 1,2,-1
 512 0 l 1,3,-1
 128 0 l 1,0,-1
0 128 m 1,4,-1
 0 384 l 1,5,-1
 128 384 l 1,6,-1
 128 128 l 1,7,-1
 0 128 l 1,4,-1
512 128 m 1,8,-1
 512 384 l 1,9,-1
 640 384 l 1,10,-1
 640 128 l 1,11,-1
 512 128 l 1,8,-1
128 384 m 1,12,-1
 128 512 l 1,13,-1
 512 512 l 1,14,-1
 512 384 l 1,15,-1
 128 384 l 1,12,-1
0 512 m 1,16,-1
 0 768 l 1,17,-1
 128 768 l 1,18,-1
 128 512 l 1,19,-1
 0 512 l 1,16,-1
512 512 m 1,20,-1
 512 768 l 1,21,-1
 640 768 l 1,22,-1
 640 512 l 1,23,-1
 512 512 l 1,20,-1
128 768 m 1,24,-1
 128 896 l 1,25,-1
 512 896 l 1,26,-1
 512 768 l 1,27,-1
 128 768 l 1,24,-1
EndSplineSet
Validated: 5
EndChar

StartChar: nine
Encoding: 57 57 28
Width: 800
GlyphClass: 1
Flags: W
LayerCount: 2
Fore
SplineSet
128 0 m 1,0,-1
 128 128 l 1,1,-1
 384 128 l 1,2,-1
 384 0 l 1,3,-1
 128 0 l 1,0,-1
384 128 m 1,4,-1
 384 256 l 1,5,-1
 512 256 l 1,6,-1
 512 128 l 1,7,-1
 384 128 l 1,4,-1
0 512 m 1,8,-1
 0 768 l 1,9,-1
 128 768 l 1,10,-1
 128 512 l 1,11,-1
 0 512 l 1,8,-1
512 256 m 1,12,-1
 512 384 l 1,13,-1
 128 384 l 1,14,-1
 128 512 l 1,15,-1
 512 512 l 1,16,-1
 512 768 l 1,17,-1
 640 768 l 1,18,-1
 640 256 l 1,19,-1
 512 256 l 1,12,-1
128 768 m 1,20,-1
 128 896 l 1,21,-1
 512 896 l 1,22,-1
 512 768 l 1,23,-1
 128 768 l 1,20,-1
EndSplineSet
Validated: 5
EndChar

StartChar: colon
Encoding: 58 58 29
Width: 288
GlyphClass: 1
Flags: W
LayerCount: 2
Fore
SplineSet
0 0 m 1,0,-1
 0 256 l 1,1,-1
 128 256 l 1,2,-1
 128 0 l 1,3,-1
 0 0 l 1,0,-1
0 512 m 1,4,-1
 0 768 l 1,5,-1
 128 768 l 1,6,-1
 128 512 l 1,7,-1
 0 512 l 1,4,-1
EndSplineSet
Validated: 1
EndChar

StartChar: semicolon
Encoding: 59 59 30
Width: 288
GlyphClass: 1
Flags: W
LayerCount: 2
Fore
SplineSet
0 -128 m 1,0,-1
 0 256 l 1,1,-1
 128 256 l 1,2,-1
 128 -128 l 1,3,-1
 0 -128 l 1,0,-1
0 512 m 1,4,-1
 0 768 l 1,5,-1
 128 768 l 1,6,-1
 128 512 l 1,7,-1
 0 512 l 1,4,-1
EndSplineSet
Validated: 1
EndChar

StartChar: less
Encoding: 60 60 31
Width: 672
GlyphClass: 1
Flags: W
LayerCount: 2
Fore
SplineSet
384 0 m 1,0,-1
 384 128 l 1,1,-1
 512 128 l 1,2,-1
 512 0 l 1,3,-1
 384 0 l 1,0,-1
256 128 m 1,4,-1
 256 256 l 1,5,-1
 384 256 l 1,6,-1
 384 128 l 1,7,-1
 256 128 l 1,4,-1
128 256 m 1,8,-1
 128 384 l 1,9,-1
 256 384 l 1,10,-1
 256 256 l 1,11,-1
 128 256 l 1,8,-1
0 384 m 1,12,-1
 0 512 l 1,13,-1
 128 512 l 1,14,-1
 128 384 l 1,15,-1
 0 384 l 1,12,-1
128 512 m 1,16,-1
 128 640 l 1,17,-1
 256 640 l 1,18,-1
 256 512 l 1,19,-1
 128 512 l 1,16,-1
256 640 m 1,20,-1
 256 768 l 1,21,-1
 384 768 l 1,22,-1
 384 640 l 1,23,-1
 256 640 l 1,20,-1
384 768 m 1,24,-1
 384 896 l 1,25,-1
 512 896 l 1,26,-1
 512 768 l 1,27,-1
 384 768 l 1,24,-1
EndSplineSet
Validated: 5
EndChar

StartChar: equal
Encoding: 61 61 32
Width: 800
GlyphClass: 1
Flags: W
LayerCount: 2
Fore
SplineSet
0 128 m 1,0,-1
 0 256 l 1,1,-1
 640 256 l 1,2,-1
 640 128 l 1,3,-1
 0 128 l 1,0,-1
0 512 m 1,4,-1
 0 640 l 1,5,-1
 640 640 l 1,6,-1
 640 512 l 1,7,-1
 0 512 l 1,4,-1
EndSplineSet
Validated: 1
EndChar

StartChar: greater
Encoding: 62 62 33
Width: 672
GlyphClass: 1
Flags: W
LayerCount: 2
Fore
SplineSet
0 0 m 1,0,-1
 0 128 l 1,1,-1
 128 128 l 1,2,-1
 128 0 l 1,3,-1
 0 0 l 1,0,-1
128 128 m 1,4,-1
 128 256 l 1,5,-1
 256 256 l 1,6,-1
 256 128 l 1,7,-1
 128 128 l 1,4,-1
256 256 m 1,8,-1
 256 384 l 1,9,-1
 384 384 l 1,10,-1
 384 256 l 1,11,-1
 256 256 l 1,8,-1
384 384 m 1,12,-1
 384 512 l 1,13,-1
 512 512 l 1,14,-1
 512 384 l 1,15,-1
 384 384 l 1,12,-1
256 512 m 1,16,-1
 256 640 l 1,17,-1
 384 640 l 1,18,-1
 384 512 l 1,19,-1
 256 512 l 1,16,-1
128 640 m 1,20,-1
 128 768 l 1,21,-1
 256 768 l 1,22,-1
 256 640 l 1,23,-1
 128 640 l 1,20,-1
0 768 m 1,24,-1
 0 896 l 1,25,-1
 128 896 l 1,26,-1
 128 768 l 1,27,-1
 0 768 l 1,24,-1
EndSplineSet
Validated: 5
EndChar

StartChar: question
Encoding: 63 63 34
Width: 800
GlyphClass: 1
Flags: W
LayerCount: 2
Fore
SplineSet
256 0 m 1,0,-1
 256 128 l 1,1,-1
 384 128 l 1,2,-1
 384 0 l 1,3,-1
 256 0 l 1,0,-1
256 256 m 1,4,-1
 256 384 l 1,5,-1
 384 384 l 1,6,-1
 384 256 l 1,7,-1
 256 256 l 1,4,-1
384 384 m 1,8,-1
 384 512 l 1,9,-1
 512 512 l 1,10,-1
 512 384 l 1,11,-1
 384 384 l 1,8,-1
0 640 m 1,12,-1
 0 768 l 1,13,-1
 128 768 l 1,14,-1
 128 640 l 1,15,-1
 0 640 l 1,12,-1
512 512 m 1,16,-1
 512 768 l 1,17,-1
 640 768 l 1,18,-1
 640 512 l 1,19,-1
 512 512 l 1,16,-1
128 768 m 1,20,-1
 128 896 l 1,21,-1
 512 896 l 1,22,-1
 512 768 l 1,23,-1
 128 768 l 1,20,-1
EndSplineSet
Validated: 5
EndChar

StartChar: at
Encoding: 64 64 35
Width: 928
GlyphClass: 1
Flags: W
LayerCount: 2
Fore
SplineSet
128 0 m 1,0,-1
 128 128 l 1,1,-1
 768 128 l 1,2,-1
 768 0 l 1,3,-1
 128 0 l 1,0,-1
0 128 m 1,4,-1
 0 768 l 1,5,-1
 128 768 l 1,6,-1
 128 128 l 1,7,-1
 0 128 l 1,4,-1
256 256 m 1,8,-1
 256 640 l 1,9,-1
 512 640 l 1,10,-1
 512 384 l 1,11,-1
 640 384 l 1,12,-1
 640 768 l 1,13,-1
 768 768 l 1,14,-1
 768 256 l 1,15,-1
 256 256 l 1,8,-1
128 768 m 1,16,-1
 128 896 l 1,17,-1
 640 896 l 1,18,-1
 640 768 l 1,19,-1
 128 768 l 1,16,-1
EndSplineSet
Validated: 5
EndChar

StartChar: A
Encoding: 65 65 36
Width: 800
GlyphClass: 1
Flags: W
LayerCount: 2
Fore
SplineSet
0 0 m 1,0,-1
 0 768 l 1,1,-1
 128 768 l 1,2,-1
 128 640 l 1,3,-1
 512 640 l 1,4,-1
 512 768 l 1,5,-1
 640 768 l 1,6,-1
 640 0 l 1,7,-1
 512 0 l 1,8,-1
 512 512 l 1,9,-1
 128 512 l 1,10,-1
 128 0 l 1,11,-1
 0 0 l 1,0,-1
128 768 m 1,12,-1
 128 896 l 1,13,-1
 512 896 l 1,14,-1
 512 768 l 1,15,-1
 128 768 l 1,12,-1
EndSplineSet
Validated: 5
EndChar

StartChar: B
Encoding: 66 66 37
Width: 800
GlyphClass: 1
Flags: W
LayerCount: 2
Fore
SplineSet
512 128 m 1,0,-1
 512 512 l 1,1,-1
 640 512 l 1,2,-1
 640 128 l 1,3,-1
 512 128 l 1,0,-1
512 640 m 1,4,-1
 512 768 l 1,5,-1
 640 768 l 1,6,-1
 640 640 l 1,7,-1
 512 640 l 1,4,-1
0 0 m 1,8,-1
 0 896 l 1,9,-1
 512 896 l 1,10,-1
 512 768 l 1,11,-1
 128 768 l 1,12,-1
 128 640 l 1,13,-1
 512 640 l 1,14,-1
 512 512 l 1,15,-1
 128 512 l 1,16,-1
 128 128 l 1,17,-1
 512 128 l 1,18,-1
 512 0 l 1,19,-1
 0 0 l 1,8,-1
EndSplineSet
Validated: 5
EndChar

StartChar: C
Encoding: 67 67 38
Width: 800
GlyphClass: 1
Flags: W
LayerCount: 2
Fore
SplineSet
128 0 m 1,0,-1
 128 128 l 1,1,-1
 512 128 l 1,2,-1
 512 0 l 1,3,-1
 128 0 l 1,0,-1
512 128 m 1,4,-1
 512 256 l 1,5,-1
 640 256 l 1,6,-1
 640 128 l 1,7,-1
 512 128 l 1,4,-1
0 128 m 1,8,-1
 0 768 l 1,9,-1
 128 768 l 1,10,-1
 128 128 l 1,11,-1
 0 128 l 1,8,-1
512 640 m 1,12,-1
 512 768 l 1,13,-1
 640 768 l 1,14,-1
 640 640 l 1,15,-1
 512 640 l 1,12,-1
128 768 m 1,16,-1
 128 896 l 1,17,-1
 512 896 l 1,18,-1
 512 768 l 1,19,-1
 128 768 l 1,16,-1
EndSplineSet
Validated: 5
EndChar

StartChar: D
Encoding: 68 68 39
Width: 800
GlyphClass: 1
Flags: W
LayerCount: 2
Fore
SplineSet
512 128 m 1,0,-1
 512 768 l 1,1,-1
 640 768 l 1,2,-1
 640 128 l 1,3,-1
 512 128 l 1,0,-1
0 0 m 1,4,-1
 0 896 l 1,5,-1
 512 896 l 1,6,-1
 512 768 l 1,7,-1
 128 768 l 1,8,-1
 128 128 l 1,9,-1
 512 128 l 1,10,-1
 512 0 l 1,11,-1
 0 0 l 1,4,-1
EndSplineSet
Validated: 5
EndChar

StartChar: E
Encoding: 69 69 40
Width: 800
GlyphClass: 1
Flags: W
LayerCount: 2
Fore
SplineSet
0 0 m 1,0,-1
 0 896 l 1,1,-1
 640 896 l 1,2,-1
 640 768 l 1,3,-1
 128 768 l 1,4,-1
 128 640 l 1,5,-1
 384 640 l 1,6,-1
 384 512 l 1,7,-1
 128 512 l 1,8,-1
 128 128 l 1,9,-1
 640 128 l 1,10,-1
 640 0 l 1,11,-1
 0 0 l 1,0,-1
EndSplineSet
Validated: 1
EndChar

StartChar: F
Encoding: 70 70 41
Width: 800
GlyphClass: 1
Flags: W
LayerCount: 2
Fore
SplineSet
0 0 m 1,0,-1
 0 896 l 1,1,-1
 640 896 l 1,2,-1
 640 768 l 1,3,-1
 128 768 l 1,4,-1
 128 640 l 1,5,-1
 384 640 l 1,6,-1
 384 512 l 1,7,-1
 128 512 l 1,8,-1
 128 0 l 1,9,-1
 0 0 l 1,0,-1
EndSplineSet
Validated: 1
EndChar

StartChar: G
Encoding: 71 71 42
Width: 800
GlyphClass: 1
Flags: W
LayerCount: 2
Fore
SplineSet
128 0 m 1,0,-1
 128 128 l 1,1,-1
 512 128 l 1,2,-1
 512 0 l 1,3,-1
 128 0 l 1,0,-1
512 128 m 1,4,-1
 512 512 l 1,5,-1
 384 512 l 1,6,-1
 384 640 l 1,7,-1
 640 640 l 1,8,-1
 640 128 l 1,9,-1
 512 128 l 1,4,-1
0 128 m 1,10,-1
 0 768 l 1,11,-1
 128 768 l 1,12,-1
 128 128 l 1,13,-1
 0 128 l 1,10,-1
128 768 m 1,14,-1
 128 896 l 1,15,-1
 640 896 l 1,16,-1
 640 768 l 1,17,-1
 128 768 l 1,14,-1
EndSplineSet
Validated: 5
EndChar

StartChar: H
Encoding: 72 72 43
Width: 800
GlyphClass: 1
Flags: W
LayerCount: 2
Fore
SplineSet
0 0 m 1,0,-1
 0 896 l 1,1,-1
 128 896 l 1,2,-1
 128 640 l 1,3,-1
 512 640 l 1,4,-1
 512 896 l 1,5,-1
 640 896 l 1,6,-1
 640 0 l 1,7,-1
 512 0 l 1,8,-1
 512 512 l 1,9,-1
 128 512 l 1,10,-1
 128 0 l 1,11,-1
 0 0 l 1,0,-1
EndSplineSet
Validated: 1
EndChar

StartChar: I
Encoding: 73 73 44
Width: 544
GlyphClass: 1
Flags: W
LayerCount: 2
Fore
SplineSet
0 0 m 5,0,-1
 0 128 l 5,1,-1
 128 128 l 5,2,-1
 128 768 l 5,3,-1
 0 768 l 5,4,-1
 0 896 l 5,5,-1
 384 896 l 5,6,-1
 384 768 l 5,7,-1
 256 768 l 5,8,-1
 256 128 l 5,9,-1
 384 128 l 5,10,-1
 384 0 l 5,11,-1
 0 0 l 5,0,-1
EndSplineSet
Validated: 1
EndChar

StartChar: J
Encoding: 74 74 45
Width: 800
GlyphClass: 1
Flags: W
LayerCount: 2
Fore
SplineSet
128 0 m 1,0,-1
 128 128 l 1,1,-1
 512 128 l 1,2,-1
 512 0 l 1,3,-1
 128 0 l 1,0,-1
0 128 m 1,4,-1
 0 256 l 1,5,-1
 128 256 l 1,6,-1
 128 128 l 1,7,-1
 0 128 l 1,4,-1
512 128 m 1,8,-1
 512 896 l 1,9,-1
 640 896 l 1,10,-1
 640 128 l 1,11,-1
 512 128 l 1,8,-1
EndSplineSet
Validated: 5
EndChar

StartChar: K
Encoding: 75 75 46
Width: 800
GlyphClass: 1
Flags: W
LayerCount: 2
Fore
SplineSet
512 0 m 1,0,-1
 512 384 l 1,1,-1
 640 384 l 1,2,-1
 640 0 l 1,3,-1
 512 0 l 1,0,-1
384 384 m 1,4,-1
 384 512 l 1,5,-1
 512 512 l 1,6,-1
 512 384 l 1,7,-1
 384 384 l 1,4,-1
384 640 m 1,8,-1
 384 768 l 1,9,-1
 512 768 l 1,10,-1
 512 640 l 1,11,-1
 384 640 l 1,8,-1
0 0 m 1,12,-1
 0 896 l 1,13,-1
 128 896 l 1,14,-1
 128 640 l 1,15,-1
 384 640 l 1,16,-1
 384 512 l 1,17,-1
 128 512 l 1,18,-1
 128 0 l 1,19,-1
 0 0 l 1,12,-1
512 768 m 1,20,-1
 512 896 l 1,21,-1
 640 896 l 1,22,-1
 640 768 l 1,23,-1
 512 768 l 1,20,-1
EndSplineSet
Validated: 5
EndChar

StartChar: L
Encoding: 76 76 47
Width: 800
GlyphClass: 1
Flags: W
LayerCount: 2
Fore
SplineSet
0 0 m 1,0,-1
 0 896 l 1,1,-1
 128 896 l 1,2,-1
 128 128 l 1,3,-1
 640 128 l 1,4,-1
 640 0 l 1,5,-1
 0 0 l 1,0,-1
EndSplineSet
Validated: 1
EndChar

StartChar: M
Encoding: 77 77 48
Width: 800
GlyphClass: 1
Flags: W
LayerCount: 2
Fore
SplineSet
256 512 m 1,0,-1
 256 640 l 1,1,-1
 384 640 l 1,2,-1
 384 512 l 1,3,-1
 256 512 l 1,0,-1
0 0 m 1,4,-1
 0 896 l 1,5,-1
 128 896 l 1,6,-1
 128 768 l 1,7,-1
 256 768 l 1,8,-1
 256 640 l 1,9,-1
 128 640 l 1,10,-1
 128 0 l 1,11,-1
 0 0 l 1,4,-1
512 0 m 1,12,-1
 512 640 l 1,13,-1
 384 640 l 1,14,-1
 384 768 l 1,15,-1
 512 768 l 1,16,-1
 512 896 l 1,17,-1
 640 896 l 1,18,-1
 640 0 l 1,19,-1
 512 0 l 1,12,-1
EndSplineSet
Validated: 5
EndChar

StartChar: N
Encoding: 78 78 49
Width: 800
GlyphClass: 1
Flags: W
LayerCount: 2
Fore
SplineSet
256 512 m 1,0,-1
 256 640 l 1,1,-1
 384 640 l 1,2,-1
 384 512 l 1,3,-1
 256 512 l 1,0,-1
0 0 m 1,4,-1
 0 896 l 1,5,-1
 128 896 l 1,6,-1
 128 768 l 1,7,-1
 256 768 l 1,8,-1
 256 640 l 1,9,-1
 128 640 l 1,10,-1
 128 0 l 1,11,-1
 0 0 l 1,4,-1
512 0 m 1,12,-1
 512 384 l 1,13,-1
 384 384 l 1,14,-1
 384 512 l 1,15,-1
 512 512 l 1,16,-1
 512 896 l 1,17,-1
 640 896 l 1,18,-1
 640 0 l 1,19,-1
 512 0 l 1,12,-1
EndSplineSet
Validated: 5
EndChar

StartChar: O
Encoding: 79 79 50
Width: 800
GlyphClass: 1
Flags: W
LayerCount: 2
Fore
SplineSet
128 0 m 1,0,-1
 128 128 l 1,1,-1
 512 128 l 1,2,-1
 512 0 l 1,3,-1
 128 0 l 1,0,-1
0 128 m 1,4,-1
 0 768 l 1,5,-1
 128 768 l 1,6,-1
 128 128 l 1,7,-1
 0 128 l 1,4,-1
512 128 m 1,8,-1
 512 768 l 1,9,-1
 640 768 l 1,10,-1
 640 128 l 1,11,-1
 512 128 l 1,8,-1
128 768 m 1,12,-1
 128 896 l 1,13,-1
 512 896 l 1,14,-1
 512 768 l 1,15,-1
 128 768 l 1,12,-1
EndSplineSet
Validated: 5
EndChar

StartChar: P
Encoding: 80 80 51
Width: 800
GlyphClass: 1
Flags: W
LayerCount: 2
Fore
SplineSet
512 640 m 1,0,-1
 512 768 l 1,1,-1
 640 768 l 1,2,-1
 640 640 l 1,3,-1
 512 640 l 1,0,-1
0 0 m 1,4,-1
 0 896 l 1,5,-1
 512 896 l 1,6,-1
 512 768 l 1,7,-1
 128 768 l 1,8,-1
 128 640 l 1,9,-1
 512 640 l 1,10,-1
 512 512 l 1,11,-1
 128 512 l 1,12,-1
 128 0 l 1,13,-1
 0 0 l 1,4,-1
EndSplineSet
Validated: 5
EndChar

StartChar: Q
Encoding: 81 81 52
Width: 800
GlyphClass: 1
Flags: W
LayerCount: 2
Fore
SplineSet
128 0 m 1,0,-1
 128 128 l 1,1,-1
 384 128 l 1,2,-1
 384 0 l 1,3,-1
 128 0 l 1,0,-1
512 0 m 1,4,-1
 512 128 l 1,5,-1
 640 128 l 1,6,-1
 640 0 l 1,7,-1
 512 0 l 1,4,-1
384 128 m 1,8,-1
 384 256 l 1,9,-1
 512 256 l 1,10,-1
 512 128 l 1,11,-1
 384 128 l 1,8,-1
0 128 m 1,12,-1
 0 768 l 1,13,-1
 128 768 l 1,14,-1
 128 128 l 1,15,-1
 0 128 l 1,12,-1
512 256 m 1,16,-1
 512 768 l 1,17,-1
 640 768 l 1,18,-1
 640 256 l 1,19,-1
 512 256 l 1,16,-1
128 768 m 1,20,-1
 128 896 l 1,21,-1
 512 896 l 1,22,-1
 512 768 l 1,23,-1
 128 768 l 1,20,-1
EndSplineSet
Validated: 5
EndChar

StartChar: R
Encoding: 82 82 53
Width: 800
GlyphClass: 1
Flags: W
LayerCount: 2
Fore
SplineSet
512 0 m 1,0,-1
 512 512 l 1,1,-1
 640 512 l 1,2,-1
 640 0 l 1,3,-1
 512 0 l 1,0,-1
512 640 m 1,4,-1
 512 768 l 1,5,-1
 640 768 l 1,6,-1
 640 640 l 1,7,-1
 512 640 l 1,4,-1
0 0 m 1,8,-1
 0 896 l 1,9,-1
 512 896 l 1,10,-1
 512 768 l 1,11,-1
 128 768 l 1,12,-1
 128 640 l 1,13,-1
 512 640 l 1,14,-1
 512 512 l 1,15,-1
 128 512 l 1,16,-1
 128 0 l 1,17,-1
 0 0 l 1,8,-1
EndSplineSet
Validated: 5
EndChar

StartChar: S
Encoding: 83 83 54
Width: 800
GlyphClass: 1
Flags: W
LayerCount: 2
Fore
SplineSet
128 0 m 5,0,-1
 128 128 l 5,1,-1
 512 128 l 5,2,-1
 512 0 l 5,3,-1
 128 0 l 5,0,-1
0 128 m 5,4,-1
 0 256 l 5,5,-1
 128 256 l 5,6,-1
 128 128 l 5,7,-1
 0 128 l 5,4,-1
512 128 m 5,8,-1
 512 512 l 5,9,-1
 640 512 l 5,10,-1
 640 128 l 5,11,-1
 512 128 l 5,8,-1
128 512 m 5,12,-1
 128 640 l 5,13,-1
 512 640 l 5,14,-1
 512 512 l 5,15,-1
 128 512 l 5,12,-1
0 640 m 5,16,-1
 0 768 l 5,17,-1
 128 768 l 5,18,-1
 128 640 l 5,19,-1
 0 640 l 5,16,-1
128 768 m 5,20,-1
 128 896 l 5,21,-1
 640 896 l 5,22,-1
 640 768 l 5,23,-1
 128 768 l 5,20,-1
EndSplineSet
Validated: 5
EndChar

StartChar: T
Encoding: 84 84 55
Width: 800
GlyphClass: 1
Flags: W
LayerCount: 2
Fore
SplineSet
256 0 m 1,0,-1
 256 768 l 1,1,-1
 0 768 l 1,2,-1
 0 896 l 1,3,-1
 640 896 l 1,4,-1
 640 768 l 1,5,-1
 384 768 l 1,6,-1
 384 0 l 1,7,-1
 256 0 l 1,0,-1
EndSplineSet
Validated: 1
EndChar

StartChar: U
Encoding: 85 85 56
Width: 800
GlyphClass: 1
Flags: W
LayerCount: 2
Fore
SplineSet
128 0 m 1,0,-1
 128 128 l 1,1,-1
 512 128 l 1,2,-1
 512 0 l 1,3,-1
 128 0 l 1,0,-1
0 128 m 1,4,-1
 0 896 l 1,5,-1
 128 896 l 1,6,-1
 128 128 l 1,7,-1
 0 128 l 1,4,-1
512 128 m 1,8,-1
 512 896 l 1,9,-1
 640 896 l 1,10,-1
 640 128 l 1,11,-1
 512 128 l 1,8,-1
EndSplineSet
Validated: 5
EndChar

StartChar: V
Encoding: 86 86 57
Width: 800
GlyphClass: 1
Flags: W
LayerCount: 2
Fore
SplineSet
256 0 m 1,0,-1
 256 128 l 1,1,-1
 384 128 l 1,2,-1
 384 0 l 1,3,-1
 256 0 l 1,0,-1
128 128 m 1,4,-1
 128 384 l 1,5,-1
 256 384 l 1,6,-1
 256 128 l 1,7,-1
 128 128 l 1,4,-1
384 128 m 1,8,-1
 384 384 l 1,9,-1
 512 384 l 1,10,-1
 512 128 l 1,11,-1
 384 128 l 1,8,-1
0 384 m 1,12,-1
 0 896 l 1,13,-1
 128 896 l 1,14,-1
 128 384 l 1,15,-1
 0 384 l 1,12,-1
512 384 m 1,16,-1
 512 896 l 1,17,-1
 640 896 l 1,18,-1
 640 384 l 1,19,-1
 512 384 l 1,16,-1
EndSplineSet
Validated: 5
EndChar

StartChar: W
Encoding: 87 87 58
Width: 800
GlyphClass: 1
Flags: W
LayerCount: 2
Fore
SplineSet
256 256 m 1,0,-1
 256 384 l 1,1,-1
 384 384 l 1,2,-1
 384 256 l 1,3,-1
 256 256 l 1,0,-1
0 0 m 1,4,-1
 0 896 l 1,5,-1
 128 896 l 1,6,-1
 128 256 l 1,7,-1
 256 256 l 1,8,-1
 256 128 l 1,9,-1
 128 128 l 1,10,-1
 128 0 l 1,11,-1
 0 0 l 1,4,-1
512 0 m 1,12,-1
 512 128 l 1,13,-1
 384 128 l 1,14,-1
 384 256 l 1,15,-1
 512 256 l 1,16,-1
 512 896 l 1,17,-1
 640 896 l 1,18,-1
 640 0 l 1,19,-1
 512 0 l 1,12,-1
EndSplineSet
Validated: 5
EndChar

StartChar: X
Encoding: 88 88 59
Width: 800
GlyphClass: 1
Flags: W
LayerCount: 2
Fore
SplineSet
0 0 m 1,0,-1
 0 384 l 1,1,-1
 128 384 l 1,2,-1
 128 0 l 1,3,-1
 0 0 l 1,0,-1
512 0 m 1,4,-1
 512 384 l 1,5,-1
 640 384 l 1,6,-1
 640 0 l 1,7,-1
 512 0 l 1,4,-1
128 384 m 1,8,-1
 128 512 l 1,9,-1
 256 512 l 1,10,-1
 256 384 l 1,11,-1
 128 384 l 1,8,-1
384 384 m 1,12,-1
 384 512 l 1,13,-1
 512 512 l 1,14,-1
 512 384 l 1,15,-1
 384 384 l 1,12,-1
256 512 m 1,16,-1
 256 640 l 1,17,-1
 384 640 l 1,18,-1
 384 512 l 1,19,-1
 256 512 l 1,16,-1
128 640 m 1,20,-1
 128 768 l 1,21,-1
 256 768 l 1,22,-1
 256 640 l 1,23,-1
 128 640 l 1,20,-1
384 640 m 1,24,-1
 384 768 l 1,25,-1
 512 768 l 1,26,-1
 512 640 l 1,27,-1
 384 640 l 1,24,-1
0 768 m 1,28,-1
 0 896 l 1,29,-1
 128 896 l 1,30,-1
 128 768 l 1,31,-1
 0 768 l 1,28,-1
512 768 m 1,32,-1
 512 896 l 1,33,-1
 640 896 l 1,34,-1
 640 768 l 1,35,-1
 512 768 l 1,32,-1
EndSplineSet
Validated: 5
EndChar

StartChar: Y
Encoding: 89 89 60
Width: 800
GlyphClass: 1
Flags: W
LayerCount: 2
Fore
SplineSet
256 0 m 1,0,-1
 256 640 l 1,1,-1
 384 640 l 1,2,-1
 384 0 l 1,3,-1
 256 0 l 1,0,-1
128 640 m 1,4,-1
 128 768 l 1,5,-1
 256 768 l 1,6,-1
 256 640 l 1,7,-1
 128 640 l 1,4,-1
384 640 m 1,8,-1
 384 768 l 1,9,-1
 512 768 l 1,10,-1
 512 640 l 1,11,-1
 384 640 l 1,8,-1
0 768 m 1,12,-1
 0 896 l 1,13,-1
 128 896 l 1,14,-1
 128 768 l 1,15,-1
 0 768 l 1,12,-1
512 768 m 1,16,-1
 512 896 l 1,17,-1
 640 896 l 1,18,-1
 640 768 l 1,19,-1
 512 768 l 1,16,-1
EndSplineSet
Validated: 5
EndChar

StartChar: Z
Encoding: 90 90 61
Width: 800
GlyphClass: 1
Flags: W
LayerCount: 2
Fore
SplineSet
0 0 m 1,0,-1
 0 256 l 1,1,-1
 128 256 l 1,2,-1
 128 128 l 1,3,-1
 640 128 l 1,4,-1
 640 0 l 1,5,-1
 0 0 l 1,0,-1
128 256 m 1,6,-1
 128 384 l 1,7,-1
 256 384 l 1,8,-1
 256 256 l 1,9,-1
 128 256 l 1,6,-1
256 384 m 1,10,-1
 256 512 l 1,11,-1
 384 512 l 1,12,-1
 384 384 l 1,13,-1
 256 384 l 1,10,-1
384 512 m 1,14,-1
 384 640 l 1,15,-1
 512 640 l 1,16,-1
 512 512 l 1,17,-1
 384 512 l 1,14,-1
512 640 m 1,18,-1
 512 768 l 1,19,-1
 0 768 l 1,20,-1
 0 896 l 1,21,-1
 640 896 l 1,22,-1
 640 640 l 1,23,-1
 512 640 l 1,18,-1
EndSplineSet
Validated: 5
EndChar

StartChar: bracketleft
Encoding: 91 91 62
Width: 544
GlyphClass: 1
Flags: W
LayerCount: 2
Fore
SplineSet
0 0 m 1,0,-1
 0 896 l 1,1,-1
 384 896 l 1,2,-1
 384 768 l 1,3,-1
 128 768 l 1,4,-1
 128 128 l 1,5,-1
 384 128 l 1,6,-1
 384 0 l 1,7,-1
 0 0 l 1,0,-1
EndSplineSet
Validated: 1
EndChar

StartChar: backslash
Encoding: 92 92 63
Width: 800
GlyphClass: 1
Flags: W
LayerCount: 2
Fore
SplineSet
512 0 m 1,0,-1
 512 128 l 1,1,-1
 640 128 l 1,2,-1
 640 0 l 1,3,-1
 512 0 l 1,0,-1
384 128 m 1,4,-1
 384 384 l 1,5,-1
 512 384 l 1,6,-1
 512 128 l 1,7,-1
 384 128 l 1,4,-1
256 384 m 1,8,-1
 256 512 l 1,9,-1
 384 512 l 1,10,-1
 384 384 l 1,11,-1
 256 384 l 1,8,-1
128 512 m 1,12,-1
 128 768 l 1,13,-1
 256 768 l 1,14,-1
 256 512 l 1,15,-1
 128 512 l 1,12,-1
0 768 m 1,16,-1
 0 896 l 1,17,-1
 128 896 l 1,18,-1
 128 768 l 1,19,-1
 0 768 l 1,16,-1
EndSplineSet
Validated: 5
EndChar

StartChar: bracketright
Encoding: 93 93 64
Width: 544
GlyphClass: 1
Flags: W
LayerCount: 2
Fore
SplineSet
0 0 m 1,0,-1
 0 128 l 1,1,-1
 256 128 l 1,2,-1
 256 768 l 1,3,-1
 0 768 l 1,4,-1
 0 896 l 1,5,-1
 384 896 l 1,6,-1
 384 0 l 1,7,-1
 0 0 l 1,0,-1
EndSplineSet
Validated: 1
EndChar

StartChar: asciicircum
Encoding: 94 94 65
Width: 800
GlyphClass: 1
Flags: W
LayerCount: 2
Fore
SplineSet
0 512 m 1,0,-1
 0 640 l 1,1,-1
 128 640 l 1,2,-1
 128 512 l 1,3,-1
 0 512 l 1,0,-1
512 512 m 1,4,-1
 512 640 l 1,5,-1
 640 640 l 1,6,-1
 640 512 l 1,7,-1
 512 512 l 1,4,-1
128 640 m 1,8,-1
 128 768 l 1,9,-1
 256 768 l 1,10,-1
 256 640 l 1,11,-1
 128 640 l 1,8,-1
384 640 m 1,12,-1
 384 768 l 1,13,-1
 512 768 l 1,14,-1
 512 640 l 1,15,-1
 384 640 l 1,12,-1
256 768 m 1,16,-1
 256 896 l 1,17,-1
 384 896 l 1,18,-1
 384 768 l 1,19,-1
 256 768 l 1,16,-1
EndSplineSet
Validated: 5
EndChar

StartChar: underscore
Encoding: 95 95 66
Width: 800
GlyphClass: 1
Flags: W
LayerCount: 2
Fore
SplineSet
0 -128 m 1,0,-1
 0 0 l 1,1,-1
 640 0 l 1,2,-1
 640 -128 l 1,3,-1
 0 -128 l 1,0,-1
EndSplineSet
Validated: 1
EndChar

StartChar: grave
Encoding: 96 96 67
Width: 416
GlyphClass: 1
Flags: W
LayerCount: 2
Fore
SplineSet
128 512 m 1,0,-1
 128 640 l 1,1,-1
 256 640 l 1,2,-1
 256 512 l 1,3,-1
 128 512 l 1,0,-1
0 640 m 1,4,-1
 0 896 l 1,5,-1
 128 896 l 1,6,-1
 128 640 l 1,7,-1
 0 640 l 1,4,-1
EndSplineSet
Validated: 5
EndChar

StartChar: a
Encoding: 97 97 68
Width: 800
GlyphClass: 1
Flags: W
LayerCount: 2
Fore
SplineSet
0 128 m 1,0,-1
 0 256 l 1,1,-1
 128 256 l 1,2,-1
 128 128 l 1,3,-1
 0 128 l 1,0,-1
128 0 m 1,4,-1
 128 128 l 1,5,-1
 512 128 l 1,6,-1
 512 256 l 1,7,-1
 128 256 l 1,8,-1
 128 384 l 1,9,-1
 512 384 l 1,10,-1
 512 512 l 1,11,-1
 640 512 l 1,12,-1
 640 0 l 1,13,-1
 128 0 l 1,4,-1
128 512 m 1,14,-1
 128 640 l 1,15,-1
 512 640 l 1,16,-1
 512 512 l 1,17,-1
 128 512 l 1,14,-1
EndSplineSet
Validated: 5
EndChar

StartChar: b
Encoding: 98 98 69
Width: 800
GlyphClass: 1
Flags: W
LayerCount: 2
Fore
SplineSet
512 128 m 1,0,-1
 512 512 l 1,1,-1
 640 512 l 1,2,-1
 640 128 l 1,3,-1
 512 128 l 1,0,-1
256 512 m 1,4,-1
 256 640 l 1,5,-1
 512 640 l 1,6,-1
 512 512 l 1,7,-1
 256 512 l 1,4,-1
0 0 m 1,8,-1
 0 896 l 1,9,-1
 128 896 l 1,10,-1
 128 512 l 1,11,-1
 256 512 l 1,12,-1
 256 384 l 1,13,-1
 128 384 l 1,14,-1
 128 128 l 1,15,-1
 512 128 l 1,16,-1
 512 0 l 1,17,-1
 0 0 l 1,8,-1
EndSplineSet
Validated: 5
EndChar

StartChar: c
Encoding: 99 99 70
Width: 800
GlyphClass: 1
Flags: W
LayerCount: 2
Fore
SplineSet
128 0 m 1,0,-1
 128 128 l 1,1,-1
 512 128 l 1,2,-1
 512 0 l 1,3,-1
 128 0 l 1,0,-1
512 128 m 1,4,-1
 512 256 l 1,5,-1
 640 256 l 1,6,-1
 640 128 l 1,7,-1
 512 128 l 1,4,-1
0 128 m 1,8,-1
 0 512 l 1,9,-1
 128 512 l 1,10,-1
 128 128 l 1,11,-1
 0 128 l 1,8,-1
512 384 m 1,12,-1
 512 512 l 1,13,-1
 640 512 l 1,14,-1
 640 384 l 1,15,-1
 512 384 l 1,12,-1
128 512 m 1,16,-1
 128 640 l 1,17,-1
 512 640 l 1,18,-1
 512 512 l 1,19,-1
 128 512 l 1,16,-1
EndSplineSet
Validated: 5
EndChar

StartChar: d
Encoding: 100 100 71
Width: 800
GlyphClass: 1
Flags: W
LayerCount: 2
Fore
SplineSet
0 128 m 1,0,-1
 0 512 l 1,1,-1
 128 512 l 1,2,-1
 128 128 l 1,3,-1
 0 128 l 1,0,-1
128 512 m 1,4,-1
 128 640 l 1,5,-1
 384 640 l 1,6,-1
 384 512 l 1,7,-1
 128 512 l 1,4,-1
128 0 m 1,8,-1
 128 128 l 1,9,-1
 512 128 l 1,10,-1
 512 384 l 1,11,-1
 384 384 l 1,12,-1
 384 512 l 1,13,-1
 512 512 l 1,14,-1
 512 896 l 1,15,-1
 640 896 l 1,16,-1
 640 0 l 1,17,-1
 128 0 l 1,8,-1
EndSplineSet
Validated: 5
EndChar

StartChar: e
Encoding: 101 101 72
Width: 800
GlyphClass: 1
Flags: W
LayerCount: 2
Fore
SplineSet
128 0 m 1,0,-1
 128 128 l 1,1,-1
 640 128 l 1,2,-1
 640 0 l 1,3,-1
 128 0 l 1,0,-1
0 128 m 1,4,-1
 0 512 l 1,5,-1
 128 512 l 1,6,-1
 128 384 l 1,7,-1
 512 384 l 1,8,-1
 512 512 l 1,9,-1
 640 512 l 1,10,-1
 640 256 l 1,11,-1
 128 256 l 1,12,-1
 128 128 l 1,13,-1
 0 128 l 1,4,-1
128 512 m 1,14,-1
 128 640 l 1,15,-1
 512 640 l 1,16,-1
 512 512 l 1,17,-1
 128 512 l 1,14,-1
EndSplineSet
Validated: 5
EndChar

StartChar: f
Encoding: 102 102 73
Width: 672
GlyphClass: 1
Flags: W
LayerCount: 2
Fore
SplineSet
128 0 m 1,0,-1
 128 512 l 1,1,-1
 0 512 l 1,2,-1
 0 640 l 1,3,-1
 128 640 l 1,4,-1
 128 768 l 1,5,-1
 256 768 l 1,6,-1
 256 640 l 1,7,-1
 512 640 l 1,8,-1
 512 512 l 1,9,-1
 256 512 l 1,10,-1
 256 0 l 1,11,-1
 128 0 l 1,0,-1
256 768 m 1,12,-1
 256 896 l 1,13,-1
 512 896 l 1,14,-1
 512 768 l 1,15,-1
 256 768 l 1,12,-1
EndSplineSet
Validated: 5
EndChar

StartChar: g
Encoding: 103 103 74
Width: 800
GlyphClass: 1
Flags: W
LayerCount: 2
Fore
SplineSet
0 -128 m 5,0,-1
 0 0 l 5,1,-1
 512 0 l 5,2,-1
 512 -128 l 5,3,-1
 0 -128 l 5,0,-1
0 256 m 5,4,-1
 0 512 l 5,5,-1
 128 512 l 5,6,-1
 128 256 l 5,7,-1
 0 256 l 5,4,-1
512 0 m 5,8,-1
 512 128 l 5,9,-1
 128 128 l 5,10,-1
 128 256 l 5,11,-1
 512 256 l 5,12,-1
 512 512 l 5,13,-1
 128 512 l 5,14,-1
 128 640 l 5,15,-1
 640 640 l 5,16,-1
 640 0 l 5,17,-1
 512 0 l 5,8,-1
EndSplineSet
Validated: 5
EndChar

StartChar: h
Encoding: 104 104 75
Width: 800
GlyphClass: 1
Flags: W
LayerCount: 2
Fore
SplineSet
512 0 m 1,0,-1
 512 512 l 1,1,-1
 640 512 l 1,2,-1
 640 0 l 1,3,-1
 512 0 l 1,0,-1
256 512 m 1,4,-1
 256 640 l 1,5,-1
 512 640 l 1,6,-1
 512 512 l 1,7,-1
 256 512 l 1,4,-1
0 0 m 1,8,-1
 0 896 l 1,9,-1
 128 896 l 1,10,-1
 128 512 l 1,11,-1
 256 512 l 1,12,-1
 256 384 l 1,13,-1
 128 384 l 1,14,-1
 128 0 l 1,15,-1
 0 0 l 1,8,-1
EndSplineSet
Validated: 5
EndChar

StartChar: i
Encoding: 105 105 76
Width: 288
GlyphClass: 1
Flags: W
LayerCount: 2
Fore
SplineSet
0 0 m 1,0,-1
 0 640 l 1,1,-1
 128 640 l 1,2,-1
 128 0 l 1,3,-1
 0 0 l 1,0,-1
0 768 m 5,4,-1
 0 896 l 5,5,-1
 128 896 l 5,6,-1
 128 768 l 5,7,-1
 0 768 l 5,4,-1
EndSplineSet
Validated: 1
EndChar

StartChar: j
Encoding: 106 106 77
Width: 800
GlyphClass: 1
Flags: W
LayerCount: 2
Fore
SplineSet
128 0 m 1,0,-1
 128 128 l 1,1,-1
 512 128 l 1,2,-1
 512 0 l 1,3,-1
 128 0 l 1,0,-1
0 128 m 1,4,-1
 0 384 l 1,5,-1
 128 384 l 1,6,-1
 128 128 l 1,7,-1
 0 128 l 1,4,-1
512 128 m 1,8,-1
 512 640 l 1,9,-1
 640 640 l 1,10,-1
 640 128 l 1,11,-1
 512 128 l 1,8,-1
512 768 m 1,12,-1
 512 896 l 1,13,-1
 640 896 l 1,14,-1
 640 768 l 1,15,-1
 512 768 l 1,12,-1
EndSplineSet
Validated: 5
EndChar

StartChar: k
Encoding: 107 107 78
Width: 672
GlyphClass: 1
Flags: W
LayerCount: 2
Fore
SplineSet
384 0 m 1,0,-1
 384 128 l 1,1,-1
 512 128 l 1,2,-1
 512 0 l 1,3,-1
 384 0 l 1,0,-1
256 128 m 1,4,-1
 256 256 l 1,5,-1
 384 256 l 1,6,-1
 384 128 l 1,7,-1
 256 128 l 1,4,-1
256 384 m 1,8,-1
 256 512 l 1,9,-1
 384 512 l 1,10,-1
 384 384 l 1,11,-1
 256 384 l 1,8,-1
384 512 m 1,12,-1
 384 640 l 1,13,-1
 512 640 l 1,14,-1
 512 512 l 1,15,-1
 384 512 l 1,12,-1
0 0 m 1,16,-1
 0 896 l 1,17,-1
 128 896 l 1,18,-1
 128 384 l 1,19,-1
 256 384 l 1,20,-1
 256 256 l 1,21,-1
 128 256 l 1,22,-1
 128 0 l 1,23,-1
 0 0 l 1,16,-1
EndSplineSet
Validated: 5
EndChar

StartChar: l
Encoding: 108 108 79
Width: 416
GlyphClass: 1
Flags: W
LayerCount: 2
Fore
SplineSet
128 0 m 1,0,-1
 128 128 l 1,1,-1
 256 128 l 1,2,-1
 256 0 l 1,3,-1
 128 0 l 1,0,-1
0 128 m 1,4,-1
 0 896 l 1,5,-1
 128 896 l 1,6,-1
 128 128 l 1,7,-1
 0 128 l 1,4,-1
EndSplineSet
Validated: 5
EndChar

StartChar: m
Encoding: 109 109 80
Width: 800
GlyphClass: 1
Flags: W
LayerCount: 2
Fore
SplineSet
256 256 m 1,0,-1
 256 512 l 1,1,-1
 384 512 l 1,2,-1
 384 256 l 1,3,-1
 256 256 l 1,0,-1
512 0 m 1,4,-1
 512 512 l 1,5,-1
 640 512 l 1,6,-1
 640 0 l 1,7,-1
 512 0 l 1,4,-1
0 0 m 1,8,-1
 0 640 l 1,9,-1
 256 640 l 1,10,-1
 256 512 l 1,11,-1
 128 512 l 1,12,-1
 128 0 l 1,13,-1
 0 0 l 1,8,-1
384 512 m 1,14,-1
 384 640 l 1,15,-1
 512 640 l 1,16,-1
 512 512 l 1,17,-1
 384 512 l 1,14,-1
EndSplineSet
Validated: 5
EndChar

StartChar: n
Encoding: 110 110 81
Width: 800
GlyphClass: 1
Flags: W
LayerCount: 2
Fore
SplineSet
512 0 m 1,0,-1
 512 512 l 1,1,-1
 640 512 l 1,2,-1
 640 0 l 1,3,-1
 512 0 l 1,0,-1
0 0 m 1,4,-1
 0 640 l 1,5,-1
 512 640 l 1,6,-1
 512 512 l 1,7,-1
 128 512 l 1,8,-1
 128 0 l 1,9,-1
 0 0 l 1,4,-1
EndSplineSet
Validated: 5
EndChar

StartChar: o
Encoding: 111 111 82
Width: 800
GlyphClass: 1
Flags: W
LayerCount: 2
Fore
SplineSet
128 0 m 1,0,-1
 128 128 l 1,1,-1
 512 128 l 1,2,-1
 512 0 l 1,3,-1
 128 0 l 1,0,-1
0 128 m 1,4,-1
 0 512 l 1,5,-1
 128 512 l 1,6,-1
 128 128 l 1,7,-1
 0 128 l 1,4,-1
512 128 m 1,8,-1
 512 512 l 1,9,-1
 640 512 l 1,10,-1
 640 128 l 1,11,-1
 512 128 l 1,8,-1
128 512 m 1,12,-1
 128 640 l 1,13,-1
 512 640 l 1,14,-1
 512 512 l 1,15,-1
 128 512 l 1,12,-1
EndSplineSet
Validated: 5
EndChar

StartChar: p
Encoding: 112 112 83
Width: 800
GlyphClass: 1
Flags: W
LayerCount: 2
Fore
SplineSet
512 256 m 1,0,-1
 512 512 l 1,1,-1
 640 512 l 1,2,-1
 640 256 l 1,3,-1
 512 256 l 1,0,-1
0 -128 m 1,4,-1
 0 640 l 1,5,-1
 128 640 l 1,6,-1
 128 512 l 1,7,-1
 256 512 l 1,8,-1
 256 384 l 1,9,-1
 128 384 l 1,10,-1
 128 256 l 1,11,-1
 512 256 l 1,12,-1
 512 128 l 1,13,-1
 128 128 l 1,14,-1
 128 -128 l 1,15,-1
 0 -128 l 1,4,-1
256 512 m 1,16,-1
 256 640 l 1,17,-1
 512 640 l 1,18,-1
 512 512 l 1,19,-1
 256 512 l 1,16,-1
EndSplineSet
Validated: 5
EndChar

StartChar: q
Encoding: 113 113 84
Width: 800
GlyphClass: 1
Flags: W
LayerCount: 2
Fore
SplineSet
0 256 m 1,0,-1
 0 512 l 1,1,-1
 128 512 l 1,2,-1
 128 256 l 1,3,-1
 0 256 l 1,0,-1
128 512 m 1,4,-1
 128 640 l 1,5,-1
 384 640 l 1,6,-1
 384 512 l 1,7,-1
 128 512 l 1,4,-1
512 -128 m 1,8,-1
 512 128 l 1,9,-1
 128 128 l 1,10,-1
 128 256 l 1,11,-1
 512 256 l 1,12,-1
 512 384 l 1,13,-1
 384 384 l 1,14,-1
 384 512 l 1,15,-1
 512 512 l 1,16,-1
 512 640 l 1,17,-1
 640 640 l 1,18,-1
 640 -128 l 1,19,-1
 512 -128 l 1,8,-1
EndSplineSet
Validated: 5
EndChar

StartChar: r
Encoding: 114 114 85
Width: 800
GlyphClass: 1
Flags: W
LayerCount: 2
Fore
SplineSet
512 384 m 1,0,-1
 512 512 l 1,1,-1
 640 512 l 1,2,-1
 640 384 l 1,3,-1
 512 384 l 1,0,-1
0 0 m 1,4,-1
 0 640 l 1,5,-1
 128 640 l 1,6,-1
 128 512 l 1,7,-1
 256 512 l 1,8,-1
 256 384 l 1,9,-1
 128 384 l 1,10,-1
 128 0 l 1,11,-1
 0 0 l 1,4,-1
256 512 m 1,12,-1
 256 640 l 1,13,-1
 512 640 l 1,14,-1
 512 512 l 1,15,-1
 256 512 l 1,12,-1
EndSplineSet
Validated: 5
EndChar

StartChar: s
Encoding: 115 115 86
Width: 800
GlyphClass: 1
Flags: W
LayerCount: 2
Fore
SplineSet
0 0 m 5,0,-1
 0 128 l 5,1,-1
 512 128 l 5,2,-1
 512 0 l 5,3,-1
 0 0 l 5,0,-1
512 128 m 5,4,-1
 512 256 l 5,5,-1
 640 256 l 5,6,-1
 640 128 l 5,7,-1
 512 128 l 5,4,-1
128 256 m 5,8,-1
 128 384 l 5,9,-1
 512 384 l 5,10,-1
 512 256 l 5,11,-1
 128 256 l 5,8,-1
0 384 m 5,12,-1
 0 512 l 5,13,-1
 128 512 l 5,14,-1
 128 384 l 5,15,-1
 0 384 l 5,12,-1
128 512 m 5,16,-1
 128 640 l 5,17,-1
 640 640 l 5,18,-1
 640 512 l 5,19,-1
 128 512 l 5,16,-1
EndSplineSet
Validated: 5
EndChar

StartChar: t
Encoding: 116 116 87
Width: 544
GlyphClass: 1
Flags: W
LayerCount: 2
Fore
SplineSet
256 0 m 1,0,-1
 256 128 l 1,1,-1
 384 128 l 1,2,-1
 384 0 l 1,3,-1
 256 0 l 1,0,-1
128 128 m 1,4,-1
 128 640 l 1,5,-1
 0 640 l 1,6,-1
 0 768 l 1,7,-1
 128 768 l 1,8,-1
 128 896 l 1,9,-1
 256 896 l 1,10,-1
 256 768 l 1,11,-1
 384 768 l 1,12,-1
 384 640 l 1,13,-1
 256 640 l 1,14,-1
 256 128 l 1,15,-1
 128 128 l 1,4,-1
EndSplineSet
Validated: 5
EndChar

StartChar: u
Encoding: 117 117 88
Width: 800
GlyphClass: 1
Flags: W
LayerCount: 2
Fore
SplineSet
0 128 m 1,0,-1
 0 640 l 1,1,-1
 128 640 l 1,2,-1
 128 128 l 1,3,-1
 0 128 l 1,0,-1
128 0 m 1,4,-1
 128 128 l 1,5,-1
 512 128 l 1,6,-1
 512 640 l 1,7,-1
 640 640 l 1,8,-1
 640 0 l 1,9,-1
 128 0 l 1,4,-1
EndSplineSet
Validated: 5
EndChar

StartChar: v
Encoding: 118 118 89
Width: 800
GlyphClass: 1
Flags: W
LayerCount: 2
Fore
SplineSet
256 0 m 1,0,-1
 256 128 l 1,1,-1
 384 128 l 1,2,-1
 384 0 l 1,3,-1
 256 0 l 1,0,-1
128 128 m 1,4,-1
 128 256 l 1,5,-1
 256 256 l 1,6,-1
 256 128 l 1,7,-1
 128 128 l 1,4,-1
384 128 m 1,8,-1
 384 256 l 1,9,-1
 512 256 l 1,10,-1
 512 128 l 1,11,-1
 384 128 l 1,8,-1
0 256 m 1,12,-1
 0 640 l 1,13,-1
 128 640 l 1,14,-1
 128 256 l 1,15,-1
 0 256 l 1,12,-1
512 256 m 1,16,-1
 512 640 l 1,17,-1
 640 640 l 1,18,-1
 640 256 l 1,19,-1
 512 256 l 1,16,-1
EndSplineSet
Validated: 5
EndChar

StartChar: w
Encoding: 119 119 90
Width: 800
GlyphClass: 1
Flags: W
LayerCount: 2
Fore
SplineSet
0 128 m 1,0,-1
 0 640 l 1,1,-1
 128 640 l 1,2,-1
 128 128 l 1,3,-1
 0 128 l 1,0,-1
128 0 m 1,4,-1
 128 128 l 1,5,-1
 256 128 l 1,6,-1
 256 384 l 1,7,-1
 384 384 l 1,8,-1
 384 128 l 1,9,-1
 512 128 l 1,10,-1
 512 640 l 1,11,-1
 640 640 l 1,12,-1
 640 0 l 1,13,-1
 128 0 l 1,4,-1
EndSplineSet
Validated: 5
EndChar

StartChar: x
Encoding: 120 120 91
Width: 800
GlyphClass: 1
Flags: W
LayerCount: 2
Fore
SplineSet
0 0 m 1,0,-1
 0 128 l 1,1,-1
 128 128 l 1,2,-1
 128 0 l 1,3,-1
 0 0 l 1,0,-1
512 0 m 1,4,-1
 512 128 l 1,5,-1
 640 128 l 1,6,-1
 640 0 l 1,7,-1
 512 0 l 1,4,-1
128 128 m 1,8,-1
 128 256 l 1,9,-1
 256 256 l 1,10,-1
 256 128 l 1,11,-1
 128 128 l 1,8,-1
384 128 m 1,12,-1
 384 256 l 1,13,-1
 512 256 l 1,14,-1
 512 128 l 1,15,-1
 384 128 l 1,12,-1
256 256 m 1,16,-1
 256 384 l 1,17,-1
 384 384 l 1,18,-1
 384 256 l 1,19,-1
 256 256 l 1,16,-1
128 384 m 1,20,-1
 128 512 l 1,21,-1
 256 512 l 1,22,-1
 256 384 l 1,23,-1
 128 384 l 1,20,-1
384 384 m 1,24,-1
 384 512 l 1,25,-1
 512 512 l 1,26,-1
 512 384 l 1,27,-1
 384 384 l 1,24,-1
0 512 m 1,28,-1
 0 640 l 1,29,-1
 128 640 l 1,30,-1
 128 512 l 1,31,-1
 0 512 l 1,28,-1
512 512 m 1,32,-1
 512 640 l 1,33,-1
 640 640 l 1,34,-1
 640 512 l 1,35,-1
 512 512 l 1,32,-1
EndSplineSet
Validated: 5
EndChar

StartChar: y
Encoding: 121 121 92
Width: 800
GlyphClass: 1
Flags: W
LayerCount: 2
Fore
SplineSet
0 -128 m 1,0,-1
 0 0 l 1,1,-1
 512 0 l 1,2,-1
 512 -128 l 1,3,-1
 0 -128 l 1,0,-1
0 256 m 1,4,-1
 0 640 l 1,5,-1
 128 640 l 1,6,-1
 128 256 l 1,7,-1
 0 256 l 1,4,-1
512 0 m 1,8,-1
 512 128 l 1,9,-1
 128 128 l 1,10,-1
 128 256 l 1,11,-1
 512 256 l 1,12,-1
 512 640 l 1,13,-1
 640 640 l 1,14,-1
 640 0 l 1,15,-1
 512 0 l 1,8,-1
EndSplineSet
Validated: 5
EndChar

StartChar: z
Encoding: 122 122 93
Width: 800
GlyphClass: 1
Flags: W
LayerCount: 2
Fore
SplineSet
0 0 m 1,0,-1
 0 128 l 1,1,-1
 128 128 l 1,2,-1
 128 256 l 1,3,-1
 256 256 l 1,4,-1
 256 128 l 1,5,-1
 640 128 l 1,6,-1
 640 0 l 1,7,-1
 0 0 l 1,0,-1
256 256 m 1,8,-1
 256 384 l 1,9,-1
 384 384 l 1,10,-1
 384 256 l 1,11,-1
 256 256 l 1,8,-1
384 384 m 1,12,-1
 384 512 l 1,13,-1
 0 512 l 1,14,-1
 0 640 l 1,15,-1
 640 640 l 1,16,-1
 640 512 l 1,17,-1
 512 512 l 1,18,-1
 512 384 l 1,19,-1
 384 384 l 1,12,-1
EndSplineSet
Validated: 5
EndChar

StartChar: braceleft
Encoding: 123 123 94
Width: 672
GlyphClass: 1
Flags: W
LayerCount: 2
Fore
SplineSet
256 0 m 1,0,-1
 256 128 l 1,1,-1
 512 128 l 1,2,-1
 512 0 l 1,3,-1
 256 0 l 1,0,-1
128 128 m 1,4,-1
 128 384 l 1,5,-1
 256 384 l 1,6,-1
 256 128 l 1,7,-1
 128 128 l 1,4,-1
0 384 m 1,8,-1
 0 512 l 1,9,-1
 128 512 l 1,10,-1
 128 384 l 1,11,-1
 0 384 l 1,8,-1
128 512 m 1,12,-1
 128 768 l 1,13,-1
 256 768 l 1,14,-1
 256 512 l 1,15,-1
 128 512 l 1,12,-1
256 768 m 1,16,-1
 256 896 l 1,17,-1
 512 896 l 1,18,-1
 512 768 l 1,19,-1
 256 768 l 1,16,-1
EndSplineSet
Validated: 5
EndChar

StartChar: bar
Encoding: 124 124 95
Width: 288
GlyphClass: 1
Flags: W
LayerCount: 2
Fore
SplineSet
0 0 m 1,0,-1
 0 384 l 1,1,-1
 128 384 l 1,2,-1
 128 0 l 1,3,-1
 0 0 l 1,0,-1
0 512 m 1,4,-1
 0 896 l 1,5,-1
 128 896 l 1,6,-1
 128 512 l 1,7,-1
 0 512 l 1,4,-1
EndSplineSet
Validated: 1
EndChar

StartChar: braceright
Encoding: 125 125 96
Width: 672
GlyphClass: 1
Flags: W
LayerCount: 2
Fore
SplineSet
0 0 m 1,0,-1
 0 128 l 1,1,-1
 256 128 l 1,2,-1
 256 0 l 1,3,-1
 0 0 l 1,0,-1
256 128 m 1,4,-1
 256 384 l 1,5,-1
 384 384 l 1,6,-1
 384 128 l 1,7,-1
 256 128 l 1,4,-1
384 384 m 1,8,-1
 384 512 l 1,9,-1
 512 512 l 1,10,-1
 512 384 l 1,11,-1
 384 384 l 1,8,-1
256 512 m 1,12,-1
 256 768 l 1,13,-1
 384 768 l 1,14,-1
 384 512 l 1,15,-1
 256 512 l 1,12,-1
0 768 m 1,16,-1
 0 896 l 1,17,-1
 256 896 l 1,18,-1
 256 768 l 1,19,-1
 0 768 l 1,16,-1
EndSplineSet
Validated: 5
EndChar

StartChar: asciitilde
Encoding: 126 126 97
Width: 928
GlyphClass: 1
Flags: W
LayerCount: 2
Fore
SplineSet
0 640 m 1,0,-1
 0 768 l 1,1,-1
 128 768 l 1,2,-1
 128 640 l 1,3,-1
 0 640 l 1,0,-1
384 640 m 1,4,-1
 384 768 l 1,5,-1
 640 768 l 1,6,-1
 640 640 l 1,7,-1
 384 640 l 1,4,-1
128 768 m 1,8,-1
 128 896 l 1,9,-1
 384 896 l 1,10,-1
 384 768 l 1,11,-1
 128 768 l 1,8,-1
640 768 m 1,12,-1
 640 896 l 1,13,-1
 768 896 l 1,14,-1
 768 768 l 1,15,-1
 640 768 l 1,12,-1
EndSplineSet
Validated: 5
EndChar

StartChar: exclamdown
Encoding: 161 161 98
Width: 288
GlyphClass: 1
Flags: W
LayerCount: 2
Fore
SplineSet
0 0 m 1,0,-1
 0 512 l 1,1,-1
 128 512 l 1,2,-1
 128 0 l 1,3,-1
 0 0 l 1,0,-1
0 640 m 5,4,-1
 0 768 l 5,5,-1
 128 768 l 5,6,-1
 128 640 l 5,7,-1
 0 640 l 5,4,-1
EndSplineSet
Validated: 1
EndChar

StartChar: sterling
Encoding: 163 163 99
Width: 800
GlyphClass: 1
Flags: W
LayerCount: 2
Fore
SplineSet
0 0 m 1,0,-1
 0 128 l 1,1,-1
 128 128 l 1,2,-1
 128 384 l 1,3,-1
 0 384 l 1,4,-1
 0 512 l 1,5,-1
 128 512 l 1,6,-1
 128 768 l 1,7,-1
 256 768 l 1,8,-1
 256 512 l 1,9,-1
 512 512 l 1,10,-1
 512 384 l 1,11,-1
 256 384 l 1,12,-1
 256 128 l 1,13,-1
 640 128 l 1,14,-1
 640 0 l 1,15,-1
 0 0 l 1,0,-1
512 640 m 1,16,-1
 512 768 l 1,17,-1
 640 768 l 1,18,-1
 640 640 l 1,19,-1
 512 640 l 1,16,-1
256 768 m 1,20,-1
 256 896 l 1,21,-1
 512 896 l 1,22,-1
 512 768 l 1,23,-1
 256 768 l 1,20,-1
EndSplineSet
Validated: 5
EndChar

StartChar: brokenbar
Encoding: 166 166 100
Width: 288
GlyphClass: 1
Flags: W
LayerCount: 2
Fore
SplineSet
0 0 m 1,0,-1
 0 384 l 1,1,-1
 128 384 l 1,2,-1
 128 0 l 1,3,-1
 0 0 l 1,0,-1
0 512 m 1,4,-1
 0 896 l 1,5,-1
 128 896 l 1,6,-1
 128 512 l 1,7,-1
 0 512 l 1,4,-1
EndSplineSet
Validated: 1
EndChar

StartChar: section
Encoding: 167 167 101
Width: 1184
GlyphClass: 1
Flags: W
LayerCount: 2
Fore
SplineSet
512 256 m 1,0,-1
 512 512 l 1,1,-1
 384 512 l 1,2,-1
 384 256 l 1,3,-1
 512 256 l 1,0,-1
128 -128 m 1,4,-1
 128 0 l 1,5,-1
 0 0 l 1,6,-1
 0 128 l 1,7,-1
 256 128 l 1,8,-1
 256 0 l 1,9,-1
 512 0 l 1,10,-1
 512 128 l 1,11,-1
 256 128 l 1,12,-1
 256 256 l 1,13,-1
 128 256 l 1,14,-1
 128 512 l 1,15,-1
 256 512 l 1,16,-1
 256 640 l 1,17,-1
 128 640 l 1,18,-1
 128 768 l 1,19,-1
 256 768 l 1,20,-1
 256 896 l 1,21,-1
 896 896 l 1,22,-1
 896 768 l 1,23,-1
 1024 768 l 1,24,-1
 1024 640 l 1,25,-1
 768 640 l 1,26,-1
 768 768 l 1,27,-1
 384 768 l 1,28,-1
 384 640 l 1,29,-1
 640 640 l 1,30,-1
 640 512 l 1,31,-1
 768 512 l 1,32,-1
 768 256 l 1,33,-1
 640 256 l 1,34,-1
 640 128 l 1,35,-1
 768 128 l 1,36,-1
 768 0 l 1,37,-1
 640 0 l 1,38,-1
 640 -128 l 1,39,-1
 128 -128 l 1,4,-1
EndSplineSet
Validated: 5
EndChar

StartChar: guillemotleft
Encoding: 171 171 102
Width: 800
GlyphClass: 1
Flags: W
LayerCount: 2
Fore
SplineSet
256 128 m 1,0,-1
 256 256 l 1,1,-1
 384 256 l 1,2,-1
 384 128 l 1,3,-1
 256 128 l 1,0,-1
512 128 m 1,4,-1
 512 256 l 1,5,-1
 640 256 l 1,6,-1
 640 128 l 1,7,-1
 512 128 l 1,4,-1
128 256 m 1,8,-1
 128 384 l 1,9,-1
 256 384 l 1,10,-1
 256 256 l 1,11,-1
 128 256 l 1,8,-1
384 256 m 1,12,-1
 384 384 l 1,13,-1
 512 384 l 1,14,-1
 512 256 l 1,15,-1
 384 256 l 1,12,-1
0 384 m 1,16,-1
 0 512 l 1,17,-1
 128 512 l 1,18,-1
 128 384 l 1,19,-1
 0 384 l 1,16,-1
256 384 m 1,20,-1
 256 512 l 1,21,-1
 384 512 l 1,22,-1
 384 384 l 1,23,-1
 256 384 l 1,20,-1
128 512 m 1,24,-1
 128 640 l 1,25,-1
 256 640 l 1,26,-1
 256 512 l 1,27,-1
 128 512 l 1,24,-1
384 512 m 1,28,-1
 384 640 l 1,29,-1
 512 640 l 1,30,-1
 512 512 l 1,31,-1
 384 512 l 1,28,-1
256 640 m 1,32,-1
 256 768 l 1,33,-1
 384 768 l 1,34,-1
 384 640 l 1,35,-1
 256 640 l 1,32,-1
512 640 m 1,36,-1
 512 768 l 1,37,-1
 640 768 l 1,38,-1
 640 640 l 1,39,-1
 512 640 l 1,36,-1
EndSplineSet
Validated: 5
EndChar

StartChar: logicalnot
Encoding: 172 172 103
Width: 800
GlyphClass: 1
Flags: W
LayerCount: 2
Fore
SplineSet
512 128 m 1,0,-1
 512 384 l 1,1,-1
 0 384 l 1,2,-1
 0 512 l 1,3,-1
 640 512 l 1,4,-1
 640 128 l 1,5,-1
 512 128 l 1,0,-1
EndSplineSet
Validated: 1
EndChar

StartChar: uni00AD
Encoding: 173 173 104
Width: 416
GlyphClass: 1
Flags: W
LayerCount: 2
Fore
SplineSet
0 256 m 1,0,-1
 0 384 l 1,1,-1
 256 384 l 1,2,-1
 256 256 l 1,3,-1
 0 256 l 1,0,-1
EndSplineSet
Validated: 1
EndChar

StartChar: registered
Encoding: 174 174 105
Width: 928
GlyphClass: 1
Flags: W
LayerCount: 2
Fore
SplineSet
128 0 m 1,0,-1
 128 128 l 1,1,-1
 0 128 l 1,2,-1
 0 512 l 1,3,-1
 128 512 l 1,4,-1
 128 256 l 1,5,-1
 256 256 l 1,6,-1
 256 128 l 1,7,-1
 384 128 l 1,8,-1
 384 256 l 1,9,-1
 512 256 l 1,10,-1
 512 128 l 1,11,-1
 640 128 l 1,12,-1
 640 0 l 1,13,-1
 128 0 l 1,0,-1
640 128 m 1,14,-1
 640 512 l 1,15,-1
 768 512 l 1,16,-1
 768 128 l 1,17,-1
 640 128 l 1,14,-1
256 256 m 1,18,-1
 256 512 l 1,19,-1
 128 512 l 1,20,-1
 128 640 l 1,21,-1
 640 640 l 1,22,-1
 640 512 l 1,23,-1
 512 512 l 1,24,-1
 512 384 l 1,25,-1
 384 384 l 1,26,-1
 384 256 l 1,27,-1
 256 256 l 1,18,-1
EndSplineSet
Validated: 5
EndChar

StartChar: degree
Encoding: 176 176 106
Width: 800
GlyphClass: 1
Flags: W
LayerCount: 2
Fore
SplineSet
384 512 m 1,0,-1
 384 768 l 1,1,-1
 256 768 l 1,2,-1
 256 512 l 1,3,-1
 384 512 l 1,0,-1
128 384 m 1,4,-1
 128 512 l 1,5,-1
 0 512 l 1,6,-1
 0 768 l 1,7,-1
 128 768 l 1,8,-1
 128 896 l 1,9,-1
 512 896 l 1,10,-1
 512 768 l 1,11,-1
 640 768 l 1,12,-1
 640 512 l 1,13,-1
 512 512 l 1,14,-1
 512 384 l 1,15,-1
 128 384 l 1,4,-1
EndSplineSet
Validated: 1
EndChar

StartChar: plusminus
Encoding: 177 177 107
Width: 928
GlyphClass: 1
Flags: W
LayerCount: 2
Fore
SplineSet
0 0 m 1,0,-1
 0 128 l 1,1,-1
 768 128 l 1,2,-1
 768 0 l 1,3,-1
 0 0 l 1,0,-1
256 256 m 1,4,-1
 256 512 l 1,5,-1
 0 512 l 1,6,-1
 0 640 l 1,7,-1
 256 640 l 1,8,-1
 256 896 l 1,9,-1
 512 896 l 1,10,-1
 512 640 l 1,11,-1
 768 640 l 1,12,-1
 768 512 l 1,13,-1
 512 512 l 1,14,-1
 512 256 l 1,15,-1
 256 256 l 1,4,-1
EndSplineSet
Validated: 1
EndChar

StartChar: uni00B2
Encoding: 178 178 108
Width: 672
GlyphClass: 1
Flags: W
LayerCount: 2
Fore
SplineSet
0 256 m 1,0,-1
 0 512 l 1,1,-1
 128 512 l 1,2,-1
 128 640 l 1,3,-1
 256 640 l 1,4,-1
 256 768 l 1,5,-1
 0 768 l 1,6,-1
 0 896 l 1,7,-1
 384 896 l 1,8,-1
 384 768 l 1,9,-1
 512 768 l 1,10,-1
 512 640 l 1,11,-1
 384 640 l 1,12,-1
 384 512 l 1,13,-1
 256 512 l 1,14,-1
 256 384 l 1,15,-1
 512 384 l 1,16,-1
 512 256 l 1,17,-1
 0 256 l 1,0,-1
EndSplineSet
Validated: 1
EndChar

StartChar: acute
Encoding: 180 180 109
Width: 416
GlyphClass: 1
Flags: W
LayerCount: 2
Fore
SplineSet
0 512 m 1,0,-1
 0 640 l 1,1,-1
 128 640 l 1,2,-1
 128 512 l 1,3,-1
 0 512 l 1,0,-1
128 640 m 1,4,-1
 128 896 l 1,5,-1
 256 896 l 1,6,-1
 256 640 l 1,7,-1
 128 640 l 1,4,-1
EndSplineSet
Validated: 5
EndChar

StartChar: mu
Encoding: 181 181 110
Width: 1056
GlyphClass: 1
Flags: W
LayerCount: 2
Fore
SplineSet
0 0 m 1,0,-1
 0 128 l 1,1,-1
 128 128 l 1,2,-1
 128 896 l 1,3,-1
 384 896 l 1,4,-1
 384 384 l 1,5,-1
 640 384 l 1,6,-1
 640 896 l 1,7,-1
 896 896 l 1,8,-1
 896 384 l 1,9,-1
 768 384 l 1,10,-1
 768 256 l 1,11,-1
 384 256 l 1,12,-1
 384 128 l 1,13,-1
 256 128 l 1,14,-1
 256 0 l 1,15,-1
 0 0 l 1,0,-1
EndSplineSet
Validated: 1
EndChar

StartChar: paragraph
Encoding: 182 182 111
Width: 1184
GlyphClass: 1
Flags: W
LayerCount: 2
Fore
SplineSet
384 512 m 1,0,-1
 384 768 l 1,1,-1
 256 768 l 1,2,-1
 256 512 l 1,3,-1
 384 512 l 1,0,-1
384 0 m 1,4,-1
 384 384 l 1,5,-1
 128 384 l 1,6,-1
 128 512 l 1,7,-1
 0 512 l 1,8,-1
 0 768 l 1,9,-1
 128 768 l 1,10,-1
 128 896 l 1,11,-1
 1024 896 l 1,12,-1
 1024 0 l 1,13,-1
 768 0 l 1,14,-1
 768 768 l 1,15,-1
 640 768 l 1,16,-1
 640 0 l 1,17,-1
 384 0 l 1,4,-1
EndSplineSet
Validated: 1
EndChar

StartChar: periodcentered
Encoding: 183 183 112
Width: 416
GlyphClass: 1
Flags: W
LayerCount: 2
Fore
SplineSet
0 256 m 1,0,-1
 0 512 l 1,1,-1
 256 512 l 1,2,-1
 256 256 l 1,3,-1
 0 256 l 1,0,-1
EndSplineSet
Validated: 1
EndChar

StartChar: guillemotright
Encoding: 187 187 113
Width: 800
GlyphClass: 1
Flags: W
LayerCount: 2
Fore
SplineSet
0 128 m 1,0,-1
 0 256 l 1,1,-1
 128 256 l 1,2,-1
 128 128 l 1,3,-1
 0 128 l 1,0,-1
256 128 m 1,4,-1
 256 256 l 1,5,-1
 384 256 l 1,6,-1
 384 128 l 1,7,-1
 256 128 l 1,4,-1
128 256 m 1,8,-1
 128 384 l 1,9,-1
 256 384 l 1,10,-1
 256 256 l 1,11,-1
 128 256 l 1,8,-1
384 256 m 1,12,-1
 384 384 l 1,13,-1
 512 384 l 1,14,-1
 512 256 l 1,15,-1
 384 256 l 1,12,-1
256 384 m 1,16,-1
 256 512 l 1,17,-1
 384 512 l 1,18,-1
 384 384 l 1,19,-1
 256 384 l 1,16,-1
512 384 m 1,20,-1
 512 512 l 1,21,-1
 640 512 l 1,22,-1
 640 384 l 1,23,-1
 512 384 l 1,20,-1
128 512 m 1,24,-1
 128 640 l 1,25,-1
 256 640 l 1,26,-1
 256 512 l 1,27,-1
 128 512 l 1,24,-1
384 512 m 1,28,-1
 384 640 l 1,29,-1
 512 640 l 1,30,-1
 512 512 l 1,31,-1
 384 512 l 1,28,-1
0 640 m 1,32,-1
 0 768 l 1,33,-1
 128 768 l 1,34,-1
 128 640 l 1,35,-1
 0 640 l 1,32,-1
256 640 m 1,36,-1
 256 768 l 1,37,-1
 384 768 l 1,38,-1
 384 640 l 1,39,-1
 256 640 l 1,36,-1
EndSplineSet
Validated: 5
EndChar

StartChar: onequarter
Encoding: 188 188 114
Width: 800
GlyphClass: 1
Flags: W
LayerCount: 2
Fore
SplineSet
0 0 m 1,0,-1
 0 128 l 1,1,-1
 128 128 l 1,2,-1
 128 0 l 1,3,-1
 0 0 l 1,0,-1
128 128 m 1,4,-1
 128 384 l 1,5,-1
 256 384 l 1,6,-1
 256 128 l 1,7,-1
 128 128 l 1,4,-1
512 0 m 1,8,-1
 512 128 l 1,9,-1
 384 128 l 1,10,-1
 384 384 l 1,11,-1
 640 384 l 1,12,-1
 640 0 l 1,13,-1
 512 0 l 1,8,-1
256 384 m 1,14,-1
 256 512 l 1,15,-1
 384 512 l 1,16,-1
 384 384 l 1,17,-1
 256 384 l 1,14,-1
384 512 m 1,18,-1
 384 768 l 1,19,-1
 512 768 l 1,20,-1
 512 512 l 1,21,-1
 384 512 l 1,18,-1
0 640 m 1,22,-1
 0 896 l 1,23,-1
 128 896 l 1,24,-1
 128 640 l 1,25,-1
 0 640 l 1,22,-1
512 768 m 1,26,-1
 512 896 l 1,27,-1
 640 896 l 1,28,-1
 640 768 l 1,29,-1
 512 768 l 1,26,-1
EndSplineSet
Validated: 5
EndChar

StartChar: onehalf
Encoding: 189 189 115
Width: 800
GlyphClass: 1
Flags: W
LayerCount: 2
Fore
SplineSet
0 0 m 1,0,-1
 0 128 l 1,1,-1
 128 128 l 1,2,-1
 128 0 l 1,3,-1
 0 0 l 1,0,-1
384 0 m 1,4,-1
 384 256 l 1,5,-1
 512 256 l 1,6,-1
 512 128 l 1,7,-1
 640 128 l 1,8,-1
 640 0 l 1,9,-1
 384 0 l 1,4,-1
128 128 m 1,10,-1
 128 384 l 1,11,-1
 256 384 l 1,12,-1
 256 128 l 1,13,-1
 128 128 l 1,10,-1
512 256 m 1,14,-1
 512 384 l 1,15,-1
 640 384 l 1,16,-1
 640 256 l 1,17,-1
 512 256 l 1,14,-1
256 384 m 1,18,-1
 256 512 l 1,19,-1
 384 512 l 1,20,-1
 384 384 l 1,21,-1
 256 384 l 1,18,-1
384 512 m 1,22,-1
 384 768 l 1,23,-1
 512 768 l 1,24,-1
 512 512 l 1,25,-1
 384 512 l 1,22,-1
0 640 m 1,26,-1
 0 896 l 1,27,-1
 128 896 l 1,28,-1
 128 640 l 1,29,-1
 0 640 l 1,26,-1
512 768 m 1,30,-1
 512 896 l 1,31,-1
 640 896 l 1,32,-1
 640 768 l 1,33,-1
 512 768 l 1,30,-1
EndSplineSet
Validated: 5
EndChar

StartChar: questiondown
Encoding: 191 191 116
Width: 800
GlyphClass: 1
Flags: W
LayerCount: 2
Fore
SplineSet
128 0 m 1,0,-1
 128 128 l 1,1,-1
 512 128 l 1,2,-1
 512 0 l 1,3,-1
 128 0 l 1,0,-1
512 128 m 1,4,-1
 512 256 l 1,5,-1
 640 256 l 1,6,-1
 640 128 l 1,7,-1
 512 128 l 1,4,-1
0 128 m 1,8,-1
 0 384 l 1,9,-1
 128 384 l 1,10,-1
 128 128 l 1,11,-1
 0 128 l 1,8,-1
128 384 m 1,12,-1
 128 512 l 1,13,-1
 256 512 l 1,14,-1
 256 384 l 1,15,-1
 128 384 l 1,12,-1
256 512 m 1,16,-1
 256 640 l 1,17,-1
 384 640 l 1,18,-1
 384 512 l 1,19,-1
 256 512 l 1,16,-1
256 768 m 1,20,-1
 256 896 l 1,21,-1
 384 896 l 1,22,-1
 384 768 l 1,23,-1
 256 768 l 1,20,-1
EndSplineSet
Validated: 5
EndChar

StartChar: Agrave
Encoding: 192 192 117
Width: 800
GlyphClass: 1
Flags: W
LayerCount: 2
Fore
SplineSet
0 128 m 1,0,-1
 0 256 l 1,1,-1
 128 256 l 1,2,-1
 128 128 l 1,3,-1
 0 128 l 1,0,-1
128 0 m 1,4,-1
 128 128 l 1,5,-1
 512 128 l 1,6,-1
 512 256 l 1,7,-1
 128 256 l 1,8,-1
 128 384 l 1,9,-1
 512 384 l 1,10,-1
 512 512 l 1,11,-1
 640 512 l 1,12,-1
 640 0 l 1,13,-1
 128 0 l 1,4,-1
128 512 m 1,14,-1
 128 640 l 1,15,-1
 512 640 l 1,16,-1
 512 512 l 1,17,-1
 128 512 l 1,14,-1
0 768 m 1,18,-1
 0 896 l 1,19,-1
 256 896 l 1,20,-1
 256 768 l 1,21,-1
 0 768 l 1,18,-1
EndSplineSet
Validated: 5
EndChar

StartChar: Aacute
Encoding: 193 193 118
Width: 800
GlyphClass: 1
Flags: W
LayerCount: 2
Fore
SplineSet
0 128 m 1,0,-1
 0 256 l 1,1,-1
 128 256 l 1,2,-1
 128 128 l 1,3,-1
 0 128 l 1,0,-1
128 0 m 1,4,-1
 128 128 l 1,5,-1
 512 128 l 1,6,-1
 512 256 l 1,7,-1
 128 256 l 1,8,-1
 128 384 l 1,9,-1
 512 384 l 1,10,-1
 512 512 l 1,11,-1
 640 512 l 1,12,-1
 640 0 l 1,13,-1
 128 0 l 1,4,-1
128 512 m 1,14,-1
 128 640 l 1,15,-1
 512 640 l 1,16,-1
 512 512 l 1,17,-1
 128 512 l 1,14,-1
384 768 m 1,18,-1
 384 896 l 1,19,-1
 640 896 l 1,20,-1
 640 768 l 1,21,-1
 384 768 l 1,18,-1
EndSplineSet
Validated: 5
EndChar

StartChar: Acircumflex
Encoding: 194 194 119
Width: 800
GlyphClass: 1
Flags: W
LayerCount: 2
Fore
SplineSet
0 128 m 1,0,-1
 0 256 l 1,1,-1
 128 256 l 1,2,-1
 128 128 l 1,3,-1
 0 128 l 1,0,-1
128 0 m 1,4,-1
 128 128 l 1,5,-1
 512 128 l 1,6,-1
 512 256 l 1,7,-1
 128 256 l 1,8,-1
 128 384 l 1,9,-1
 512 384 l 1,10,-1
 512 512 l 1,11,-1
 640 512 l 1,12,-1
 640 0 l 1,13,-1
 128 0 l 1,4,-1
128 512 m 1,14,-1
 128 640 l 1,15,-1
 512 640 l 1,16,-1
 512 512 l 1,17,-1
 128 512 l 1,14,-1
0 640 m 1,18,-1
 0 768 l 1,19,-1
 128 768 l 1,20,-1
 128 640 l 1,21,-1
 0 640 l 1,18,-1
512 640 m 1,22,-1
 512 768 l 1,23,-1
 640 768 l 1,24,-1
 640 640 l 1,25,-1
 512 640 l 1,22,-1
128 768 m 1,26,-1
 128 896 l 1,27,-1
 512 896 l 1,28,-1
 512 768 l 1,29,-1
 128 768 l 1,26,-1
EndSplineSet
Validated: 5
EndChar

StartChar: Adieresis
Encoding: 196 196 120
Width: 800
GlyphClass: 1
Flags: W
LayerCount: 2
Fore
SplineSet
0 0 m 1,0,-1
 0 640 l 1,1,-1
 128 640 l 1,2,-1
 128 512 l 1,3,-1
 512 512 l 1,4,-1
 512 640 l 1,5,-1
 640 640 l 1,6,-1
 640 0 l 1,7,-1
 512 0 l 1,8,-1
 512 384 l 1,9,-1
 128 384 l 1,10,-1
 128 0 l 1,11,-1
 0 0 l 1,0,-1
128 640 m 1,12,-1
 128 768 l 1,13,-1
 512 768 l 1,14,-1
 512 640 l 1,15,-1
 128 640 l 1,12,-1
0 768 m 1,16,-1
 0 896 l 1,17,-1
 128 896 l 1,18,-1
 128 768 l 1,19,-1
 0 768 l 1,16,-1
512 768 m 1,20,-1
 512 896 l 1,21,-1
 640 896 l 1,22,-1
 640 768 l 1,23,-1
 512 768 l 1,20,-1
EndSplineSet
Validated: 5
EndChar

StartChar: Aring
Encoding: 197 197 121
Width: 800
GlyphClass: 1
Flags: W
LayerCount: 2
Fore
SplineSet
0 0 m 1,0,-1
 0 512 l 1,1,-1
 128 512 l 1,2,-1
 128 384 l 1,3,-1
 512 384 l 1,4,-1
 512 512 l 1,5,-1
 640 512 l 1,6,-1
 640 0 l 1,7,-1
 512 0 l 1,8,-1
 512 256 l 1,9,-1
 128 256 l 1,10,-1
 128 0 l 1,11,-1
 0 0 l 1,0,-1
128 512 m 1,12,-1
 128 640 l 1,13,-1
 512 640 l 1,14,-1
 512 512 l 1,15,-1
 128 512 l 1,12,-1
256 768 m 1,16,-1
 256 896 l 1,17,-1
 384 896 l 1,18,-1
 384 768 l 1,19,-1
 256 768 l 1,16,-1
EndSplineSet
Validated: 5
EndChar

StartChar: AE
Encoding: 198 198 122
Width: 800
GlyphClass: 1
Flags: W
LayerCount: 2
Fore
SplineSet
0 0 m 1,0,-1
 0 768 l 1,1,-1
 128 768 l 1,2,-1
 128 640 l 1,3,-1
 256 640 l 1,4,-1
 256 768 l 1,5,-1
 128 768 l 1,6,-1
 128 896 l 1,7,-1
 640 896 l 1,8,-1
 640 768 l 1,9,-1
 384 768 l 1,10,-1
 384 640 l 1,11,-1
 512 640 l 1,12,-1
 512 512 l 1,13,-1
 384 512 l 1,14,-1
 384 128 l 1,15,-1
 640 128 l 1,16,-1
 640 0 l 1,17,-1
 256 0 l 1,18,-1
 256 512 l 1,19,-1
 128 512 l 1,20,-1
 128 0 l 1,21,-1
 0 0 l 1,0,-1
EndSplineSet
Validated: 5
EndChar

StartChar: Ccedilla
Encoding: 199 199 123
Width: 800
GlyphClass: 1
Flags: W
LayerCount: 2
Fore
SplineSet
256 -128 m 1,0,-1
 256 0 l 1,1,-1
 512 0 l 1,2,-1
 512 -128 l 1,3,-1
 256 -128 l 1,0,-1
512 0 m 1,4,-1
 512 128 l 1,5,-1
 640 128 l 1,6,-1
 640 0 l 1,7,-1
 512 0 l 1,4,-1
128 128 m 1,8,-1
 128 256 l 1,9,-1
 512 256 l 1,10,-1
 512 128 l 1,11,-1
 128 128 l 1,8,-1
512 256 m 1,12,-1
 512 384 l 1,13,-1
 640 384 l 1,14,-1
 640 256 l 1,15,-1
 512 256 l 1,12,-1
0 256 m 1,16,-1
 0 768 l 1,17,-1
 128 768 l 1,18,-1
 128 256 l 1,19,-1
 0 256 l 1,16,-1
512 640 m 1,20,-1
 512 768 l 1,21,-1
 640 768 l 1,22,-1
 640 640 l 1,23,-1
 512 640 l 1,20,-1
128 768 m 1,24,-1
 128 896 l 1,25,-1
 512 896 l 1,26,-1
 512 768 l 1,27,-1
 128 768 l 1,24,-1
EndSplineSet
Validated: 5
EndChar

StartChar: Egrave
Encoding: 200 200 124
Width: 800
GlyphClass: 1
Flags: W
LayerCount: 2
Fore
SplineSet
128 0 m 1,0,-1
 128 128 l 1,1,-1
 640 128 l 1,2,-1
 640 0 l 1,3,-1
 128 0 l 1,0,-1
0 128 m 1,4,-1
 0 512 l 1,5,-1
 128 512 l 1,6,-1
 128 384 l 1,7,-1
 512 384 l 1,8,-1
 512 512 l 1,9,-1
 640 512 l 1,10,-1
 640 256 l 1,11,-1
 128 256 l 1,12,-1
 128 128 l 1,13,-1
 0 128 l 1,4,-1
128 512 m 1,14,-1
 128 640 l 1,15,-1
 512 640 l 1,16,-1
 512 512 l 1,17,-1
 128 512 l 1,14,-1
0 768 m 1,18,-1
 0 896 l 1,19,-1
 256 896 l 1,20,-1
 256 768 l 1,21,-1
 0 768 l 1,18,-1
EndSplineSet
Validated: 5
EndChar

StartChar: Eacute
Encoding: 201 201 125
Width: 800
GlyphClass: 1
Flags: W
LayerCount: 2
Fore
SplineSet
0 0 m 1,0,-1
 0 640 l 1,1,-1
 640 640 l 1,2,-1
 640 512 l 1,3,-1
 128 512 l 1,4,-1
 128 384 l 1,5,-1
 384 384 l 1,6,-1
 384 256 l 1,7,-1
 128 256 l 1,8,-1
 128 128 l 1,9,-1
 640 128 l 1,10,-1
 640 0 l 1,11,-1
 0 0 l 1,0,-1
384 768 m 1,12,-1
 384 896 l 1,13,-1
 640 896 l 1,14,-1
 640 768 l 1,15,-1
 384 768 l 1,12,-1
EndSplineSet
Validated: 1
EndChar

StartChar: Ecircumflex
Encoding: 202 202 126
Width: 800
GlyphClass: 1
Flags: W
LayerCount: 2
Fore
SplineSet
128 0 m 1,0,-1
 128 128 l 1,1,-1
 640 128 l 1,2,-1
 640 0 l 1,3,-1
 128 0 l 1,0,-1
0 128 m 1,4,-1
 0 512 l 1,5,-1
 128 512 l 1,6,-1
 128 384 l 1,7,-1
 512 384 l 1,8,-1
 512 512 l 1,9,-1
 640 512 l 1,10,-1
 640 256 l 1,11,-1
 128 256 l 1,12,-1
 128 128 l 1,13,-1
 0 128 l 1,4,-1
128 512 m 1,14,-1
 128 640 l 1,15,-1
 512 640 l 1,16,-1
 512 512 l 1,17,-1
 128 512 l 1,14,-1
0 640 m 1,18,-1
 0 768 l 1,19,-1
 128 768 l 1,20,-1
 128 640 l 1,21,-1
 0 640 l 1,18,-1
512 640 m 1,22,-1
 512 768 l 1,23,-1
 640 768 l 1,24,-1
 640 640 l 1,25,-1
 512 640 l 1,22,-1
128 768 m 1,26,-1
 128 896 l 1,27,-1
 512 896 l 1,28,-1
 512 768 l 1,29,-1
 128 768 l 1,26,-1
EndSplineSet
Validated: 5
EndChar

StartChar: Edieresis
Encoding: 203 203 127
Width: 800
GlyphClass: 1
Flags: W
LayerCount: 2
Fore
SplineSet
128 0 m 1,0,-1
 128 128 l 1,1,-1
 640 128 l 1,2,-1
 640 0 l 1,3,-1
 128 0 l 1,0,-1
0 128 m 1,4,-1
 0 512 l 1,5,-1
 128 512 l 1,6,-1
 128 384 l 1,7,-1
 512 384 l 1,8,-1
 512 512 l 1,9,-1
 640 512 l 1,10,-1
 640 256 l 1,11,-1
 128 256 l 1,12,-1
 128 128 l 1,13,-1
 0 128 l 1,4,-1
128 512 m 1,14,-1
 128 640 l 1,15,-1
 512 640 l 1,16,-1
 512 512 l 1,17,-1
 128 512 l 1,14,-1
128 768 m 1,18,-1
 128 896 l 1,19,-1
 256 896 l 1,20,-1
 256 768 l 1,21,-1
 128 768 l 1,18,-1
384 768 m 1,22,-1
 384 896 l 1,23,-1
 512 896 l 1,24,-1
 512 768 l 1,25,-1
 384 768 l 1,22,-1
EndSplineSet
Validated: 5
EndChar

StartChar: Igrave
Encoding: 204 204 128
Width: 416
GlyphClass: 1
Flags: W
LayerCount: 2
Fore
SplineSet
128 0 m 1,0,-1
 128 640 l 1,1,-1
 256 640 l 1,2,-1
 256 0 l 1,3,-1
 128 0 l 1,0,-1
0 768 m 1,4,-1
 0 896 l 1,5,-1
 256 896 l 1,6,-1
 256 768 l 1,7,-1
 0 768 l 1,4,-1
EndSplineSet
Validated: 1
EndChar

StartChar: Iacute
Encoding: 205 205 129
Width: 416
GlyphClass: 1
Flags: W
LayerCount: 2
Fore
SplineSet
0 0 m 1,0,-1
 0 640 l 1,1,-1
 128 640 l 1,2,-1
 128 0 l 1,3,-1
 0 0 l 1,0,-1
0 768 m 1,4,-1
 0 896 l 1,5,-1
 256 896 l 1,6,-1
 256 768 l 1,7,-1
 0 768 l 1,4,-1
EndSplineSet
Validated: 1
EndChar

StartChar: Icircumflex
Encoding: 206 206 130
Width: 800
GlyphClass: 1
Flags: W
LayerCount: 2
Fore
SplineSet
256 0 m 1,0,-1
 256 640 l 1,1,-1
 384 640 l 1,2,-1
 384 0 l 1,3,-1
 256 0 l 1,0,-1
0 640 m 1,4,-1
 0 768 l 1,5,-1
 128 768 l 1,6,-1
 128 640 l 1,7,-1
 0 640 l 1,4,-1
512 640 m 1,8,-1
 512 768 l 1,9,-1
 640 768 l 1,10,-1
 640 640 l 1,11,-1
 512 640 l 1,8,-1
128 768 m 1,12,-1
 128 896 l 1,13,-1
 512 896 l 1,14,-1
 512 768 l 1,15,-1
 128 768 l 1,12,-1
EndSplineSet
Validated: 5
EndChar

StartChar: Idieresis
Encoding: 207 207 131
Width: 544
GlyphClass: 1
Flags: W
LayerCount: 2
Fore
SplineSet
128 0 m 1,0,-1
 128 640 l 1,1,-1
 256 640 l 1,2,-1
 256 0 l 1,3,-1
 128 0 l 1,0,-1
0 768 m 1,4,-1
 0 896 l 1,5,-1
 128 896 l 1,6,-1
 128 768 l 1,7,-1
 0 768 l 1,4,-1
256 768 m 1,8,-1
 256 896 l 1,9,-1
 384 896 l 1,10,-1
 384 768 l 1,11,-1
 256 768 l 1,8,-1
EndSplineSet
Validated: 1
EndChar

StartChar: Ntilde
Encoding: 209 209 132
Width: 800
GlyphClass: 1
Flags: W
LayerCount: 2
Fore
SplineSet
256 256 m 1,0,-1
 256 384 l 1,1,-1
 384 384 l 1,2,-1
 384 256 l 1,3,-1
 256 256 l 1,0,-1
0 0 m 1,4,-1
 0 640 l 1,5,-1
 128 640 l 1,6,-1
 128 512 l 1,7,-1
 256 512 l 1,8,-1
 256 384 l 1,9,-1
 128 384 l 1,10,-1
 128 0 l 1,11,-1
 0 0 l 1,4,-1
512 0 m 1,12,-1
 512 128 l 1,13,-1
 384 128 l 1,14,-1
 384 256 l 1,15,-1
 512 256 l 1,16,-1
 512 640 l 1,17,-1
 640 640 l 1,18,-1
 640 0 l 1,19,-1
 512 0 l 1,12,-1
0 768 m 1,20,-1
 0 896 l 1,21,-1
 640 896 l 1,22,-1
 640 768 l 1,23,-1
 0 768 l 1,20,-1
EndSplineSet
Validated: 5
EndChar

StartChar: Ograve
Encoding: 210 210 133
Width: 800
GlyphClass: 1
Flags: W
LayerCount: 2
Fore
SplineSet
128 0 m 1,0,-1
 128 128 l 1,1,-1
 512 128 l 1,2,-1
 512 0 l 1,3,-1
 128 0 l 1,0,-1
0 128 m 1,4,-1
 0 512 l 1,5,-1
 128 512 l 1,6,-1
 128 128 l 1,7,-1
 0 128 l 1,4,-1
512 128 m 1,8,-1
 512 512 l 1,9,-1
 640 512 l 1,10,-1
 640 128 l 1,11,-1
 512 128 l 1,8,-1
128 512 m 1,12,-1
 128 640 l 1,13,-1
 512 640 l 1,14,-1
 512 512 l 1,15,-1
 128 512 l 1,12,-1
0 768 m 1,16,-1
 0 896 l 1,17,-1
 256 896 l 1,18,-1
 256 768 l 1,19,-1
 0 768 l 1,16,-1
EndSplineSet
Validated: 5
EndChar

StartChar: Oacute
Encoding: 211 211 134
Width: 800
GlyphClass: 1
Flags: W
LayerCount: 2
Fore
SplineSet
128 0 m 1,0,-1
 128 128 l 1,1,-1
 512 128 l 1,2,-1
 512 0 l 1,3,-1
 128 0 l 1,0,-1
0 128 m 1,4,-1
 0 512 l 1,5,-1
 128 512 l 1,6,-1
 128 128 l 1,7,-1
 0 128 l 1,4,-1
512 128 m 1,8,-1
 512 512 l 1,9,-1
 640 512 l 1,10,-1
 640 128 l 1,11,-1
 512 128 l 1,8,-1
128 512 m 1,12,-1
 128 640 l 1,13,-1
 512 640 l 1,14,-1
 512 512 l 1,15,-1
 128 512 l 1,12,-1
384 768 m 1,16,-1
 384 896 l 1,17,-1
 640 896 l 1,18,-1
 640 768 l 1,19,-1
 384 768 l 1,16,-1
EndSplineSet
Validated: 5
EndChar

StartChar: Ocircumflex
Encoding: 212 212 135
Width: 800
GlyphClass: 1
Flags: W
LayerCount: 2
Fore
SplineSet
128 0 m 1,0,-1
 128 128 l 1,1,-1
 512 128 l 1,2,-1
 512 0 l 1,3,-1
 128 0 l 1,0,-1
0 128 m 1,4,-1
 0 512 l 1,5,-1
 128 512 l 1,6,-1
 128 128 l 1,7,-1
 0 128 l 1,4,-1
512 128 m 1,8,-1
 512 512 l 1,9,-1
 640 512 l 1,10,-1
 640 128 l 1,11,-1
 512 128 l 1,8,-1
128 512 m 1,12,-1
 128 640 l 1,13,-1
 512 640 l 1,14,-1
 512 512 l 1,15,-1
 128 512 l 1,12,-1
0 640 m 1,16,-1
 0 768 l 1,17,-1
 128 768 l 1,18,-1
 128 640 l 1,19,-1
 0 640 l 1,16,-1
512 640 m 1,20,-1
 512 768 l 1,21,-1
 640 768 l 1,22,-1
 640 640 l 1,23,-1
 512 640 l 1,20,-1
128 768 m 1,24,-1
 128 896 l 1,25,-1
 512 896 l 1,26,-1
 512 768 l 1,27,-1
 128 768 l 1,24,-1
EndSplineSet
Validated: 5
EndChar

StartChar: Odieresis
Encoding: 214 214 136
Width: 800
GlyphClass: 1
Flags: W
LayerCount: 2
Fore
SplineSet
128 0 m 1,0,-1
 128 128 l 1,1,-1
 512 128 l 1,2,-1
 512 0 l 1,3,-1
 128 0 l 1,0,-1
0 128 m 1,4,-1
 0 640 l 1,5,-1
 128 640 l 1,6,-1
 128 128 l 1,7,-1
 0 128 l 1,4,-1
512 128 m 1,8,-1
 512 640 l 1,9,-1
 640 640 l 1,10,-1
 640 128 l 1,11,-1
 512 128 l 1,8,-1
128 640 m 1,12,-1
 128 768 l 1,13,-1
 512 768 l 1,14,-1
 512 640 l 1,15,-1
 128 640 l 1,12,-1
0 768 m 1,16,-1
 0 896 l 1,17,-1
 128 896 l 1,18,-1
 128 768 l 1,19,-1
 0 768 l 1,16,-1
512 768 m 1,20,-1
 512 896 l 1,21,-1
 640 896 l 1,22,-1
 640 768 l 1,23,-1
 512 768 l 1,20,-1
EndSplineSet
Validated: 5
EndChar

StartChar: multiply
Encoding: 215 215 137
Width: 544
GlyphClass: 1
Flags: W
LayerCount: 2
Fore
SplineSet
0 256 m 1,0,-1
 0 384 l 1,1,-1
 128 384 l 1,2,-1
 128 256 l 1,3,-1
 0 256 l 1,0,-1
256 256 m 1,4,-1
 256 384 l 1,5,-1
 384 384 l 1,6,-1
 384 256 l 1,7,-1
 256 256 l 1,4,-1
128 384 m 1,8,-1
 128 512 l 1,9,-1
 256 512 l 1,10,-1
 256 384 l 1,11,-1
 128 384 l 1,8,-1
0 512 m 1,12,-1
 0 640 l 1,13,-1
 128 640 l 1,14,-1
 128 512 l 1,15,-1
 0 512 l 1,12,-1
256 512 m 1,16,-1
 256 640 l 1,17,-1
 384 640 l 1,18,-1
 384 512 l 1,19,-1
 256 512 l 1,16,-1
EndSplineSet
Validated: 5
EndChar

StartChar: Oslash
Encoding: 216 216 138
Width: 800
GlyphClass: 1
Flags: W
LayerCount: 2
Fore
SplineSet
128 0 m 1,0,-1
 128 128 l 1,1,-1
 512 128 l 1,2,-1
 512 0 l 1,3,-1
 128 0 l 1,0,-1
256 384 m 1,4,-1
 256 512 l 1,5,-1
 384 512 l 1,6,-1
 384 384 l 1,7,-1
 256 384 l 1,4,-1
0 128 m 1,8,-1
 0 768 l 1,9,-1
 128 768 l 1,10,-1
 128 384 l 1,11,-1
 256 384 l 1,12,-1
 256 256 l 1,13,-1
 128 256 l 1,14,-1
 128 128 l 1,15,-1
 0 128 l 1,8,-1
512 128 m 1,16,-1
 512 512 l 1,17,-1
 384 512 l 1,18,-1
 384 640 l 1,19,-1
 512 640 l 1,20,-1
 512 768 l 1,21,-1
 640 768 l 1,22,-1
 640 128 l 1,23,-1
 512 128 l 1,16,-1
128 768 m 1,24,-1
 128 896 l 1,25,-1
 512 896 l 1,26,-1
 512 768 l 1,27,-1
 128 768 l 1,24,-1
EndSplineSet
Validated: 5
EndChar

StartChar: Ugrave
Encoding: 217 217 139
Width: 800
GlyphClass: 1
Flags: W
LayerCount: 2
Fore
SplineSet
0 128 m 1,0,-1
 0 640 l 1,1,-1
 128 640 l 1,2,-1
 128 128 l 1,3,-1
 0 128 l 1,0,-1
128 0 m 1,4,-1
 128 128 l 1,5,-1
 512 128 l 1,6,-1
 512 640 l 1,7,-1
 640 640 l 1,8,-1
 640 0 l 1,9,-1
 128 0 l 1,4,-1
0 768 m 1,10,-1
 0 896 l 1,11,-1
 256 896 l 1,12,-1
 256 768 l 1,13,-1
 0 768 l 1,10,-1
EndSplineSet
Validated: 5
EndChar

StartChar: Uacute
Encoding: 218 218 140
Width: 800
GlyphClass: 1
Flags: W
LayerCount: 2
Fore
SplineSet
0 128 m 1,0,-1
 0 640 l 1,1,-1
 128 640 l 1,2,-1
 128 128 l 1,3,-1
 0 128 l 1,0,-1
128 0 m 1,4,-1
 128 128 l 1,5,-1
 512 128 l 1,6,-1
 512 640 l 1,7,-1
 640 640 l 1,8,-1
 640 0 l 1,9,-1
 128 0 l 1,4,-1
384 768 m 1,10,-1
 384 896 l 1,11,-1
 640 896 l 1,12,-1
 640 768 l 1,13,-1
 384 768 l 1,10,-1
EndSplineSet
Validated: 5
EndChar

StartChar: Ucircumflex
Encoding: 219 219 141
Width: 800
GlyphClass: 1
Flags: W
LayerCount: 2
Fore
SplineSet
0 128 m 1,0,-1
 0 512 l 1,1,-1
 128 512 l 1,2,-1
 128 128 l 1,3,-1
 0 128 l 1,0,-1
128 0 m 1,4,-1
 128 128 l 1,5,-1
 512 128 l 1,6,-1
 512 512 l 1,7,-1
 640 512 l 1,8,-1
 640 0 l 1,9,-1
 128 0 l 1,4,-1
0 640 m 1,10,-1
 0 768 l 1,11,-1
 128 768 l 1,12,-1
 128 640 l 1,13,-1
 0 640 l 1,10,-1
512 640 m 1,14,-1
 512 768 l 1,15,-1
 640 768 l 1,16,-1
 640 640 l 1,17,-1
 512 640 l 1,14,-1
128 768 m 1,18,-1
 128 896 l 1,19,-1
 512 896 l 1,20,-1
 512 768 l 1,21,-1
 128 768 l 1,18,-1
EndSplineSet
Validated: 5
EndChar

StartChar: Udieresis
Encoding: 220 220 142
Width: 800
GlyphClass: 1
Flags: W
LayerCount: 2
Fore
SplineSet
128 0 m 1,0,-1
 128 128 l 1,1,-1
 512 128 l 1,2,-1
 512 0 l 1,3,-1
 128 0 l 1,0,-1
0 128 m 1,4,-1
 0 640 l 1,5,-1
 128 640 l 1,6,-1
 128 128 l 1,7,-1
 0 128 l 1,4,-1
512 128 m 1,8,-1
 512 640 l 1,9,-1
 640 640 l 1,10,-1
 640 128 l 1,11,-1
 512 128 l 1,8,-1
0 768 m 1,12,-1
 0 896 l 1,13,-1
 128 896 l 1,14,-1
 128 768 l 1,15,-1
 0 768 l 1,12,-1
512 768 m 1,16,-1
 512 896 l 1,17,-1
 640 896 l 1,18,-1
 640 768 l 1,19,-1
 512 768 l 1,16,-1
EndSplineSet
Validated: 5
EndChar

StartChar: agrave
Encoding: 224 224 143
Width: 800
GlyphClass: 1
Flags: W
LayerCount: 2
Fore
SplineSet
0 128 m 1,0,-1
 0 256 l 1,1,-1
 128 256 l 1,2,-1
 128 128 l 1,3,-1
 0 128 l 1,0,-1
128 0 m 1,4,-1
 128 128 l 1,5,-1
 512 128 l 1,6,-1
 512 256 l 1,7,-1
 128 256 l 1,8,-1
 128 384 l 1,9,-1
 512 384 l 1,10,-1
 512 512 l 1,11,-1
 640 512 l 1,12,-1
 640 0 l 1,13,-1
 128 0 l 1,4,-1
128 512 m 1,14,-1
 128 640 l 1,15,-1
 512 640 l 1,16,-1
 512 512 l 1,17,-1
 128 512 l 1,14,-1
0 768 m 1,18,-1
 0 896 l 1,19,-1
 256 896 l 1,20,-1
 256 768 l 1,21,-1
 0 768 l 1,18,-1
EndSplineSet
Validated: 5
EndChar

StartChar: aacute
Encoding: 225 225 144
Width: 800
GlyphClass: 1
Flags: W
LayerCount: 2
Fore
SplineSet
0 128 m 1,0,-1
 0 256 l 1,1,-1
 128 256 l 1,2,-1
 128 128 l 1,3,-1
 0 128 l 1,0,-1
128 0 m 1,4,-1
 128 128 l 1,5,-1
 512 128 l 1,6,-1
 512 256 l 1,7,-1
 128 256 l 1,8,-1
 128 384 l 1,9,-1
 512 384 l 1,10,-1
 512 512 l 1,11,-1
 640 512 l 1,12,-1
 640 0 l 1,13,-1
 128 0 l 1,4,-1
128 512 m 1,14,-1
 128 640 l 1,15,-1
 512 640 l 1,16,-1
 512 512 l 1,17,-1
 128 512 l 1,14,-1
384 768 m 1,18,-1
 384 896 l 1,19,-1
 640 896 l 1,20,-1
 640 768 l 1,21,-1
 384 768 l 1,18,-1
EndSplineSet
Validated: 5
EndChar

StartChar: acircumflex
Encoding: 226 226 145
Width: 800
GlyphClass: 1
Flags: W
LayerCount: 2
Fore
SplineSet
0 128 m 1,0,-1
 0 256 l 1,1,-1
 128 256 l 1,2,-1
 128 128 l 1,3,-1
 0 128 l 1,0,-1
128 0 m 1,4,-1
 128 128 l 1,5,-1
 512 128 l 1,6,-1
 512 256 l 1,7,-1
 128 256 l 1,8,-1
 128 384 l 1,9,-1
 512 384 l 1,10,-1
 512 512 l 1,11,-1
 640 512 l 1,12,-1
 640 0 l 1,13,-1
 128 0 l 1,4,-1
128 512 m 1,14,-1
 128 640 l 1,15,-1
 512 640 l 1,16,-1
 512 512 l 1,17,-1
 128 512 l 1,14,-1
0 640 m 1,18,-1
 0 768 l 1,19,-1
 128 768 l 1,20,-1
 128 640 l 1,21,-1
 0 640 l 1,18,-1
512 640 m 1,22,-1
 512 768 l 1,23,-1
 640 768 l 1,24,-1
 640 640 l 1,25,-1
 512 640 l 1,22,-1
128 768 m 1,26,-1
 128 896 l 1,27,-1
 512 896 l 1,28,-1
 512 768 l 1,29,-1
 128 768 l 1,26,-1
EndSplineSet
Validated: 5
EndChar

StartChar: adieresis
Encoding: 228 228 146
Width: 800
GlyphClass: 1
Flags: W
LayerCount: 2
Fore
SplineSet
0 128 m 1,0,-1
 0 256 l 1,1,-1
 128 256 l 1,2,-1
 128 128 l 1,3,-1
 0 128 l 1,0,-1
128 0 m 1,4,-1
 128 128 l 1,5,-1
 512 128 l 1,6,-1
 512 256 l 1,7,-1
 128 256 l 1,8,-1
 128 384 l 1,9,-1
 512 384 l 1,10,-1
 512 512 l 1,11,-1
 640 512 l 1,12,-1
 640 0 l 1,13,-1
 128 0 l 1,4,-1
128 512 m 1,14,-1
 128 640 l 1,15,-1
 512 640 l 1,16,-1
 512 512 l 1,17,-1
 128 512 l 1,14,-1
128 768 m 1,18,-1
 128 896 l 1,19,-1
 256 896 l 1,20,-1
 256 768 l 1,21,-1
 128 768 l 1,18,-1
384 768 m 1,22,-1
 384 896 l 1,23,-1
 512 896 l 1,24,-1
 512 768 l 1,25,-1
 384 768 l 1,22,-1
EndSplineSet
Validated: 5
EndChar

StartChar: aring
Encoding: 229 229 147
Width: 800
GlyphClass: 1
Flags: W
LayerCount: 2
Fore
SplineSet
0 128 m 1,0,-1
 0 256 l 1,1,-1
 128 256 l 1,2,-1
 128 128 l 1,3,-1
 0 128 l 1,0,-1
128 0 m 1,4,-1
 128 128 l 1,5,-1
 512 128 l 1,6,-1
 512 256 l 1,7,-1
 128 256 l 1,8,-1
 128 384 l 1,9,-1
 512 384 l 1,10,-1
 512 512 l 1,11,-1
 640 512 l 1,12,-1
 640 0 l 1,13,-1
 128 0 l 1,4,-1
128 512 m 1,14,-1
 128 640 l 1,15,-1
 512 640 l 1,16,-1
 512 512 l 1,17,-1
 128 512 l 1,14,-1
256 768 m 1,18,-1
 256 896 l 1,19,-1
 384 896 l 1,20,-1
 384 768 l 1,21,-1
 256 768 l 1,18,-1
EndSplineSet
Validated: 5
EndChar

StartChar: ae
Encoding: 230 230 148
Width: 800
GlyphClass: 1
Flags: W
LayerCount: 2
Fore
SplineSet
0 128 m 1,0,-1
 0 256 l 1,1,-1
 128 256 l 1,2,-1
 128 128 l 1,3,-1
 0 128 l 1,0,-1
128 0 m 1,4,-1
 128 128 l 1,5,-1
 256 128 l 1,6,-1
 256 256 l 1,7,-1
 128 256 l 1,8,-1
 128 384 l 1,9,-1
 256 384 l 1,10,-1
 256 512 l 1,11,-1
 384 512 l 1,12,-1
 384 384 l 1,13,-1
 512 384 l 1,14,-1
 512 512 l 1,15,-1
 640 512 l 1,16,-1
 640 256 l 1,17,-1
 384 256 l 1,18,-1
 384 128 l 1,19,-1
 640 128 l 1,20,-1
 640 0 l 1,21,-1
 128 0 l 1,4,-1
128 512 m 1,22,-1
 128 640 l 1,23,-1
 256 640 l 1,24,-1
 256 512 l 1,25,-1
 128 512 l 1,22,-1
384 512 m 1,26,-1
 384 640 l 1,27,-1
 512 640 l 1,28,-1
 512 512 l 1,29,-1
 384 512 l 1,26,-1
EndSplineSet
Validated: 5
EndChar

StartChar: ccedilla
Encoding: 231 231 149
Width: 800
GlyphClass: 1
Flags: W
LayerCount: 2
Fore
SplineSet
256 -128 m 1,0,-1
 256 0 l 1,1,-1
 512 0 l 1,2,-1
 512 -128 l 1,3,-1
 256 -128 l 1,0,-1
512 0 m 1,4,-1
 512 128 l 1,5,-1
 640 128 l 1,6,-1
 640 0 l 1,7,-1
 512 0 l 1,4,-1
128 128 m 1,8,-1
 128 256 l 1,9,-1
 512 256 l 1,10,-1
 512 128 l 1,11,-1
 128 128 l 1,8,-1
512 256 m 1,12,-1
 512 384 l 1,13,-1
 640 384 l 1,14,-1
 640 256 l 1,15,-1
 512 256 l 1,12,-1
0 256 m 1,16,-1
 0 640 l 1,17,-1
 128 640 l 1,18,-1
 128 256 l 1,19,-1
 0 256 l 1,16,-1
512 512 m 1,20,-1
 512 640 l 1,21,-1
 640 640 l 1,22,-1
 640 512 l 1,23,-1
 512 512 l 1,20,-1
128 640 m 1,24,-1
 128 768 l 1,25,-1
 512 768 l 1,26,-1
 512 640 l 1,27,-1
 128 640 l 1,24,-1
EndSplineSet
Validated: 5
EndChar

StartChar: egrave
Encoding: 232 232 150
Width: 800
GlyphClass: 1
Flags: W
LayerCount: 2
Fore
SplineSet
128 0 m 1,0,-1
 128 128 l 1,1,-1
 640 128 l 1,2,-1
 640 0 l 1,3,-1
 128 0 l 1,0,-1
0 128 m 1,4,-1
 0 512 l 1,5,-1
 128 512 l 1,6,-1
 128 384 l 1,7,-1
 512 384 l 1,8,-1
 512 512 l 1,9,-1
 640 512 l 1,10,-1
 640 256 l 1,11,-1
 128 256 l 1,12,-1
 128 128 l 1,13,-1
 0 128 l 1,4,-1
128 512 m 1,14,-1
 128 640 l 1,15,-1
 512 640 l 1,16,-1
 512 512 l 1,17,-1
 128 512 l 1,14,-1
0 768 m 1,18,-1
 0 896 l 1,19,-1
 256 896 l 1,20,-1
 256 768 l 1,21,-1
 0 768 l 1,18,-1
EndSplineSet
Validated: 5
EndChar

StartChar: eacute
Encoding: 233 233 151
Width: 800
GlyphClass: 1
Flags: W
LayerCount: 2
Fore
SplineSet
128 0 m 1,0,-1
 128 128 l 1,1,-1
 640 128 l 1,2,-1
 640 0 l 1,3,-1
 128 0 l 1,0,-1
0 128 m 1,4,-1
 0 512 l 1,5,-1
 128 512 l 1,6,-1
 128 384 l 1,7,-1
 512 384 l 1,8,-1
 512 512 l 1,9,-1
 640 512 l 1,10,-1
 640 256 l 1,11,-1
 128 256 l 1,12,-1
 128 128 l 1,13,-1
 0 128 l 1,4,-1
128 512 m 1,14,-1
 128 640 l 1,15,-1
 512 640 l 1,16,-1
 512 512 l 1,17,-1
 128 512 l 1,14,-1
384 768 m 1,18,-1
 384 896 l 1,19,-1
 640 896 l 1,20,-1
 640 768 l 1,21,-1
 384 768 l 1,18,-1
EndSplineSet
Validated: 5
EndChar

StartChar: ecircumflex
Encoding: 234 234 152
Width: 800
GlyphClass: 1
Flags: W
LayerCount: 2
Fore
SplineSet
128 0 m 1,0,-1
 128 128 l 1,1,-1
 640 128 l 1,2,-1
 640 0 l 1,3,-1
 128 0 l 1,0,-1
0 128 m 1,4,-1
 0 512 l 1,5,-1
 128 512 l 1,6,-1
 128 384 l 1,7,-1
 512 384 l 1,8,-1
 512 512 l 1,9,-1
 640 512 l 1,10,-1
 640 256 l 1,11,-1
 128 256 l 1,12,-1
 128 128 l 1,13,-1
 0 128 l 1,4,-1
128 512 m 1,14,-1
 128 640 l 1,15,-1
 512 640 l 1,16,-1
 512 512 l 1,17,-1
 128 512 l 1,14,-1
0 640 m 1,18,-1
 0 768 l 1,19,-1
 128 768 l 1,20,-1
 128 640 l 1,21,-1
 0 640 l 1,18,-1
512 640 m 1,22,-1
 512 768 l 1,23,-1
 640 768 l 1,24,-1
 640 640 l 1,25,-1
 512 640 l 1,22,-1
128 768 m 1,26,-1
 128 896 l 1,27,-1
 512 896 l 1,28,-1
 512 768 l 1,29,-1
 128 768 l 1,26,-1
EndSplineSet
Validated: 5
EndChar

StartChar: edieresis
Encoding: 235 235 153
Width: 800
GlyphClass: 1
Flags: W
LayerCount: 2
Fore
SplineSet
128 0 m 1,0,-1
 128 128 l 1,1,-1
 640 128 l 1,2,-1
 640 0 l 1,3,-1
 128 0 l 1,0,-1
0 128 m 1,4,-1
 0 512 l 1,5,-1
 128 512 l 1,6,-1
 128 384 l 1,7,-1
 512 384 l 1,8,-1
 512 512 l 1,9,-1
 640 512 l 1,10,-1
 640 256 l 1,11,-1
 128 256 l 1,12,-1
 128 128 l 1,13,-1
 0 128 l 1,4,-1
128 512 m 1,14,-1
 128 640 l 1,15,-1
 512 640 l 1,16,-1
 512 512 l 1,17,-1
 128 512 l 1,14,-1
128 768 m 1,18,-1
 128 896 l 1,19,-1
 256 896 l 1,20,-1
 256 768 l 1,21,-1
 128 768 l 1,18,-1
384 768 m 1,22,-1
 384 896 l 1,23,-1
 512 896 l 1,24,-1
 512 768 l 1,25,-1
 384 768 l 1,22,-1
EndSplineSet
Validated: 5
EndChar

StartChar: igrave
Encoding: 236 236 154
Width: 416
GlyphClass: 1
Flags: W
LayerCount: 2
Fore
SplineSet
128 0 m 1,0,-1
 128 640 l 1,1,-1
 256 640 l 1,2,-1
 256 0 l 1,3,-1
 128 0 l 1,0,-1
0 768 m 1,4,-1
 0 896 l 1,5,-1
 256 896 l 1,6,-1
 256 768 l 1,7,-1
 0 768 l 1,4,-1
EndSplineSet
Validated: 1
EndChar

StartChar: iacute
Encoding: 237 237 155
Width: 416
GlyphClass: 1
Flags: W
LayerCount: 2
Fore
SplineSet
0 0 m 1,0,-1
 0 640 l 1,1,-1
 128 640 l 1,2,-1
 128 0 l 1,3,-1
 0 0 l 1,0,-1
0 768 m 1,4,-1
 0 896 l 1,5,-1
 256 896 l 1,6,-1
 256 768 l 1,7,-1
 0 768 l 1,4,-1
EndSplineSet
Validated: 1
EndChar

StartChar: icircumflex
Encoding: 238 238 156
Width: 800
GlyphClass: 1
Flags: W
LayerCount: 2
Fore
SplineSet
256 0 m 1,0,-1
 256 640 l 1,1,-1
 384 640 l 1,2,-1
 384 0 l 1,3,-1
 256 0 l 1,0,-1
0 640 m 5,4,-1
 0 768 l 5,5,-1
 128 768 l 5,6,-1
 128 640 l 5,7,-1
 0 640 l 5,4,-1
512 640 m 5,8,-1
 512 768 l 5,9,-1
 640 768 l 5,10,-1
 640 640 l 5,11,-1
 512 640 l 5,8,-1
128 768 m 5,12,-1
 128 896 l 5,13,-1
 512 896 l 5,14,-1
 512 768 l 5,15,-1
 128 768 l 5,12,-1
EndSplineSet
Validated: 5
EndChar

StartChar: idieresis
Encoding: 239 239 157
Width: 544
GlyphClass: 1
Flags: W
LayerCount: 2
Fore
SplineSet
128 0 m 1,0,-1
 128 640 l 1,1,-1
 256 640 l 1,2,-1
 256 0 l 1,3,-1
 128 0 l 1,0,-1
0 768 m 1,4,-1
 0 896 l 1,5,-1
 128 896 l 1,6,-1
 128 768 l 1,7,-1
 0 768 l 1,4,-1
256 768 m 1,8,-1
 256 896 l 1,9,-1
 384 896 l 1,10,-1
 384 768 l 1,11,-1
 256 768 l 1,8,-1
EndSplineSet
Validated: 1
EndChar

StartChar: ntilde
Encoding: 241 241 158
Width: 800
GlyphClass: 1
Flags: W
LayerCount: 2
Fore
SplineSet
512 0 m 1,0,-1
 512 512 l 1,1,-1
 640 512 l 1,2,-1
 640 0 l 1,3,-1
 512 0 l 1,0,-1
0 0 m 1,4,-1
 0 640 l 1,5,-1
 512 640 l 1,6,-1
 512 512 l 1,7,-1
 128 512 l 1,8,-1
 128 0 l 1,9,-1
 0 0 l 1,4,-1
0 768 m 1,10,-1
 0 896 l 1,11,-1
 640 896 l 1,12,-1
 640 768 l 1,13,-1
 0 768 l 1,10,-1
EndSplineSet
Validated: 5
EndChar

StartChar: ograve
Encoding: 242 242 159
Width: 800
GlyphClass: 1
Flags: W
LayerCount: 2
Fore
SplineSet
128 0 m 1,0,-1
 128 128 l 1,1,-1
 512 128 l 1,2,-1
 512 0 l 1,3,-1
 128 0 l 1,0,-1
0 128 m 1,4,-1
 0 512 l 1,5,-1
 128 512 l 1,6,-1
 128 128 l 1,7,-1
 0 128 l 1,4,-1
512 128 m 1,8,-1
 512 512 l 1,9,-1
 640 512 l 1,10,-1
 640 128 l 1,11,-1
 512 128 l 1,8,-1
128 512 m 1,12,-1
 128 640 l 1,13,-1
 512 640 l 1,14,-1
 512 512 l 1,15,-1
 128 512 l 1,12,-1
0 768 m 1,16,-1
 0 896 l 1,17,-1
 256 896 l 1,18,-1
 256 768 l 1,19,-1
 0 768 l 1,16,-1
EndSplineSet
Validated: 5
EndChar

StartChar: oacute
Encoding: 243 243 160
Width: 800
GlyphClass: 1
Flags: W
LayerCount: 2
Fore
SplineSet
128 0 m 1,0,-1
 128 128 l 1,1,-1
 512 128 l 1,2,-1
 512 0 l 1,3,-1
 128 0 l 1,0,-1
0 128 m 1,4,-1
 0 512 l 1,5,-1
 128 512 l 1,6,-1
 128 128 l 1,7,-1
 0 128 l 1,4,-1
512 128 m 1,8,-1
 512 512 l 1,9,-1
 640 512 l 1,10,-1
 640 128 l 1,11,-1
 512 128 l 1,8,-1
128 512 m 1,12,-1
 128 640 l 1,13,-1
 512 640 l 1,14,-1
 512 512 l 1,15,-1
 128 512 l 1,12,-1
384 768 m 1,16,-1
 384 896 l 1,17,-1
 640 896 l 1,18,-1
 640 768 l 1,19,-1
 384 768 l 1,16,-1
EndSplineSet
Validated: 5
EndChar

StartChar: ocircumflex
Encoding: 244 244 161
Width: 800
GlyphClass: 1
Flags: W
LayerCount: 2
Fore
SplineSet
128 0 m 1,0,-1
 128 128 l 1,1,-1
 512 128 l 1,2,-1
 512 0 l 1,3,-1
 128 0 l 1,0,-1
0 128 m 1,4,-1
 0 512 l 1,5,-1
 128 512 l 1,6,-1
 128 128 l 1,7,-1
 0 128 l 1,4,-1
512 128 m 1,8,-1
 512 512 l 1,9,-1
 640 512 l 1,10,-1
 640 128 l 1,11,-1
 512 128 l 1,8,-1
128 512 m 1,12,-1
 128 640 l 1,13,-1
 512 640 l 1,14,-1
 512 512 l 1,15,-1
 128 512 l 1,12,-1
0 640 m 1,16,-1
 0 768 l 1,17,-1
 128 768 l 1,18,-1
 128 640 l 1,19,-1
 0 640 l 1,16,-1
512 640 m 1,20,-1
 512 768 l 1,21,-1
 640 768 l 1,22,-1
 640 640 l 1,23,-1
 512 640 l 1,20,-1
128 768 m 1,24,-1
 128 896 l 1,25,-1
 512 896 l 1,26,-1
 512 768 l 1,27,-1
 128 768 l 1,24,-1
EndSplineSet
Validated: 5
EndChar

StartChar: odieresis
Encoding: 246 246 162
Width: 800
GlyphClass: 1
Flags: W
LayerCount: 2
Fore
SplineSet
128 0 m 1,0,-1
 128 128 l 1,1,-1
 512 128 l 1,2,-1
 512 0 l 1,3,-1
 128 0 l 1,0,-1
0 128 m 1,4,-1
 0 512 l 1,5,-1
 128 512 l 1,6,-1
 128 128 l 1,7,-1
 0 128 l 1,4,-1
512 128 m 1,8,-1
 512 512 l 1,9,-1
 640 512 l 1,10,-1
 640 128 l 1,11,-1
 512 128 l 1,8,-1
128 512 m 1,12,-1
 128 640 l 1,13,-1
 512 640 l 1,14,-1
 512 512 l 1,15,-1
 128 512 l 1,12,-1
128 768 m 1,16,-1
 128 896 l 1,17,-1
 256 896 l 1,18,-1
 256 768 l 1,19,-1
 128 768 l 1,16,-1
384 768 m 1,20,-1
 384 896 l 1,21,-1
 512 896 l 1,22,-1
 512 768 l 1,23,-1
 384 768 l 1,20,-1
EndSplineSet
Validated: 5
EndChar

StartChar: divide
Encoding: 247 247 163
Width: 928
GlyphClass: 1
Flags: W
LayerCount: 2
Fore
SplineSet
256 0 m 1,0,-1
 256 256 l 1,1,-1
 512 256 l 1,2,-1
 512 0 l 1,3,-1
 256 0 l 1,0,-1
0 384 m 1,4,-1
 0 512 l 1,5,-1
 768 512 l 1,6,-1
 768 384 l 1,7,-1
 0 384 l 1,4,-1
256 640 m 1,8,-1
 256 896 l 1,9,-1
 512 896 l 1,10,-1
 512 640 l 1,11,-1
 256 640 l 1,8,-1
EndSplineSet
Validated: 1
EndChar

StartChar: oslash
Encoding: 248 248 164
Width: 800
GlyphClass: 1
Flags: W
LayerCount: 2
Fore
SplineSet
256 256 m 1,0,-1
 256 384 l 1,1,-1
 384 384 l 1,2,-1
 384 256 l 1,3,-1
 256 256 l 1,0,-1
128 0 m 1,4,-1
 128 128 l 1,5,-1
 0 128 l 1,6,-1
 0 512 l 1,7,-1
 128 512 l 1,8,-1
 128 256 l 1,9,-1
 256 256 l 1,10,-1
 256 128 l 1,11,-1
 512 128 l 1,12,-1
 512 0 l 1,13,-1
 128 0 l 1,4,-1
512 128 m 1,14,-1
 512 384 l 1,15,-1
 384 384 l 1,16,-1
 384 512 l 1,17,-1
 128 512 l 1,18,-1
 128 640 l 1,19,-1
 512 640 l 1,20,-1
 512 512 l 1,21,-1
 640 512 l 1,22,-1
 640 128 l 1,23,-1
 512 128 l 1,14,-1
EndSplineSet
Validated: 5
EndChar

StartChar: ugrave
Encoding: 249 249 165
Width: 800
GlyphClass: 1
Flags: W
LayerCount: 2
Fore
SplineSet
0 128 m 1,0,-1
 0 640 l 1,1,-1
 128 640 l 1,2,-1
 128 128 l 1,3,-1
 0 128 l 1,0,-1
128 0 m 1,4,-1
 128 128 l 1,5,-1
 512 128 l 1,6,-1
 512 640 l 1,7,-1
 640 640 l 1,8,-1
 640 0 l 1,9,-1
 128 0 l 1,4,-1
0 768 m 1,10,-1
 0 896 l 1,11,-1
 256 896 l 1,12,-1
 256 768 l 1,13,-1
 0 768 l 1,10,-1
EndSplineSet
Validated: 5
EndChar

StartChar: uacute
Encoding: 250 250 166
Width: 800
GlyphClass: 1
Flags: W
LayerCount: 2
Fore
SplineSet
0 128 m 1,0,-1
 0 640 l 1,1,-1
 128 640 l 1,2,-1
 128 128 l 1,3,-1
 0 128 l 1,0,-1
128 0 m 1,4,-1
 128 128 l 1,5,-1
 512 128 l 1,6,-1
 512 640 l 1,7,-1
 640 640 l 1,8,-1
 640 0 l 1,9,-1
 128 0 l 1,4,-1
384 768 m 1,10,-1
 384 896 l 1,11,-1
 640 896 l 1,12,-1
 640 768 l 1,13,-1
 384 768 l 1,10,-1
EndSplineSet
Validated: 5
EndChar

StartChar: ucircumflex
Encoding: 251 251 167
Width: 800
GlyphClass: 1
Flags: W
LayerCount: 2
Fore
SplineSet
0 128 m 1,0,-1
 0 512 l 1,1,-1
 128 512 l 1,2,-1
 128 128 l 1,3,-1
 0 128 l 1,0,-1
128 0 m 1,4,-1
 128 128 l 1,5,-1
 512 128 l 1,6,-1
 512 512 l 1,7,-1
 640 512 l 1,8,-1
 640 0 l 1,9,-1
 128 0 l 1,4,-1
0 640 m 1,10,-1
 0 768 l 1,11,-1
 128 768 l 1,12,-1
 128 640 l 1,13,-1
 0 640 l 1,10,-1
512 640 m 1,14,-1
 512 768 l 1,15,-1
 640 768 l 1,16,-1
 640 640 l 1,17,-1
 512 640 l 1,14,-1
128 768 m 1,18,-1
 128 896 l 1,19,-1
 512 896 l 1,20,-1
 512 768 l 1,21,-1
 128 768 l 1,18,-1
EndSplineSet
Validated: 5
EndChar

StartChar: udieresis
Encoding: 252 252 168
Width: 800
GlyphClass: 1
Flags: W
LayerCount: 2
Fore
SplineSet
128 0 m 1,0,-1
 128 128 l 1,1,-1
 512 128 l 1,2,-1
 512 0 l 1,3,-1
 128 0 l 1,0,-1
0 128 m 1,4,-1
 0 640 l 1,5,-1
 128 640 l 1,6,-1
 128 128 l 1,7,-1
 0 128 l 1,4,-1
512 128 m 1,8,-1
 512 640 l 1,9,-1
 640 640 l 1,10,-1
 640 128 l 1,11,-1
 512 128 l 1,8,-1
0 768 m 1,12,-1
 0 896 l 1,13,-1
 128 896 l 1,14,-1
 128 768 l 1,15,-1
 0 768 l 1,12,-1
512 768 m 1,16,-1
 512 896 l 1,17,-1
 640 896 l 1,18,-1
 640 768 l 1,19,-1
 512 768 l 1,16,-1
EndSplineSet
Validated: 5
EndChar

StartChar: ydieresis
Encoding: 255 255 169
Width: 800
GlyphClass: 1
Flags: W
LayerCount: 2
Fore
SplineSet
0 -128 m 1,0,-1
 0 0 l 1,1,-1
 512 0 l 1,2,-1
 512 -128 l 1,3,-1
 0 -128 l 1,0,-1
0 256 m 1,4,-1
 0 640 l 1,5,-1
 128 640 l 1,6,-1
 128 256 l 1,7,-1
 0 256 l 1,4,-1
512 0 m 1,8,-1
 512 128 l 1,9,-1
 128 128 l 1,10,-1
 128 256 l 1,11,-1
 512 256 l 1,12,-1
 512 640 l 1,13,-1
 640 640 l 1,14,-1
 640 0 l 1,15,-1
 512 0 l 1,8,-1
128 768 m 1,16,-1
 128 896 l 1,17,-1
 256 896 l 1,18,-1
 256 768 l 1,19,-1
 128 768 l 1,16,-1
384 768 m 1,20,-1
 384 896 l 1,21,-1
 512 896 l 1,22,-1
 512 768 l 1,23,-1
 384 768 l 1,20,-1
EndSplineSet
Validated: 5
EndChar

StartChar: Ydieresis
Encoding: 376 376 170
Width: 800
GlyphClass: 1
Flags: W
LayerCount: 2
Fore
SplineSet
0 -128 m 1,0,-1
 0 0 l 1,1,-1
 512 0 l 1,2,-1
 512 -128 l 1,3,-1
 0 -128 l 1,0,-1
0 256 m 1,4,-1
 0 640 l 1,5,-1
 128 640 l 1,6,-1
 128 256 l 1,7,-1
 0 256 l 1,4,-1
512 0 m 1,8,-1
 512 128 l 1,9,-1
 128 128 l 1,10,-1
 128 256 l 1,11,-1
 512 256 l 1,12,-1
 512 640 l 1,13,-1
 640 640 l 1,14,-1
 640 0 l 1,15,-1
 512 0 l 1,8,-1
128 768 m 1,16,-1
 128 896 l 1,17,-1
 256 896 l 1,18,-1
 256 768 l 1,19,-1
 128 768 l 1,16,-1
384 768 m 1,20,-1
 384 896 l 1,21,-1
 512 896 l 1,22,-1
 512 768 l 1,23,-1
 384 768 l 1,20,-1
EndSplineSet
Validated: 5
EndChar

StartChar: Alpha
Encoding: 913 913 171
Width: 800
GlyphClass: 1
Flags: W
LayerCount: 2
Fore
SplineSet
0 0 m 1,0,-1
 0 768 l 1,1,-1
 128 768 l 1,2,-1
 128 640 l 1,3,-1
 512 640 l 1,4,-1
 512 768 l 1,5,-1
 640 768 l 1,6,-1
 640 0 l 1,7,-1
 512 0 l 1,8,-1
 512 512 l 1,9,-1
 128 512 l 1,10,-1
 128 0 l 1,11,-1
 0 0 l 1,0,-1
128 768 m 1,12,-1
 128 896 l 1,13,-1
 512 896 l 1,14,-1
 512 768 l 1,15,-1
 128 768 l 1,12,-1
EndSplineSet
Validated: 5
EndChar

StartChar: Beta
Encoding: 914 914 172
Width: 800
GlyphClass: 1
Flags: W
LayerCount: 2
Fore
SplineSet
512 128 m 1,0,-1
 512 512 l 1,1,-1
 640 512 l 1,2,-1
 640 128 l 1,3,-1
 512 128 l 1,0,-1
512 640 m 1,4,-1
 512 768 l 1,5,-1
 640 768 l 1,6,-1
 640 640 l 1,7,-1
 512 640 l 1,4,-1
0 0 m 1,8,-1
 0 896 l 1,9,-1
 512 896 l 1,10,-1
 512 768 l 1,11,-1
 128 768 l 1,12,-1
 128 640 l 1,13,-1
 512 640 l 1,14,-1
 512 512 l 1,15,-1
 128 512 l 1,16,-1
 128 128 l 1,17,-1
 512 128 l 1,18,-1
 512 0 l 1,19,-1
 0 0 l 1,8,-1
EndSplineSet
Validated: 5
EndChar

StartChar: Gamma
Encoding: 915 915 173
Width: 928
GlyphClass: 1
Flags: W
LayerCount: 2
Fore
SplineSet
0 0 m 1,0,-1
 0 768 l 1,1,-1
 768 768 l 1,2,-1
 768 512 l 1,3,-1
 512 512 l 1,4,-1
 512 640 l 1,5,-1
 256 640 l 1,6,-1
 256 0 l 1,7,-1
 0 0 l 1,0,-1
EndSplineSet
Validated: 1
EndChar

StartChar: uni0394
Encoding: 916 916 174
Width: 800
GlyphClass: 1
Flags: W
LayerCount: 2
Fore
SplineSet
0 0 m 1,0,-1
 0 384 l 1,1,-1
 128 384 l 1,2,-1
 128 128 l 1,3,-1
 512 128 l 1,4,-1
 512 384 l 1,5,-1
 640 384 l 1,6,-1
 640 0 l 1,7,-1
 0 0 l 1,0,-1
128 384 m 1,8,-1
 128 512 l 1,9,-1
 256 512 l 1,10,-1
 256 384 l 1,11,-1
 128 384 l 1,8,-1
384 384 m 1,12,-1
 384 512 l 1,13,-1
 512 512 l 1,14,-1
 512 384 l 1,15,-1
 384 384 l 1,12,-1
256 512 m 1,16,-1
 256 640 l 1,17,-1
 384 640 l 1,18,-1
 384 512 l 1,19,-1
 256 512 l 1,16,-1
EndSplineSet
Validated: 5
EndChar

StartChar: Epsilon
Encoding: 917 917 175
Width: 800
GlyphClass: 1
Flags: W
LayerCount: 2
Fore
SplineSet
0 0 m 1,0,-1
 0 896 l 1,1,-1
 640 896 l 1,2,-1
 640 768 l 1,3,-1
 128 768 l 1,4,-1
 128 640 l 1,5,-1
 384 640 l 1,6,-1
 384 512 l 1,7,-1
 128 512 l 1,8,-1
 128 128 l 1,9,-1
 640 128 l 1,10,-1
 640 0 l 1,11,-1
 0 0 l 1,0,-1
EndSplineSet
Validated: 1
EndChar

StartChar: Zeta
Encoding: 918 918 176
Width: 800
GlyphClass: 1
Flags: W
LayerCount: 2
Fore
SplineSet
0 0 m 1,0,-1
 0 256 l 1,1,-1
 128 256 l 1,2,-1
 128 128 l 1,3,-1
 640 128 l 1,4,-1
 640 0 l 1,5,-1
 0 0 l 1,0,-1
128 256 m 1,6,-1
 128 384 l 1,7,-1
 256 384 l 1,8,-1
 256 256 l 1,9,-1
 128 256 l 1,6,-1
256 384 m 1,10,-1
 256 512 l 1,11,-1
 384 512 l 1,12,-1
 384 384 l 1,13,-1
 256 384 l 1,10,-1
384 512 m 1,14,-1
 384 640 l 1,15,-1
 512 640 l 1,16,-1
 512 512 l 1,17,-1
 384 512 l 1,14,-1
512 640 m 1,18,-1
 512 768 l 1,19,-1
 0 768 l 1,20,-1
 0 896 l 1,21,-1
 640 896 l 1,22,-1
 640 640 l 1,23,-1
 512 640 l 1,18,-1
EndSplineSet
Validated: 5
EndChar

StartChar: Eta
Encoding: 919 919 177
Width: 800
GlyphClass: 1
Flags: W
LayerCount: 2
Fore
SplineSet
0 0 m 1,0,-1
 0 896 l 1,1,-1
 128 896 l 1,2,-1
 128 640 l 1,3,-1
 512 640 l 1,4,-1
 512 896 l 1,5,-1
 640 896 l 1,6,-1
 640 0 l 1,7,-1
 512 0 l 1,8,-1
 512 512 l 1,9,-1
 128 512 l 1,10,-1
 128 0 l 1,11,-1
 0 0 l 1,0,-1
EndSplineSet
Validated: 1
EndChar

StartChar: Kappa
Encoding: 922 922 178
Width: 800
GlyphClass: 1
Flags: W
LayerCount: 2
Fore
SplineSet
512 0 m 1,0,-1
 512 384 l 1,1,-1
 640 384 l 1,2,-1
 640 0 l 1,3,-1
 512 0 l 1,0,-1
384 384 m 1,4,-1
 384 512 l 1,5,-1
 512 512 l 1,6,-1
 512 384 l 1,7,-1
 384 384 l 1,4,-1
384 640 m 1,8,-1
 384 768 l 1,9,-1
 512 768 l 1,10,-1
 512 640 l 1,11,-1
 384 640 l 1,8,-1
0 0 m 1,12,-1
 0 896 l 1,13,-1
 128 896 l 1,14,-1
 128 640 l 1,15,-1
 384 640 l 1,16,-1
 384 512 l 1,17,-1
 128 512 l 1,18,-1
 128 0 l 1,19,-1
 0 0 l 1,12,-1
512 768 m 1,20,-1
 512 896 l 1,21,-1
 640 896 l 1,22,-1
 640 768 l 1,23,-1
 512 768 l 1,20,-1
EndSplineSet
Validated: 5
EndChar

StartChar: Mu
Encoding: 924 924 179
Width: 800
GlyphClass: 1
Flags: W
LayerCount: 2
Fore
SplineSet
256 512 m 1,0,-1
 256 640 l 1,1,-1
 384 640 l 1,2,-1
 384 512 l 1,3,-1
 256 512 l 1,0,-1
0 0 m 1,4,-1
 0 896 l 1,5,-1
 128 896 l 1,6,-1
 128 768 l 1,7,-1
 256 768 l 1,8,-1
 256 640 l 1,9,-1
 128 640 l 1,10,-1
 128 0 l 1,11,-1
 0 0 l 1,4,-1
512 0 m 1,12,-1
 512 640 l 1,13,-1
 384 640 l 1,14,-1
 384 768 l 1,15,-1
 512 768 l 1,16,-1
 512 896 l 1,17,-1
 640 896 l 1,18,-1
 640 0 l 1,19,-1
 512 0 l 1,12,-1
EndSplineSet
Validated: 5
EndChar

StartChar: Nu
Encoding: 925 925 180
Width: 800
GlyphClass: 1
Flags: W
LayerCount: 2
Fore
SplineSet
256 512 m 1,0,-1
 256 640 l 1,1,-1
 384 640 l 1,2,-1
 384 512 l 1,3,-1
 256 512 l 1,0,-1
0 0 m 1,4,-1
 0 896 l 1,5,-1
 128 896 l 1,6,-1
 128 768 l 1,7,-1
 256 768 l 1,8,-1
 256 640 l 1,9,-1
 128 640 l 1,10,-1
 128 0 l 1,11,-1
 0 0 l 1,4,-1
512 0 m 1,12,-1
 512 384 l 1,13,-1
 384 384 l 1,14,-1
 384 512 l 1,15,-1
 512 512 l 1,16,-1
 512 896 l 1,17,-1
 640 896 l 1,18,-1
 640 0 l 1,19,-1
 512 0 l 1,12,-1
EndSplineSet
Validated: 5
EndChar

StartChar: Xi
Encoding: 926 926 181
Width: 800
GlyphClass: 1
Flags: W
LayerCount: 2
Fore
SplineSet
0 128 m 1,0,-1
 0 256 l 1,1,-1
 640 256 l 1,2,-1
 640 128 l 1,3,-1
 0 128 l 1,0,-1
0 384 m 1,4,-1
 0 512 l 1,5,-1
 640 512 l 1,6,-1
 640 384 l 1,7,-1
 0 384 l 1,4,-1
0 640 m 1,8,-1
 0 768 l 1,9,-1
 640 768 l 1,10,-1
 640 640 l 1,11,-1
 0 640 l 1,8,-1
EndSplineSet
Validated: 1
EndChar

StartChar: Omicron
Encoding: 927 927 182
Width: 800
GlyphClass: 1
Flags: W
LayerCount: 2
Fore
SplineSet
128 0 m 1,0,-1
 128 128 l 1,1,-1
 512 128 l 1,2,-1
 512 0 l 1,3,-1
 128 0 l 1,0,-1
0 128 m 1,4,-1
 0 768 l 1,5,-1
 128 768 l 1,6,-1
 128 128 l 1,7,-1
 0 128 l 1,4,-1
512 128 m 1,8,-1
 512 768 l 1,9,-1
 640 768 l 1,10,-1
 640 128 l 1,11,-1
 512 128 l 1,8,-1
128 768 m 1,12,-1
 128 896 l 1,13,-1
 512 896 l 1,14,-1
 512 768 l 1,15,-1
 128 768 l 1,12,-1
EndSplineSet
Validated: 5
EndChar

StartChar: Pi
Encoding: 928 928 183
Width: 1056
GlyphClass: 1
Flags: W
LayerCount: 2
Fore
SplineSet
128 0 m 1,0,-1
 128 640 l 1,1,-1
 0 640 l 1,2,-1
 0 768 l 1,3,-1
 896 768 l 1,4,-1
 896 640 l 1,5,-1
 768 640 l 1,6,-1
 768 0 l 1,7,-1
 512 0 l 1,8,-1
 512 640 l 1,9,-1
 384 640 l 1,10,-1
 384 0 l 1,11,-1
 128 0 l 1,0,-1
EndSplineSet
Validated: 1
EndChar

StartChar: Rho
Encoding: 929 929 184
Width: 800
GlyphClass: 1
Flags: W
LayerCount: 2
Fore
SplineSet
512 640 m 1,0,-1
 512 768 l 1,1,-1
 640 768 l 1,2,-1
 640 640 l 1,3,-1
 512 640 l 1,0,-1
0 0 m 1,4,-1
 0 896 l 1,5,-1
 512 896 l 1,6,-1
 512 768 l 1,7,-1
 128 768 l 1,8,-1
 128 640 l 1,9,-1
 512 640 l 1,10,-1
 512 512 l 1,11,-1
 128 512 l 1,12,-1
 128 0 l 1,13,-1
 0 0 l 1,4,-1
EndSplineSet
Validated: 5
EndChar

StartChar: Sigma
Encoding: 931 931 185
Width: 928
GlyphClass: 1
Flags: W
LayerCount: 2
Fore
SplineSet
0 0 m 1,0,-1
 0 256 l 1,1,-1
 128 256 l 1,2,-1
 128 384 l 1,3,-1
 256 384 l 1,4,-1
 256 512 l 1,5,-1
 128 512 l 1,6,-1
 128 640 l 1,7,-1
 0 640 l 1,8,-1
 0 896 l 1,9,-1
 768 896 l 1,10,-1
 768 640 l 1,11,-1
 512 640 l 1,12,-1
 512 768 l 1,13,-1
 256 768 l 1,14,-1
 256 640 l 1,15,-1
 384 640 l 1,16,-1
 384 512 l 1,17,-1
 512 512 l 1,18,-1
 512 384 l 1,19,-1
 384 384 l 1,20,-1
 384 256 l 1,21,-1
 256 256 l 1,22,-1
 256 128 l 1,23,-1
 512 128 l 1,24,-1
 512 256 l 1,25,-1
 768 256 l 1,26,-1
 768 0 l 1,27,-1
 0 0 l 1,0,-1
EndSplineSet
Validated: 1
EndChar

StartChar: Tau
Encoding: 932 932 186
Width: 800
GlyphClass: 1
Flags: W
LayerCount: 2
Fore
SplineSet
256 0 m 1,0,-1
 256 768 l 1,1,-1
 0 768 l 1,2,-1
 0 896 l 1,3,-1
 640 896 l 1,4,-1
 640 768 l 1,5,-1
 384 768 l 1,6,-1
 384 0 l 1,7,-1
 256 0 l 1,0,-1
EndSplineSet
Validated: 1
EndChar

StartChar: Chi
Encoding: 935 935 187
Width: 800
GlyphClass: 1
Flags: W
LayerCount: 2
Fore
SplineSet
0 0 m 1,0,-1
 0 384 l 1,1,-1
 128 384 l 1,2,-1
 128 0 l 1,3,-1
 0 0 l 1,0,-1
512 0 m 1,4,-1
 512 384 l 1,5,-1
 640 384 l 1,6,-1
 640 0 l 1,7,-1
 512 0 l 1,4,-1
128 384 m 1,8,-1
 128 512 l 1,9,-1
 256 512 l 1,10,-1
 256 384 l 1,11,-1
 128 384 l 1,8,-1
384 384 m 1,12,-1
 384 512 l 1,13,-1
 512 512 l 1,14,-1
 512 384 l 1,15,-1
 384 384 l 1,12,-1
256 512 m 1,16,-1
 256 640 l 1,17,-1
 384 640 l 1,18,-1
 384 512 l 1,19,-1
 256 512 l 1,16,-1
128 640 m 1,20,-1
 128 768 l 1,21,-1
 256 768 l 1,22,-1
 256 640 l 1,23,-1
 128 640 l 1,20,-1
384 640 m 1,24,-1
 384 768 l 1,25,-1
 512 768 l 1,26,-1
 512 640 l 1,27,-1
 384 640 l 1,24,-1
0 768 m 1,28,-1
 0 896 l 1,29,-1
 128 896 l 1,30,-1
 128 768 l 1,31,-1
 0 768 l 1,28,-1
512 768 m 1,32,-1
 512 896 l 1,33,-1
 640 896 l 1,34,-1
 640 768 l 1,35,-1
 512 768 l 1,32,-1
EndSplineSet
Validated: 5
EndChar

StartChar: uni03A9
Encoding: 937 937 188
Width: 1056
GlyphClass: 1
Flags: W
LayerCount: 2
Fore
SplineSet
0 0 m 1,0,-1
 0 128 l 1,1,-1
 128 128 l 1,2,-1
 128 384 l 1,3,-1
 0 384 l 1,4,-1
 0 640 l 1,5,-1
 128 640 l 1,6,-1
 128 768 l 1,7,-1
 256 768 l 1,8,-1
 256 896 l 1,9,-1
 640 896 l 1,10,-1
 640 768 l 1,11,-1
 768 768 l 1,12,-1
 768 640 l 1,13,-1
 896 640 l 1,14,-1
 896 384 l 1,15,-1
 768 384 l 1,16,-1
 768 128 l 1,17,-1
 896 128 l 1,18,-1
 896 0 l 1,19,-1
 512 0 l 1,20,-1
 512 384 l 1,21,-1
 640 384 l 1,22,-1
 640 640 l 1,23,-1
 512 640 l 1,24,-1
 512 768 l 1,25,-1
 384 768 l 1,26,-1
 384 640 l 1,27,-1
 256 640 l 1,28,-1
 256 384 l 1,29,-1
 384 384 l 1,30,-1
 384 0 l 1,31,-1
 0 0 l 1,0,-1
EndSplineSet
Validated: 1
EndChar

StartChar: alpha
Encoding: 945 945 189
Width: 1056
GlyphClass: 1
Flags: W
LayerCount: 2
Fore
SplineSet
384 128 m 1,0,-1
 384 256 l 1,1,-1
 512 256 l 1,2,-1
 512 384 l 1,3,-1
 384 384 l 1,4,-1
 384 512 l 1,5,-1
 256 512 l 1,6,-1
 256 128 l 1,7,-1
 384 128 l 1,0,-1
128 0 m 1,8,-1
 128 128 l 1,9,-1
 0 128 l 1,10,-1
 0 512 l 1,11,-1
 128 512 l 1,12,-1
 128 640 l 1,13,-1
 512 640 l 1,14,-1
 512 512 l 1,15,-1
 640 512 l 1,16,-1
 640 640 l 1,17,-1
 896 640 l 1,18,-1
 896 512 l 1,19,-1
 768 512 l 1,20,-1
 768 384 l 1,21,-1
 640 384 l 1,22,-1
 640 256 l 1,23,-1
 768 256 l 1,24,-1
 768 128 l 1,25,-1
 896 128 l 1,26,-1
 896 0 l 1,27,-1
 640 0 l 1,28,-1
 640 128 l 1,29,-1
 512 128 l 1,30,-1
 512 0 l 1,31,-1
 128 0 l 1,8,-1
EndSplineSet
Validated: 1
EndChar

StartChar: beta
Encoding: 946 946 190
Width: 928
GlyphClass: 1
Flags: W
LayerCount: 2
Fore
SplineSet
512 384 m 1,0,-1
 512 512 l 1,1,-1
 256 512 l 1,2,-1
 256 384 l 1,3,-1
 512 384 l 1,0,-1
512 640 m 1,4,-1
 512 768 l 1,5,-1
 256 768 l 1,6,-1
 256 640 l 1,7,-1
 512 640 l 1,4,-1
0 -128 m 1,8,-1
 0 768 l 1,9,-1
 128 768 l 1,10,-1
 128 896 l 1,11,-1
 640 896 l 1,12,-1
 640 768 l 1,13,-1
 768 768 l 1,14,-1
 768 640 l 1,15,-1
 640 640 l 1,16,-1
 640 512 l 1,17,-1
 768 512 l 1,18,-1
 768 384 l 1,19,-1
 640 384 l 1,20,-1
 640 256 l 1,21,-1
 256 256 l 1,22,-1
 256 -128 l 1,23,-1
 0 -128 l 1,8,-1
EndSplineSet
Validated: 1
EndChar

StartChar: delta
Encoding: 948 948 191
Width: 928
GlyphClass: 1
Flags: W
LayerCount: 2
Fore
SplineSet
512 128 m 1,0,-1
 512 384 l 1,1,-1
 256 384 l 1,2,-1
 256 128 l 1,3,-1
 512 128 l 1,0,-1
128 0 m 1,4,-1
 128 128 l 1,5,-1
 0 128 l 1,6,-1
 0 384 l 1,7,-1
 128 384 l 1,8,-1
 128 512 l 1,9,-1
 384 512 l 1,10,-1
 384 640 l 1,11,-1
 256 640 l 1,12,-1
 256 768 l 1,13,-1
 384 768 l 1,14,-1
 384 896 l 1,15,-1
 768 896 l 1,16,-1
 768 768 l 1,17,-1
 512 768 l 1,18,-1
 512 640 l 1,19,-1
 640 640 l 1,20,-1
 640 512 l 1,21,-1
 768 512 l 1,22,-1
 768 128 l 1,23,-1
 640 128 l 1,24,-1
 640 0 l 1,25,-1
 128 0 l 1,4,-1
EndSplineSet
Validated: 1
EndChar

StartChar: epsilon
Encoding: 949 949 192
Width: 800
GlyphClass: 1
Flags: W
LayerCount: 2
Fore
SplineSet
256 0 m 1,0,-1
 256 128 l 1,1,-1
 128 128 l 1,2,-1
 128 256 l 1,3,-1
 0 256 l 1,4,-1
 0 640 l 1,5,-1
 128 640 l 1,6,-1
 128 768 l 1,7,-1
 256 768 l 1,8,-1
 256 896 l 1,9,-1
 640 896 l 1,10,-1
 640 768 l 1,11,-1
 384 768 l 1,12,-1
 384 640 l 1,13,-1
 256 640 l 1,14,-1
 256 512 l 1,15,-1
 640 512 l 1,16,-1
 640 384 l 1,17,-1
 256 384 l 1,18,-1
 256 256 l 1,19,-1
 384 256 l 1,20,-1
 384 128 l 1,21,-1
 640 128 l 1,22,-1
 640 0 l 1,23,-1
 256 0 l 1,0,-1
EndSplineSet
Validated: 1
EndChar

StartChar: theta
Encoding: 952 952 193
Width: 1056
GlyphClass: 1
Flags: W
LayerCount: 2
Fore
SplineSet
512 128 m 1,0,-1
 512 256 l 1,1,-1
 640 256 l 1,2,-1
 640 384 l 1,3,-1
 256 384 l 1,4,-1
 256 256 l 1,5,-1
 384 256 l 1,6,-1
 384 128 l 1,7,-1
 512 128 l 1,0,-1
640 512 m 1,8,-1
 640 640 l 1,9,-1
 512 640 l 1,10,-1
 512 768 l 1,11,-1
 384 768 l 1,12,-1
 384 640 l 1,13,-1
 256 640 l 1,14,-1
 256 512 l 1,15,-1
 640 512 l 1,8,-1
256 0 m 1,16,-1
 256 128 l 1,17,-1
 128 128 l 1,18,-1
 128 256 l 1,19,-1
 0 256 l 1,20,-1
 0 640 l 1,21,-1
 128 640 l 1,22,-1
 128 768 l 1,23,-1
 256 768 l 1,24,-1
 256 896 l 1,25,-1
 640 896 l 1,26,-1
 640 768 l 1,27,-1
 768 768 l 1,28,-1
 768 640 l 1,29,-1
 896 640 l 1,30,-1
 896 256 l 1,31,-1
 768 256 l 1,32,-1
 768 128 l 1,33,-1
 640 128 l 1,34,-1
 640 0 l 1,35,-1
 256 0 l 1,16,-1
EndSplineSet
Validated: 1
EndChar

StartChar: uni03BC
Encoding: 956 956 194
Width: 1056
GlyphClass: 1
Flags: W
LayerCount: 2
Fore
SplineSet
0 -128 m 1,0,-1
 0 0 l 1,1,-1
 128 0 l 1,2,-1
 128 896 l 1,3,-1
 384 896 l 1,4,-1
 384 256 l 1,5,-1
 640 256 l 1,6,-1
 640 896 l 1,7,-1
 896 896 l 1,8,-1
 896 256 l 1,9,-1
 768 256 l 1,10,-1
 768 128 l 1,11,-1
 384 128 l 1,12,-1
 384 0 l 1,13,-1
 256 0 l 1,14,-1
 256 -128 l 1,15,-1
 0 -128 l 1,0,-1
EndSplineSet
Validated: 1
EndChar

StartChar: sigma
Encoding: 963 963 195
Width: 1056
GlyphClass: 1
Flags: W
LayerCount: 2
Fore
SplineSet
384 128 m 1,0,-1
 384 512 l 1,1,-1
 256 512 l 1,2,-1
 256 128 l 1,3,-1
 384 128 l 1,0,-1
128 0 m 1,4,-1
 128 128 l 1,5,-1
 0 128 l 1,6,-1
 0 512 l 1,7,-1
 128 512 l 1,8,-1
 128 640 l 1,9,-1
 896 640 l 1,10,-1
 896 512 l 1,11,-1
 640 512 l 1,12,-1
 640 128 l 1,13,-1
 512 128 l 1,14,-1
 512 0 l 1,15,-1
 128 0 l 1,4,-1
EndSplineSet
Validated: 1
EndChar

StartChar: uni1E9E
Encoding: 7838 7838 196
Width: 800
GlyphClass: 1
Flags: W
LayerCount: 2
Fore
SplineSet
512 128 m 1,0,-1
 512 768 l 1,1,-1
 128 768 l 1,2,-1
 128 128 l 1,3,-1
 512 128 l 1,0,-1
0 0 m 1,4,-1
 0 896 l 1,5,-1
 640 896 l 1,6,-1
 640 0 l 1,7,-1
 0 0 l 1,4,-1
EndSplineSet
Validated: 1
EndChar

StartChar: emdash
Encoding: 8212 8212 197
Width: 800
GlyphClass: 1
Flags: W
LayerCount: 2
Fore
SplineSet
0 384 m 1,0,-1
 0 512 l 1,1,-1
 640 512 l 1,2,-1
 640 384 l 1,3,-1
 0 384 l 1,0,-1
EndSplineSet
Validated: 1
EndChar

StartChar: quoteleft
Encoding: 8216 8216 198
Width: 416
GlyphClass: 1
Flags: W
LayerCount: 2
Fore
SplineSet
0 512 m 1,0,-1
 0 640 l 1,1,-1
 128 640 l 1,2,-1
 128 512 l 1,3,-1
 0 512 l 1,0,-1
128 640 m 1,4,-1
 128 896 l 1,5,-1
 256 896 l 1,6,-1
 256 640 l 1,7,-1
 128 640 l 1,4,-1
EndSplineSet
Validated: 5
EndChar

StartChar: quoteright
Encoding: 8217 8217 199
Width: 416
GlyphClass: 1
Flags: W
LayerCount: 2
Fore
SplineSet
0 512 m 1,0,-1
 0 640 l 1,1,-1
 128 640 l 1,2,-1
 128 512 l 1,3,-1
 0 512 l 1,0,-1
128 640 m 1,4,-1
 128 896 l 1,5,-1
 256 896 l 1,6,-1
 256 640 l 1,7,-1
 128 640 l 1,4,-1
EndSplineSet
Validated: 5
EndChar

StartChar: quotesinglbase
Encoding: 8218 8218 200
Width: 288
GlyphClass: 1
Flags: W
LayerCount: 2
Fore
SplineSet
0 -128 m 1,0,-1
 0 256 l 1,1,-1
 128 256 l 1,2,-1
 128 -128 l 1,3,-1
 0 -128 l 1,0,-1
EndSplineSet
Validated: 1
EndChar

StartChar: quotereversed
Encoding: 8219 8219 201
Width: 416
GlyphClass: 1
Flags: W
LayerCount: 2
Fore
SplineSet
128 512 m 1,0,-1
 128 640 l 1,1,-1
 256 640 l 1,2,-1
 256 512 l 1,3,-1
 128 512 l 1,0,-1
0 640 m 1,4,-1
 0 896 l 1,5,-1
 128 896 l 1,6,-1
 128 640 l 1,7,-1
 0 640 l 1,4,-1
EndSplineSet
Validated: 5
EndChar

StartChar: quotedblleft
Encoding: 8220 8220 202
Width: 672
GlyphClass: 1
Flags: W
LayerCount: 2
Fore
SplineSet
0 512 m 1,0,-1
 0 640 l 1,1,-1
 128 640 l 1,2,-1
 128 512 l 1,3,-1
 0 512 l 1,0,-1
256 512 m 1,4,-1
 256 640 l 1,5,-1
 384 640 l 1,6,-1
 384 512 l 1,7,-1
 256 512 l 1,4,-1
128 640 m 1,8,-1
 128 896 l 1,9,-1
 256 896 l 1,10,-1
 256 640 l 1,11,-1
 128 640 l 1,8,-1
384 640 m 1,12,-1
 384 896 l 1,13,-1
 512 896 l 1,14,-1
 512 640 l 1,15,-1
 384 640 l 1,12,-1
EndSplineSet
Validated: 5
EndChar

StartChar: quotedblright
Encoding: 8221 8221 203
Width: 672
GlyphClass: 1
Flags: W
LayerCount: 2
Fore
SplineSet
0 512 m 1,0,-1
 0 640 l 1,1,-1
 128 640 l 1,2,-1
 128 512 l 1,3,-1
 0 512 l 1,0,-1
256 512 m 1,4,-1
 256 640 l 1,5,-1
 384 640 l 1,6,-1
 384 512 l 1,7,-1
 256 512 l 1,4,-1
128 640 m 1,8,-1
 128 896 l 1,9,-1
 256 896 l 1,10,-1
 256 640 l 1,11,-1
 128 640 l 1,8,-1
384 640 m 1,12,-1
 384 896 l 1,13,-1
 512 896 l 1,14,-1
 512 640 l 1,15,-1
 384 640 l 1,12,-1
EndSplineSet
Validated: 5
EndChar

StartChar: bullet
Encoding: 8226 8226 204
Width: 672
GlyphClass: 1
Flags: W
LayerCount: 2
Fore
SplineSet
128 128 m 1,0,-1
 128 256 l 1,1,-1
 0 256 l 1,2,-1
 0 512 l 1,3,-1
 128 512 l 1,4,-1
 128 640 l 1,5,-1
 384 640 l 1,6,-1
 384 512 l 1,7,-1
 512 512 l 1,8,-1
 512 256 l 1,9,-1
 384 256 l 1,10,-1
 384 128 l 1,11,-1
 128 128 l 1,0,-1
EndSplineSet
Validated: 1
EndChar

StartChar: guilsinglleft
Encoding: 8249 8249 205
Width: 544
GlyphClass: 1
Flags: W
LayerCount: 2
Fore
SplineSet
256 128 m 1,0,-1
 256 256 l 1,1,-1
 384 256 l 1,2,-1
 384 128 l 1,3,-1
 256 128 l 1,0,-1
128 256 m 1,4,-1
 128 384 l 1,5,-1
 256 384 l 1,6,-1
 256 256 l 1,7,-1
 128 256 l 1,4,-1
0 384 m 1,8,-1
 0 512 l 1,9,-1
 128 512 l 1,10,-1
 128 384 l 1,11,-1
 0 384 l 1,8,-1
128 512 m 1,12,-1
 128 640 l 1,13,-1
 256 640 l 1,14,-1
 256 512 l 1,15,-1
 128 512 l 1,12,-1
256 640 m 1,16,-1
 256 768 l 1,17,-1
 384 768 l 1,18,-1
 384 640 l 1,19,-1
 256 640 l 1,16,-1
EndSplineSet
Validated: 5
EndChar

StartChar: guilsinglright
Encoding: 8250 8250 206
Width: 544
GlyphClass: 1
Flags: W
LayerCount: 2
Fore
SplineSet
0 128 m 1,0,-1
 0 256 l 1,1,-1
 128 256 l 1,2,-1
 128 128 l 1,3,-1
 0 128 l 1,0,-1
128 256 m 1,4,-1
 128 384 l 1,5,-1
 256 384 l 1,6,-1
 256 256 l 1,7,-1
 128 256 l 1,4,-1
256 384 m 1,8,-1
 256 512 l 1,9,-1
 384 512 l 1,10,-1
 384 384 l 1,11,-1
 256 384 l 1,8,-1
128 512 m 1,12,-1
 128 640 l 1,13,-1
 256 640 l 1,14,-1
 256 512 l 1,15,-1
 128 512 l 1,12,-1
0 640 m 1,16,-1
 0 768 l 1,17,-1
 128 768 l 1,18,-1
 128 640 l 1,19,-1
 0 640 l 1,16,-1
EndSplineSet
Validated: 5
EndChar

StartChar: uni0218
Encoding: 536 536 207
Width: 800
Flags: W
LayerCount: 2
Fore
SplineSet
249 -128 m 5,0,-1
 249 0 l 5,1,-1
 377 0 l 5,2,-1
 377 -128 l 5,3,-1
 249 -128 l 5,0,-1
128 0 m 5,4,-1
 128 128 l 5,5,-1
 512 128 l 5,6,-1
 512 0 l 5,7,-1
 128 0 l 5,4,-1
0 128 m 5,8,-1
 0 256 l 5,9,-1
 128 256 l 5,10,-1
 128 128 l 5,11,-1
 0 128 l 5,8,-1
512 128 m 5,12,-1
 512 512 l 5,13,-1
 640 512 l 5,14,-1
 640 128 l 5,15,-1
 512 128 l 5,12,-1
128 512 m 5,16,-1
 128 640 l 5,17,-1
 512 640 l 5,18,-1
 512 512 l 5,19,-1
 128 512 l 5,16,-1
0 640 m 5,20,-1
 0 768 l 5,21,-1
 128 768 l 5,22,-1
 128 640 l 5,23,-1
 0 640 l 5,20,-1
128 768 m 5,24,-1
 128 896 l 5,25,-1
 640 896 l 5,26,-1
 640 768 l 5,27,-1
 128 768 l 5,24,-1
EndSplineSet
Validated: 5
EndChar

StartChar: uni0219
Encoding: 537 537 208
Width: 800
Flags: W
LayerCount: 2
Fore
SplineSet
381 0 m 5,0,-1
 381 128 l 5,1,-1
 509 128 l 5,2,-1
 509 0 l 5,3,-1
 381 0 l 5,0,-1
128 128 m 5,4,-1
 128 256 l 5,5,-1
 640 256 l 5,6,-1
 640 128 l 5,7,-1
 128 128 l 5,4,-1
640 256 m 5,8,-1
 640 384 l 5,9,-1
 768 384 l 5,10,-1
 768 256 l 5,11,-1
 640 256 l 5,8,-1
256 384 m 5,12,-1
 256 512 l 5,13,-1
 640 512 l 5,14,-1
 640 384 l 5,15,-1
 256 384 l 5,12,-1
128 512 m 5,16,-1
 128 640 l 5,17,-1
 256 640 l 5,18,-1
 256 512 l 5,19,-1
 128 512 l 5,16,-1
256 640 m 5,20,-1
 256 768 l 5,21,-1
 768 768 l 5,22,-1
 768 640 l 5,23,-1
 256 640 l 5,20,-1
EndSplineSet
Validated: 5
EndChar

StartChar: scedilla
Encoding: 351 351 209
Width: 800
Flags: W
LayerCount: 2
Fore
SplineSet
381 0 m 5,0,-1
 381 128 l 5,1,-1
 509 128 l 5,2,-1
 509 0 l 5,3,-1
 381 0 l 5,0,-1
128 128 m 5,4,-1
 128 256 l 5,5,-1
 640 256 l 5,6,-1
 640 128 l 5,7,-1
 128 128 l 5,4,-1
640 256 m 5,8,-1
 640 384 l 5,9,-1
 768 384 l 5,10,-1
 768 256 l 5,11,-1
 640 256 l 5,8,-1
256 384 m 5,12,-1
 256 512 l 5,13,-1
 640 512 l 5,14,-1
 640 384 l 5,15,-1
 256 384 l 5,12,-1
128 512 m 5,16,-1
 128 640 l 5,17,-1
 256 640 l 5,18,-1
 256 512 l 5,19,-1
 128 512 l 5,16,-1
256 640 m 5,20,-1
 256 768 l 5,21,-1
 768 768 l 5,22,-1
 768 640 l 5,23,-1
 256 640 l 5,20,-1
EndSplineSet
Validated: 5
EndChar

StartChar: Scedilla
Encoding: 350 350 210
Width: 800
Flags: W
LayerCount: 2
Fore
SplineSet
249 -128 m 5,0,-1
 249 0 l 5,1,-1
 377 0 l 5,2,-1
 377 -128 l 5,3,-1
 249 -128 l 5,0,-1
128 0 m 5,4,-1
 128 128 l 5,5,-1
 512 128 l 5,6,-1
 512 0 l 5,7,-1
 128 0 l 5,4,-1
0 128 m 5,8,-1
 0 256 l 5,9,-1
 128 256 l 5,10,-1
 128 128 l 5,11,-1
 0 128 l 5,8,-1
512 128 m 5,12,-1
 512 512 l 5,13,-1
 640 512 l 5,14,-1
 640 128 l 5,15,-1
 512 128 l 5,12,-1
128 512 m 5,16,-1
 128 640 l 5,17,-1
 512 640 l 5,18,-1
 512 512 l 5,19,-1
 128 512 l 5,16,-1
0 640 m 5,20,-1
 0 768 l 5,21,-1
 128 768 l 5,22,-1
 128 640 l 5,23,-1
 0 640 l 5,20,-1
128 768 m 5,24,-1
 128 896 l 5,25,-1
 640 896 l 5,26,-1
 640 768 l 5,27,-1
 128 768 l 5,24,-1
EndSplineSet
Validated: 5
EndChar

StartChar: Gcaron
Encoding: 486 486 211
Width: 800
Flags: W
LayerCount: 2
Fore
SplineSet
128 -134 m 1,0,-1
 128 -6 l 1,1,-1
 512 -6 l 1,2,-1
 512 -134 l 1,3,-1
 128 -134 l 1,0,-1
512 -6 m 1,4,-1
 512 378 l 1,5,-1
 384 378 l 1,6,-1
 384 506 l 1,7,-1
 640 506 l 1,8,-1
 640 -6 l 1,9,-1
 512 -6 l 1,4,-1
0 -6 m 1,10,-1
 0 634 l 1,11,-1
 128 634 l 1,12,-1
 128 -6 l 1,13,-1
 0 -6 l 1,10,-1
128 634 m 1,14,-1
 128 762 l 1,15,-1
 640 762 l 1,16,-1
 640 634 l 1,17,-1
 128 634 l 1,14,-1
EndSplineSet
Validated: 5
EndChar

StartChar: gcaron
Encoding: 487 487 212
Width: 800
Flags: W
LayerCount: 2
Fore
SplineSet
0 897 m 5,0,-1
 0 768 l 5,1,-1
 128 768 l 5,2,-1
 131 891 l 5,3,-1
 0 897 l 5,0,-1
515 899 m 5,4,-1
 512 768 l 5,5,-1
 640 768 l 5,6,-1
 638 894 l 5,7,-1
 515 899 l 5,4,-1
128 768 m 5,8,-1
 128 640 l 5,9,-1
 512 640 l 5,10,-1
 512 768 l 5,11,-1
 128 768 l 5,8,-1
0 -128 m 5,12,-1
 0 0 l 5,13,-1
 512 0 l 5,14,-1
 512 -128 l 5,15,-1
 0 -128 l 5,12,-1
0 256 m 5,16,-1
 0 512 l 5,17,-1
 128 512 l 5,18,-1
 128 256 l 5,19,-1
 0 256 l 5,16,-1
512 0 m 5,20,-1
 512 128 l 5,21,-1
 128 128 l 5,22,-1
 128 256 l 5,23,-1
 512 256 l 5,24,-1
 512 512 l 5,25,-1
 128 512 l 5,26,-1
 128 640 l 5,27,-1
 640 640 l 5,28,-1
 640 0 l 5,29,-1
 512 0 l 5,20,-1
EndSplineSet
Validated: 5
EndChar

StartChar: dotlessi
Encoding: 305 305 213
Width: 288
Flags: W
LayerCount: 2
Fore
SplineSet
0 0 m 1,0,-1
 0 512 l 1,1,-1
 128 512 l 1,2,-1
 128 0 l 1,3,-1
 0 0 l 1,0,-1
EndSplineSet
Validated: 1
EndChar

StartChar: Idotaccent
Encoding: 304 304 214
Width: 544
Flags: W
LayerCount: 2
Fore
SplineSet
128 768 m 5,0,-1
 128 896 l 5,1,-1
 256 896 l 5,2,-1
 256 768 l 5,3,-1
 128 768 l 5,0,-1
0 -128 m 1,4,-1
 0 0 l 1,5,-1
 128 0 l 1,6,-1
 128 640 l 1,7,-1
 0 640 l 1,8,-1
 0 768 l 1,9,-1
 384 768 l 1,10,-1
 384 640 l 1,11,-1
 256 640 l 1,12,-1
 256 0 l 1,13,-1
 384 0 l 1,14,-1
 384 -128 l 1,15,-1
 0 -128 l 1,4,-1
EndSplineSet
Validated: 5
EndChar

StartChar: gbreve
Encoding: 287 287 215
Width: 800
Flags: W
LayerCount: 2
Fore
SplineSet
0 897 m 5,0,-1
 0 768 l 5,1,-1
 128 768 l 5,2,-1
 131 891 l 5,3,-1
 0 897 l 5,0,-1
515 899 m 5,4,-1
 512 768 l 5,5,-1
 640 768 l 5,6,-1
 638 894 l 5,7,-1
 515 899 l 5,4,-1
128 768 m 5,8,-1
 128 640 l 5,9,-1
 512 640 l 5,10,-1
 512 768 l 5,11,-1
 128 768 l 5,8,-1
0 -128 m 5,12,-1
 0 0 l 5,13,-1
 512 0 l 5,14,-1
 512 -128 l 5,15,-1
 0 -128 l 5,12,-1
0 256 m 5,16,-1
 0 512 l 5,17,-1
 128 512 l 5,18,-1
 128 256 l 5,19,-1
 0 256 l 5,16,-1
512 0 m 5,20,-1
 512 128 l 5,21,-1
 128 128 l 5,22,-1
 128 256 l 5,23,-1
 512 256 l 5,24,-1
 512 512 l 5,25,-1
 128 512 l 5,26,-1
 128 640 l 5,27,-1
 640 640 l 5,28,-1
 640 0 l 5,29,-1
 512 0 l 5,20,-1
EndSplineSet
Validated: 5
EndChar

StartChar: Gbreve
Encoding: 286 286 216
Width: 800
Flags: W
LayerCount: 2
Fore
SplineSet
128 -134 m 1,0,-1
 128 -6 l 1,1,-1
 512 -6 l 1,2,-1
 512 -134 l 1,3,-1
 128 -134 l 1,0,-1
512 -6 m 1,4,-1
 512 378 l 1,5,-1
 384 378 l 1,6,-1
 384 506 l 1,7,-1
 640 506 l 1,8,-1
 640 -6 l 1,9,-1
 512 -6 l 1,4,-1
0 -6 m 1,10,-1
 0 634 l 1,11,-1
 128 634 l 1,12,-1
 128 -6 l 1,13,-1
 0 -6 l 1,10,-1
128 634 m 1,14,-1
 128 762 l 1,15,-1
 640 762 l 1,16,-1
 640 634 l 1,17,-1
 128 634 l 1,14,-1
EndSplineSet
Validated: 5
EndChar
